<svg width="211" height="206" viewBox="0 0 211 206" fill="none" xmlns="http://www.w3.org/2000/svg">
<path d="M207.24 74.0513C200.52 52.5613 180.77 36.3313 158.46 33.6913C137.67 -11.2387 72.3605 -11.2288 51.6105 33.7112C2.22047 39.9012 -17.6596 101.261 18.5404 135.331C9.4404 184.521 61.1604 222.021 105.07 198.201C145.75 220.571 195.46 188.891 192.41 142.531L191.88 135.001C208.28 119.341 214.31 95.7612 207.25 74.0412L207.24 74.0513Z" fill="#3BA934"/>
<path d="M199.41 76.2506C193.2 56.4006 174.97 41.4205 154.36 38.9805C135.16 -2.49946 74.8604 -2.49944 55.6904 39.0006C10.0804 44.7106 -8.27958 101.381 25.1604 132.841C16.7604 178.261 64.5104 212.891 105.06 190.891C142.05 211.251 187.5 183.121 185.78 140.891C179.99 146.291 173.74 149.461 168.36 151.341C161.88 180.241 126.84 190.681 105.05 170.741C73.1804 198.701 27.5905 165.571 44.3505 126.641C7.90048 105.021 25.4304 51.3105 67.5304 55.3005C76.8304 13.9705 133.25 14.0106 142.54 55.3106C178.66 51.4106 199.82 93.7105 174.44 119.921C162.98 131.721 143.911 134.561 129.511 126.551C159.971 115.601 152.59 71.8505 119.95 71.2705H63.9404V71.4205H63.7005V142.391H80.4004V87.8306H120.2C136.08 88.3606 136.38 110.361 120.86 111.461H94.8305V128.011C101.17 128.011 107.201 130.411 112.011 134.521C113.881 136.111 115.86 137.581 117.95 138.921C128.58 145.811 141.56 148.881 154.1 147.261C154.22 147.251 154.34 147.241 154.46 147.221C159.52 146.581 164.6 145.161 169.31 143.121V143.331C174.31 141.191 179.95 137.871 185.24 132.751V132.541C188.3 129.601 190.991 126.361 193.251 122.901C193.381 122.721 193.49 122.541 193.6 122.361C202.25 108.761 204.54 92.0206 199.42 76.2606L199.41 76.2506Z" fill="white"/>
</svg>
