<svg width="32" height="32" viewBox="0 0 32 32" fill="none" xmlns="http://www.w3.org/2000/svg">
<path d="M31.515 15.2402C30.5753 17.2365 29.1029 18.8522 27.2611 19.9426C28.3503 22.0709 28.7021 24.4818 28.2498 26.8851C27.7988 29.2948 25.697 31.0448 23.2509 31.0448C23.0348 31.0448 22.8162 31.031 22.6014 31.0034C20.2671 30.7006 18.1577 29.683 16.5032 28.0862C14.8486 29.6842 12.7405 30.7018 10.41 31.0034C7.7365 31.3438 5.25399 29.5347 4.75774 26.8826C4.33687 24.6426 4.61453 22.3925 5.53918 20.3723C3.32302 19.3007 1.55787 17.5179 0.484969 15.2402C-0.659546 12.8054 0.286473 9.88322 2.64083 8.58795C4.71001 7.45223 7.01914 7.0301 9.29686 7.34921C9.70014 5.08279 10.8095 3.01613 12.5181 1.39673C14.4729 -0.463897 17.5459 -0.466413 19.5096 1.39421C21.2182 3.01487 22.3262 5.08028 22.7295 7.34544C24.9997 7.03387 27.2975 7.456 29.3579 8.58795H29.3592C31.7135 9.88322 32.6595 12.8054 31.515 15.2402Z" fill="#3BA934"/>
<path d="M28.672 10.2737C26.4835 9.07142 23.9721 8.83649 21.5989 9.61039C21.3702 9.68451 21.1441 9.76868 20.9205 9.86165C20.9393 9.62044 20.9494 9.37797 20.9494 9.13424C20.9494 6.62912 19.9506 4.29989 18.1364 2.57872C16.9442 1.44928 15.0785 1.45053 13.8901 2.58123C12.0759 4.29989 11.0771 6.62787 11.0771 9.13424C11.0771 9.38299 11.0872 9.63049 11.1073 9.87547C10.8749 9.77748 10.6374 9.68828 10.3987 9.61039C8.02552 8.83649 5.51412 9.07268 3.32559 10.275C1.89212 11.064 1.31547 12.8442 2.01398 14.3279C3.08061 16.5943 4.97515 18.269 7.34835 19.0442C7.72399 19.1673 8.10843 19.2653 8.49286 19.3356C8.36346 19.4914 8.23657 19.651 8.11722 19.8181C6.65109 21.8458 6.09956 24.3195 6.56189 26.7806C6.86466 28.3963 8.37226 29.4956 9.99544 29.2883C12.4691 28.9679 14.6388 27.6751 16.1062 25.6474C16.2507 25.4464 16.3864 25.2416 16.512 25.0331C16.6339 25.2278 16.7721 25.4313 16.9279 25.6474C18.394 27.6751 20.5637 28.9679 23.0374 29.2883C23.1706 29.3059 23.3025 29.3134 23.4331 29.3134C24.8993 29.3134 26.1933 28.2631 26.4709 26.7806C26.9333 24.3182 26.3805 21.8458 24.9156 19.8181C24.7422 19.5794 24.5575 19.3494 24.3653 19.1308C24.4608 19.1032 24.555 19.0756 24.6493 19.0442C27.0225 18.2703 28.917 16.5956 29.9836 14.3279C30.6821 12.8429 30.1055 11.0627 28.672 10.2737ZM25.584 26.6123C25.3691 27.7568 24.3025 28.5408 23.1542 28.39C20.9305 28.1023 18.9794 26.9389 17.6616 25.1173C17.3299 24.6562 17.0924 24.2692 16.9153 23.8986L16.5082 23.0519L16.1012 23.8986C15.9027 24.3119 15.6577 24.7215 15.3738 25.116C14.0546 26.9389 12.1036 28.1023 9.87986 28.39C8.73408 28.5395 7.66369 27.7581 7.45011 26.6123C7.03427 24.3961 7.53052 22.1712 8.84967 20.3457C9.12731 19.9625 9.4326 19.6083 9.75799 19.2917C10.0721 19.0442 10.8585 18.4725 11.449 18.2137C12.1224 20.4048 14.1752 21.9475 16.5045 21.9475C17.5585 21.9475 18.5774 21.6385 19.4493 21.0543C19.7772 20.8344 20.075 20.5819 20.3413 20.3017L19.2382 20.0894C19.144 20.1648 19.0473 20.2364 18.9468 20.303C18.2244 20.7879 17.3801 21.0442 16.5057 21.0442C14.4353 21.0442 12.6287 19.5743 12.2116 17.5504L12.1199 17.1082L11.5545 17.225C10.7329 17.426 9.5909 18.2791 9.26049 18.5353C9.17883 18.5266 9.09465 18.5152 9.00671 18.5027L8.97028 18.4977C8.52051 18.4336 8.07074 18.3281 7.62977 18.1848C5.49526 17.4888 3.79168 15.9825 2.83311 13.9435C2.33686 12.8894 2.74517 11.6255 3.76279 11.0665C5.7302 9.98603 7.98782 9.77371 10.1211 10.4697C10.5118 10.5966 10.8937 10.7574 11.2631 10.9434C11.4829 12.0338 11.8963 13.0615 12.4968 13.9987L12.63 14.2073H17.2696C17.9493 14.2073 18.502 14.7262 18.502 15.3619C18.502 15.6671 18.3764 15.9561 18.1503 16.1722C17.9153 16.3958 17.6025 16.5189 17.2696 16.5189H15.1225L16.0421 17.3129C17.1955 18.308 18.5649 18.9788 20.0159 19.2891L21.0059 19.4437C21.2923 19.4713 21.5788 19.4876 21.8677 19.4876C22.2735 19.4876 22.6818 19.46 23.0901 19.4022L23.1216 19.3984C23.1957 19.3884 23.2698 19.3746 23.3439 19.362C23.6454 19.6635 23.9281 19.9939 24.1832 20.347C25.5023 22.1724 25.9998 24.3974 25.5827 26.6135L25.584 26.6123ZM29.167 13.9422C28.2072 15.9812 26.5036 17.4876 24.3691 18.1836C23.9281 18.3281 23.4771 18.4323 23.0286 18.4964L22.9934 18.5014C22.4758 18.5755 21.9557 18.5969 21.4406 18.5693L20.5046 18.4637C19.5046 18.2891 18.541 17.926 17.6666 17.3871C18.0812 17.3117 18.4643 17.1195 18.7734 16.8267C19.1805 16.436 19.4053 15.9159 19.4053 15.3619C19.4053 14.2274 18.4468 13.304 17.2696 13.304H13.1275L12.8636 12.8216C12.5056 12.1193 12.2518 11.3705 12.1111 10.5866L12.1036 10.5451C12.0232 10.089 11.9817 9.61541 11.9817 9.1355C11.9817 6.87913 12.88 4.78483 14.5132 3.23703C15.3537 2.43801 16.6728 2.43675 17.5158 3.23452C19.1478 4.78357 20.0473 6.87913 20.0473 9.13424C20.0473 9.61416 20.0059 10.0878 19.9255 10.5438L19.7634 11.4572L20.5825 11.0212C20.9984 10.8001 21.4343 10.6142 21.8803 10.4685C24.0136 9.77246 26.2712 9.98478 28.2386 11.0652C29.2562 11.6243 29.6645 12.8882 29.1683 13.9422H29.167Z" fill="white"/>
<path d="M16.5433 10.9424C15.5734 10.9424 14.6488 11.2024 13.8447 11.6811L14.439 12.3859C15.0734 12.0379 15.792 11.8469 16.5433 11.8469C18.963 11.8469 20.9317 13.8156 20.9317 16.2353C20.9317 16.5481 20.8978 16.8547 20.8349 17.1537L21.7345 17.2605C21.7998 16.9263 21.8362 16.5833 21.8362 16.2353C21.8362 13.3168 19.4618 10.9436 16.5446 10.9436L16.5433 10.9424Z" fill="white"/>
<path d="M13.8037 2.49023C15.0018 1.35049 16.8617 1.3137 18.1045 2.38086L18.2227 2.48828L18.5576 2.82227C20.1842 4.52867 21.0741 6.75336 21.0742 9.13379C21.0742 9.31415 21.066 9.49403 21.0557 9.67285C21.2225 9.60749 21.3908 9.54625 21.5605 9.49121C23.8161 8.75581 26.1957 8.9196 28.3125 9.94727L28.7324 10.1641L28.8691 10.2441C30.2597 11.1004 30.8004 12.8846 30.0967 14.3809C29.0831 16.5358 27.3312 18.1633 25.1338 19.0049L24.6885 19.1631C24.6531 19.1749 24.6173 19.1844 24.582 19.1953C24.7319 19.3726 24.8789 19.5546 25.0166 19.7441V19.7451C26.5016 21.8006 27.0624 24.3077 26.5938 26.8037C26.305 28.3455 24.9593 29.4383 23.4336 29.4385C23.2983 29.4385 23.1605 29.4305 23.0215 29.4121C20.5135 29.0873 18.3124 27.7763 16.8262 25.7207C16.7126 25.5632 16.6096 25.411 16.5137 25.2646C16.4162 25.4184 16.3154 25.5713 16.208 25.7207H16.207C14.7196 27.776 12.5196 29.0873 10.0117 29.4121C8.37551 29.6211 6.85272 28.5544 6.47266 26.96L6.43945 26.8037C5.97084 24.3091 6.52953 21.8006 8.01562 19.7451L8.20312 19.4951C8.22373 19.4688 8.24482 19.443 8.26562 19.417C7.94424 19.3501 7.62368 19.266 7.30957 19.1631C4.90351 18.3772 2.98261 16.6783 1.90137 14.3809C1.17486 12.8376 1.77422 10.9859 3.26562 10.165C5.48431 8.94628 8.03157 8.70666 10.4375 9.49121C10.6165 9.54962 10.7939 9.61669 10.9697 9.68652C10.9588 9.50339 10.9521 9.31872 10.9521 9.13379C10.9523 6.59344 11.9647 4.23249 13.8037 2.49023ZM10.082 10.5889C7.98183 9.90369 5.76028 10.1121 3.82324 11.1758C2.86381 11.7029 2.47799 12.8959 2.94629 13.8906C3.89028 15.8984 5.56747 17.3812 7.66895 18.0664C8.10316 18.2074 8.54615 18.311 8.98828 18.374L9.02344 18.3789H9.02441C9.09422 18.3889 9.16105 18.3967 9.22559 18.4043C9.40777 18.2644 9.7553 18.0064 10.1562 17.7539C10.5874 17.4824 11.0929 17.2092 11.5244 17.1035L11.5293 17.1025L12.0947 16.9854L12.2168 16.9609L12.2422 17.083L12.334 17.5254L12.376 17.708C12.8492 19.5788 14.5575 20.9189 16.5059 20.9189C17.3555 20.9189 18.1753 20.6702 18.877 20.1992H18.8779C18.9748 20.1351 19.0684 20.0656 19.1602 19.9922L19.2051 19.9561L19.2617 19.9668L20.3652 20.1787L20.5898 20.2227L20.4316 20.3877C20.1591 20.6744 19.8542 20.9332 19.5186 21.1582C18.6262 21.7561 17.5834 22.0722 16.5049 22.0723C14.1693 22.0723 12.1056 20.5576 11.374 18.3877C10.8193 18.6586 10.1321 19.1551 9.83887 19.3857C9.60081 19.6178 9.3745 19.8716 9.16113 20.1416L8.95117 20.4189C7.7334 22.1041 7.2279 24.1342 7.50684 26.1797L7.57324 26.5889V26.5898C7.77497 27.6706 8.7843 28.4062 9.86328 28.2656H9.86426C12.0533 27.9823 13.9735 26.8379 15.2725 25.043L15.4746 24.749C15.6697 24.4525 15.8419 24.1494 15.9883 23.8447L16.3955 22.998L16.5078 22.7637L16.6211 22.998L17.0283 23.8447L17.1699 24.1201C17.3238 24.4012 17.5161 24.7011 17.7627 25.0439C19.0604 26.8377 20.9807 27.9823 23.1699 28.2656H23.1709C24.2515 28.4073 25.2564 27.6702 25.46 26.5908L25.5264 26.1816C25.8064 24.136 25.3 22.1053 24.082 20.4199C23.8434 20.0896 23.5793 19.78 23.2988 19.4951C23.2466 19.5042 23.1924 19.5152 23.1387 19.5225H23.1367L23.1064 19.5254L23.1074 19.5264C22.6934 19.585 22.2794 19.6123 21.8682 19.6123C21.5746 19.6123 21.2837 19.5963 20.9941 19.5684L20.9863 19.5674L19.9971 19.4131L19.9893 19.4111V19.4102C18.5182 19.0954 17.1301 18.4159 15.9609 17.4072L15.041 16.6133L14.7861 16.3936H17.2695C17.5711 16.3936 17.8525 16.2826 18.0635 16.082L18.1357 16.0068C18.2924 15.8247 18.3768 15.5985 18.377 15.3623C18.377 14.8031 17.8879 14.332 17.2695 14.332H12.5615L12.5244 14.2744L12.3916 14.0664C11.7939 13.1336 11.3802 12.112 11.1543 11.0293C10.8063 10.857 10.4477 10.7076 10.082 10.5889ZM17.4297 3.3252C16.635 2.57336 15.3918 2.57439 14.5996 3.32715V3.32812C12.9914 4.85222 12.1064 6.91355 12.1064 9.13574C12.1065 9.6081 12.1476 10.0741 12.2266 10.5225L12.2344 10.5645L12.291 10.8525C12.4362 11.5189 12.666 12.1576 12.9736 12.7617L13.2012 13.1787H17.2695C18.5113 13.1787 19.5303 14.1545 19.5303 15.3623C19.5302 15.951 19.2911 16.5034 18.8604 16.917L18.8594 16.918C18.6095 17.1545 18.3134 17.328 17.9922 17.4326C18.7821 17.879 19.6384 18.1849 20.5244 18.3398L21.4463 18.4443H21.4473C21.9544 18.4715 22.4663 18.4508 22.9756 18.3779L23.0107 18.373C23.4521 18.31 23.8961 18.2066 24.3301 18.0645C26.4317 17.3792 28.1085 15.8967 29.0537 13.8887L29.0615 13.8721C29.5179 12.8808 29.1327 11.6991 28.1787 11.1748C26.2415 10.111 24.0193 9.90164 21.9189 10.5869C21.48 10.7304 21.0511 10.9141 20.6416 11.1318L19.8223 11.5674L19.5957 11.6885L19.6406 11.4355L19.8027 10.5225C19.8819 10.0737 19.9219 9.60656 19.9219 9.13379C19.9218 7.05184 19.1441 5.10874 17.7227 3.61719L17.4297 3.3252Z" fill="white" stroke="white" stroke-width="0.25"/>
</svg>
