<svg preserveAspectRatio="none" width="100%" height="100%" overflow="visible" style="display: block;" viewBox="0 0 98.6529 95.7082" fill="none" xmlns="http://www.w3.org/2000/svg">
<g id="Group 1">
<path id="Vector" d="M97.1577 46.9841C94.2606 53.1385 89.7213 58.1193 84.0433 61.4812C87.4013 68.0423 88.4858 75.4749 87.0915 82.8842C85.701 90.3129 79.2213 95.7082 71.6803 95.7082C71.0141 95.7082 70.3402 95.6655 69.6779 95.5803C62.4816 94.6469 55.9785 91.5097 50.8776 86.5869C45.7767 91.5136 39.2776 94.6508 32.0929 95.5803C23.8509 96.63 16.1975 91.0526 14.6677 82.8764C13.3702 75.9706 14.2261 69.0338 17.0768 62.8058C10.2445 59.5021 4.80277 54.0061 1.49511 46.9841C-2.03332 39.4779 0.88317 30.469 8.14143 26.4758C14.5205 22.9745 21.6393 21.6731 28.6613 22.6569C29.9046 15.6697 33.3246 9.29844 38.592 4.30597C44.6186 -1.43015 54.0923 -1.4379 60.146 4.29821C65.4135 9.29456 68.8296 15.662 70.0729 22.6453C77.0717 21.6847 84.1556 22.9861 90.5076 26.4758H90.5115C97.7697 30.469 100.686 39.4779 97.1577 46.9841Z" fill="var(--fill-0, #3BA934)"/>
<g id="Group">
<path id="Vector_2" d="M88.3929 31.6737C81.6459 27.9671 73.9035 27.2428 66.5871 29.6287C65.8822 29.8572 65.185 30.1167 64.4956 30.4033C64.5537 29.6596 64.5847 28.9121 64.5847 28.1608C64.5847 20.4377 61.5056 13.2569 55.9127 7.95071C52.2371 4.46876 46.4855 4.47264 42.8215 7.95846C37.2287 13.2569 34.1496 20.4338 34.1496 28.1608C34.1496 28.9276 34.1806 29.6906 34.2426 30.4459C33.526 30.1438 32.794 29.8688 32.0581 29.6287C24.7417 27.2428 16.9993 27.971 10.2523 31.6776C5.83308 34.1099 4.05531 39.5981 6.20878 44.1723C9.49707 51.1594 15.3377 56.3223 22.6541 58.7121C23.8122 59.0916 24.9973 59.3937 26.1825 59.6106C25.7836 60.0909 25.3924 60.5828 25.0245 61.0979C20.5045 67.3492 18.8042 74.9754 20.2295 82.5628C21.1629 87.5437 25.8107 90.9327 30.8148 90.2936C38.441 89.306 45.1299 85.3205 49.6538 79.0693C50.0992 78.4496 50.5175 77.8183 50.9048 77.1753C51.2805 77.7757 51.7065 78.4031 52.1868 79.0693C56.7067 85.3205 63.3956 89.306 71.0219 90.2936C71.4324 90.3479 71.8391 90.3711 72.2419 90.3711C76.7619 90.3711 80.7512 87.1332 81.6071 82.5628C83.0325 74.9715 81.3283 67.3492 76.8122 61.0979C76.2777 60.362 75.7084 59.6532 75.1158 58.9793C75.4101 58.8941 75.7006 58.8089 75.9911 58.7121C83.3075 56.3262 89.1482 51.1633 92.4365 44.1723C94.5899 39.5943 92.8121 34.106 88.3929 31.6737ZM78.8727 82.0438C78.2104 85.5723 74.9221 87.9891 71.3821 87.5243C64.5266 86.6374 58.5116 83.0509 54.4487 77.4348C53.4262 76.0134 52.6942 74.8204 52.1481 73.6779L50.8932 71.0674L49.6383 73.6779C49.0263 74.9521 48.271 76.2148 47.3957 77.4309C43.3289 83.0509 37.3139 86.6374 30.4585 87.5243C26.9262 87.9852 23.6263 85.5761 22.9678 82.0438C21.6858 75.2116 23.2157 68.3523 27.2825 62.7246C28.1385 61.5433 29.0796 60.4511 30.0828 59.4751C31.0511 58.7121 33.4757 56.9498 35.296 56.1519C37.372 62.9067 43.7007 67.6629 50.8815 67.6629C54.1311 67.6629 57.2722 66.7101 59.9602 64.9091C60.9711 64.2313 61.889 63.4528 62.7101 62.5891L59.3095 61.9345C59.019 62.1669 58.7208 62.3877 58.4109 62.5929C56.1839 64.088 53.5811 64.8781 50.8854 64.8781C44.5025 64.8781 38.9329 60.3465 37.647 54.1069L37.3643 52.7436L35.6214 53.1038C33.0884 53.7235 29.5677 56.3533 28.549 57.1434C28.2973 57.1163 28.0378 57.0815 27.7667 57.0427L27.6543 57.0273C26.2678 56.8297 24.8812 56.5044 23.5217 56.0628C16.9412 53.9171 11.6893 49.2732 8.73405 42.9871C7.20416 39.7376 8.46294 35.8412 11.6002 34.1176C17.6655 30.7867 24.6255 30.1322 31.2021 32.2779C32.4067 32.6691 33.5841 33.1648 34.7228 33.7381C35.4006 37.1 36.6749 40.2682 38.5262 43.1575L38.9368 43.8005H53.2403C55.3357 43.8005 57.0398 45.4001 57.0398 47.3599C57.0398 48.3011 56.6525 49.1919 55.9554 49.8581C55.2311 50.5475 54.2667 50.9271 53.2403 50.9271H46.6211L49.4562 53.3749C53.0118 56.4424 57.2335 58.5107 61.707 59.4673L64.759 59.9437C65.6421 60.0289 66.5251 60.0793 67.416 60.0793C68.667 60.0793 69.9258 59.9941 71.1845 59.8159L71.2813 59.8043C71.5099 59.7733 71.7384 59.7307 71.9669 59.692C72.8965 60.6215 73.7679 61.6401 74.5542 62.7285C78.621 68.3562 80.1547 75.2155 78.8688 82.0477L78.8727 82.0438ZM89.9189 42.9832C86.9598 49.2693 81.7079 53.9132 75.1274 56.059C73.7679 56.5044 72.3775 56.8258 70.9947 57.0234L70.8863 57.0389C69.2906 57.2674 67.6871 57.3332 66.0991 57.248L63.2136 56.9227C60.1306 56.3843 57.1599 55.265 54.4642 53.6034C55.7423 53.371 56.9236 52.7784 57.8764 51.876C59.1313 50.6714 59.8246 49.0679 59.8246 47.3599C59.8246 43.8624 56.8694 41.0157 53.2403 41.0157H40.4705L39.6572 39.5284C38.5533 37.3633 37.771 35.0549 37.3372 32.6381L37.3139 32.5103C37.0661 31.1043 36.9382 29.6442 36.9382 28.1646C36.9382 21.2085 39.7075 14.7519 44.7426 9.98024C47.3338 7.51692 51.4005 7.51304 53.9994 9.97249C59.0306 14.7481 61.8038 21.2085 61.8038 28.1608C61.8038 29.6403 61.676 31.1005 61.4281 32.5064L60.9285 35.3222L63.4538 33.9782C64.7358 33.2965 66.0797 32.7233 67.4547 32.274C74.0313 30.1283 80.9913 30.7829 87.0567 34.1138C90.1939 35.8373 91.4527 39.7337 89.9228 42.9832H89.9189Z" fill="var(--fill-0, white)"/>
</g>
<g id="Group 3">
<path id="Vector_3" d="M51.0016 33.7338C48.0115 33.7338 45.1609 34.5355 42.6821 36.0112L44.5141 38.184C46.47 37.1112 48.6854 36.5224 51.0016 36.5224C58.4612 36.5224 64.5305 42.5916 64.5305 50.0513C64.5305 51.0157 64.4259 51.9608 64.2322 52.8826L67.0054 53.2118C67.2068 52.1815 67.3191 51.1242 67.3191 50.0513C67.3191 41.054 59.9989 33.7377 51.0055 33.7377L51.0016 33.7338Z" fill="var(--fill-0, white)"/>
<path id="Vector_4" d="M88.3929 31.6737C81.6459 27.9671 73.9035 27.2428 66.5871 29.6287C65.8822 29.8572 65.185 30.1167 64.4956 30.4033C64.5537 29.6596 64.5847 28.9121 64.5847 28.1608C64.5847 20.4377 61.5056 13.2569 55.9127 7.95071C52.2371 4.46876 46.4855 4.47264 42.8215 7.95846C37.2287 13.2569 34.1496 20.4338 34.1496 28.1608C34.1496 28.9276 34.1806 29.6906 34.2426 30.4459C33.526 30.1438 32.794 29.8688 32.0581 29.6287C24.7417 27.2428 16.9993 27.971 10.2523 31.6776C5.83308 34.1099 4.05531 39.5981 6.20878 44.1723C9.49707 51.1594 15.3377 56.3223 22.6541 58.7121C23.8122 59.0916 24.9973 59.3937 26.1825 59.6106C25.7836 60.0909 25.3924 60.5828 25.0245 61.0979C20.5045 67.3492 18.8042 74.9754 20.2295 82.5628C21.1629 87.5437 25.8107 90.9327 30.8148 90.2936C38.441 89.306 45.1299 85.3205 49.6538 79.0693C50.0992 78.4496 50.5175 77.8183 50.9048 77.1753C51.2805 77.7757 51.7065 78.4031 52.1868 79.0693C56.7067 85.3205 63.3956 89.306 71.0219 90.2936C71.4324 90.3479 71.8391 90.3711 72.2419 90.3711C76.7619 90.3711 80.7512 87.1332 81.6071 82.5628C83.0325 74.9715 81.3283 67.3492 76.8122 61.0979C76.2777 60.362 75.7084 59.6532 75.1158 58.9793C75.4101 58.8941 75.7006 58.8089 75.9911 58.7121C83.3075 56.3262 89.1482 51.1633 92.4365 44.1723C94.5899 39.5943 92.8121 34.106 88.3929 31.6737ZM78.8727 82.0438C78.2104 85.5723 74.9221 87.9891 71.3821 87.5243C64.5266 86.6374 58.5116 83.0509 54.4487 77.4348C53.4262 76.0134 52.6942 74.8204 52.1481 73.6779L50.8932 71.0674L49.6383 73.6779C49.0263 74.9521 48.271 76.2148 47.3957 77.4309C43.3289 83.0509 37.3139 86.6374 30.4585 87.5243C26.9262 87.9852 23.6263 85.5761 22.9678 82.0438C21.6858 75.2116 23.2157 68.3523 27.2825 62.7246C28.1385 61.5433 29.0796 60.4511 30.0828 59.4751C31.0511 58.7121 33.4757 56.9498 35.296 56.1519C37.372 62.9067 43.7007 67.6629 50.8815 67.6629C54.1311 67.6629 57.2722 66.7101 59.9602 64.9091C60.9711 64.2313 61.889 63.4528 62.7101 62.5891L59.3095 61.9345C59.019 62.1669 58.7208 62.3877 58.4109 62.5929C56.1839 64.088 53.5811 64.8781 50.8854 64.8781C44.5025 64.8781 38.9329 60.3465 37.647 54.1069L37.3643 52.7436L35.6214 53.1038C33.0884 53.7235 29.5677 56.3533 28.549 57.1434C28.2973 57.1163 28.0378 57.0815 27.7667 57.0427L27.6543 57.0273C26.2678 56.8297 24.8812 56.5044 23.5217 56.0628C16.9412 53.9171 11.6893 49.2732 8.73405 42.9871C7.20416 39.7376 8.46294 35.8412 11.6002 34.1176C17.6655 30.7867 24.6255 30.1322 31.2021 32.2779C32.4067 32.6691 33.5841 33.1648 34.7228 33.7381C35.4006 37.1 36.6749 40.2682 38.5262 43.1575L38.9368 43.8005H53.2403C55.3357 43.8005 57.0398 45.4001 57.0398 47.3599C57.0398 48.3011 56.6525 49.1919 55.9554 49.8581C55.2311 50.5475 54.2667 50.9271 53.2403 50.9271H46.6211L49.4562 53.3749C53.0118 56.4424 57.2335 58.5107 61.707 59.4673L64.759 59.9437C65.6421 60.0289 66.5251 60.0793 67.416 60.0793C68.667 60.0793 69.9258 59.9941 71.1845 59.8159L71.2813 59.8043C71.5099 59.7733 71.7384 59.7307 71.9669 59.692C72.8965 60.6215 73.7679 61.6401 74.5542 62.7285C78.621 68.3562 80.1547 75.2155 78.8688 82.0477L78.8727 82.0438ZM89.9189 42.9832C86.9598 49.2693 81.7079 53.9132 75.1274 56.059C73.7679 56.5044 72.3775 56.8258 70.9947 57.0234L70.8863 57.0389C69.2906 57.2674 67.6871 57.3332 66.0991 57.248L63.2136 56.9227C60.1306 56.3843 57.1599 55.265 54.4642 53.6034C55.7423 53.371 56.9236 52.7784 57.8764 51.876C59.1313 50.6714 59.8246 49.0679 59.8246 47.3599C59.8246 43.8624 56.8694 41.0157 53.2403 41.0157H40.4705L39.6572 39.5284C38.5533 37.3633 37.771 35.0549 37.3372 32.6381L37.3139 32.5103C37.0661 31.1043 36.9382 29.6442 36.9382 28.1646C36.9382 21.2085 39.7075 14.7519 44.7426 9.98024C47.3338 7.51692 51.4005 7.51304 53.9994 9.97249C59.0306 14.7481 61.8038 21.2085 61.8038 28.1608C61.8038 29.6403 61.676 31.1005 61.4281 32.5064L60.9285 35.3222L63.4538 33.9782C64.7358 33.2965 66.0797 32.7233 67.4547 32.274C74.0313 30.1283 80.9913 30.7829 87.0567 34.1138C90.1939 35.8373 91.4527 39.7337 89.9228 42.9832H89.9189Z" fill="var(--fill-0, white)"/>
</g>
</g>
</svg>
