<svg preserveAspectRatio="none" width="100%" height="100%" overflow="visible" style="display: block;" viewBox="0 0 87.5866 8.60631" fill="none" xmlns="http://www.w3.org/2000/svg">
<g id="Group">
<path id="Vector" d="M1.5422e-05 8.46762V0.381225H1.6831V3.87611H4.82991V0.381225H6.513V8.46762H4.82991V5.33987H1.6831V8.46762H1.5422e-05Z" fill="var(--fill-0, white)"/>
<path id="Vector_2" d="M9.55969 8.59657C9.13058 8.59657 8.76345 8.52983 8.45353 8.39156C8.14362 8.25329 7.90522 8.05781 7.73835 7.80034C7.57147 7.54287 7.4904 7.23771 7.4904 6.88488C7.4904 6.55113 7.56668 6.25552 7.71926 5.99806C7.87183 5.74059 8.10547 5.52604 8.42015 5.3544C8.73484 5.18275 9.12579 5.05878 9.59781 4.98726L11.4096 4.69165V5.88363L9.88865 6.15541C9.65502 6.19832 9.47861 6.27459 9.35465 6.37948C9.23068 6.48438 9.16872 6.63695 9.16872 6.82767C9.16872 7.00885 9.23547 7.15189 9.37374 7.25202C9.51201 7.35215 9.68365 7.4046 9.88391 7.4046C10.1509 7.4046 10.3845 7.34739 10.5895 7.23296C10.7898 7.11853 10.9471 6.96116 11.0616 6.76091C11.176 6.56066 11.2285 6.34133 11.2285 6.10294V4.56291C11.2285 4.33882 11.1378 4.1481 10.9614 4.0003C10.785 3.84773 10.5419 3.77145 10.2415 3.77145C9.94112 3.77145 9.69794 3.8525 9.47862 4.00984C9.25929 4.16719 9.09718 4.37698 8.99705 4.63921L7.69542 4.01936C7.80985 3.68561 7.99582 3.39954 8.24852 3.16114C8.50122 2.92275 8.80635 2.73681 9.15917 2.60808C9.512 2.47934 9.90297 2.41258 10.3225 2.41258C10.8232 2.41258 11.2618 2.50317 11.648 2.68435C12.0294 2.86553 12.3298 3.11824 12.5444 3.43769C12.7589 3.76191 12.8639 4.1338 12.8639 4.56291V8.4726H11.3429V7.51902L11.71 7.45226C11.5384 7.7145 11.3429 7.92905 11.1331 8.10069C10.9233 8.27234 10.6897 8.39633 10.4274 8.48215C10.1652 8.5632 9.87914 8.60609 9.55969 8.60609V8.59657ZM8.48691 1.30167V1.27292e-05H12.1773V1.30167H8.48691Z" fill="var(--fill-0, white)"/>
<path id="Vector_3" d="M13.9557 8.46805V2.54153H15.4767V3.98622L15.3146 3.74783C15.4004 3.29011 15.6102 2.95633 15.9439 2.737C16.2777 2.51768 16.6734 2.41279 17.1359 2.41279C17.627 2.41279 18.0609 2.53677 18.4328 2.78947C18.8047 3.03741 19.0383 3.37592 19.1337 3.7955L18.6664 3.83839C18.8619 3.35206 19.1384 2.99447 19.5008 2.76561C19.8632 2.53198 20.2875 2.41756 20.769 2.41756C21.1982 2.41756 21.5748 2.51293 21.9038 2.69888C22.2328 2.8896 22.4903 3.15182 22.681 3.48557C22.8669 3.82409 22.9623 4.21508 22.9623 4.66326V8.47282H21.3317V5.01131C21.3317 4.77768 21.2888 4.5822 21.2077 4.41532C21.1267 4.24844 21.0074 4.11971 20.8549 4.02435C20.7023 3.92899 20.5164 3.88132 20.3018 3.88132C20.0872 3.88132 19.9108 3.92899 19.7535 4.02435C19.5961 4.11971 19.4769 4.24844 19.3959 4.41532C19.3148 4.5822 19.2719 4.78245 19.2719 5.01131V8.47282H17.6413V5.01131C17.6413 4.77768 17.5984 4.5822 17.5173 4.41532C17.4363 4.24844 17.3171 4.11971 17.1645 4.02435C17.0119 3.92899 16.826 3.88132 16.6114 3.88132C16.3969 3.88132 16.2205 3.92899 16.0631 4.02435C15.9058 4.11971 15.7866 4.24844 15.7055 4.41532C15.6245 4.5822 15.5816 4.78245 15.5816 5.01131V8.47282H13.9509L13.9557 8.46805Z" fill="var(--fill-0, white)"/>
<path id="Vector_4" d="M25.7706 8.59657C25.3415 8.59657 24.9744 8.52983 24.6644 8.39156C24.3545 8.25329 24.1161 8.05781 23.9493 7.80034C23.7824 7.54287 23.7013 7.23771 23.7013 6.88488C23.7013 6.55113 23.7776 6.25552 23.9302 5.99806C24.0827 5.74059 24.3164 5.52604 24.6311 5.3544C24.9457 5.18275 25.3367 5.05878 25.8087 4.98726L27.6205 4.69165V5.88363L26.0996 6.15541C25.8659 6.19832 25.6895 6.27459 25.5656 6.37948C25.4416 6.48438 25.3796 6.63695 25.3796 6.82767C25.3796 7.00885 25.4464 7.15189 25.5846 7.25202C25.7229 7.35215 25.8946 7.4046 26.0948 7.4046C26.3618 7.4046 26.5954 7.34739 26.8005 7.23296C27.0007 7.11853 27.158 6.96116 27.2725 6.76091C27.3869 6.56066 27.4394 6.34133 27.4394 6.10294V4.56291C27.4394 4.33882 27.3488 4.1481 27.1723 4.0003C26.9959 3.84773 26.7528 3.77145 26.4524 3.77145C26.152 3.77145 25.9088 3.8525 25.6895 4.00984C25.4702 4.16719 25.3081 4.37698 25.208 4.63921L23.9063 4.01936C24.0208 3.68561 24.2067 3.39954 24.4594 3.16114C24.7121 2.92275 25.0173 2.73681 25.3701 2.60808C25.7229 2.47934 26.1139 2.41258 26.5335 2.41258C27.0341 2.41258 27.4727 2.50317 27.8589 2.68435C28.2404 2.86553 28.5407 3.11824 28.7553 3.43769C28.9698 3.76191 29.0748 4.1338 29.0748 4.56291V8.4726H27.5538V7.51902L27.9209 7.45226C27.7493 7.7145 27.5538 7.92905 27.344 8.10069C27.1342 8.27234 26.9006 8.39633 26.6383 8.48215C26.3761 8.5632 26.0901 8.60609 25.7706 8.60609V8.59657ZM24.693 1.30167V1.27292e-05H28.3834V1.30167H24.693Z" fill="var(--fill-0, white)"/>
<path id="Vector_5" d="M30.1618 8.46755V0.247666H31.7924V5.51143L31.1822 5.31596L33.7997 2.53626H35.807L33.6567 4.92499L35.7975 8.46277H33.9523L32.1596 5.45422L33.1036 5.21582L31.2918 7.18975L31.7924 6.24571V8.458H30.1618V8.46755Z" fill="var(--fill-0, white)"/>
<path id="Vector_6" d="M38.4628 8.59631C37.986 8.59631 37.5759 8.4914 37.2422 8.28638C36.9084 8.08136 36.651 7.79052 36.4746 7.42339C36.3029 7.05626 36.2124 6.6224 36.2124 6.13131V2.53628H37.8429V5.99779C37.8429 6.22188 37.8859 6.41736 37.9812 6.58901C38.0718 6.76065 38.2005 6.88939 38.3674 6.98475C38.5343 7.08011 38.7203 7.12778 38.93 7.12778C39.1398 7.12778 39.3353 7.08011 39.5022 6.98475C39.6643 6.88939 39.793 6.76065 39.8836 6.58901C39.9742 6.41736 40.0171 6.22188 40.0171 5.99779V2.53628H41.6477V8.46279H40.1268V7.28991L40.2126 7.55214C40.0743 7.90496 39.8503 8.16718 39.5451 8.33882C39.2352 8.51047 38.8776 8.59631 38.4628 8.59631Z" fill="var(--fill-0, white)"/>
<path id="Vector_7" d="M44.4895 8.59679C44.0603 8.59679 43.6932 8.53004 43.3833 8.39177C43.0733 8.2535 42.835 8.05802 42.6681 7.80056C42.5012 7.54309 42.4201 7.23792 42.4201 6.8851C42.4201 6.55134 42.4965 6.25574 42.649 5.99827C42.8016 5.7408 43.0352 5.52626 43.3499 5.35461C43.6646 5.18297 44.0556 5.05899 44.5276 4.98747L46.3394 4.69187V5.88384L44.8184 6.15562C44.5848 6.19853 44.4084 6.2748 44.2844 6.3797C44.1604 6.48459 44.0985 6.63717 44.0985 6.82788C44.0985 7.00906 44.1652 7.15211 44.3035 7.25223C44.4418 7.35236 44.6134 7.40481 44.8136 7.40481C45.0806 7.40481 45.3143 7.3476 45.5193 7.23317C45.7195 7.11874 45.8769 6.96138 45.9913 6.76112C46.1057 6.56087 46.1582 6.34155 46.1582 6.10315V4.56312C46.1582 4.33903 46.0676 4.14832 45.8912 4.00051C45.7148 3.84794 45.4716 3.77166 45.1712 3.77166C44.8709 3.77166 44.6277 3.85272 44.4084 4.01006C44.1891 4.1674 44.0269 4.37719 43.9268 4.63943L42.6252 4.01957C42.7396 3.68582 42.9256 3.39975 43.1783 3.16136C43.431 2.92296 43.7361 2.73702 44.0889 2.60829C44.4417 2.47956 44.8327 2.41279 45.2523 2.41279C45.7529 2.41279 46.1916 2.50338 46.5778 2.68456C46.9592 2.86575 47.2596 3.11845 47.4742 3.4379C47.6887 3.76212 47.7936 4.13401 47.7936 4.56312V8.47282H46.2726V7.51924L46.6398 7.45248C46.4681 7.71471 46.2726 7.92926 46.0628 8.10091C45.853 8.27255 45.6194 8.39654 45.3572 8.48236C45.095 8.56342 44.8089 8.6063 44.4895 8.6063V8.59679Z" fill="var(--fill-0, white)"/>
<path id="Vector_8" d="M50.621 8.46762V0.381225H52.3041V3.87611H55.4509V0.381225H57.134V8.46762H55.4509V5.33987H52.3041V8.46762H50.621Z" fill="var(--fill-0, white)"/>
<path id="Vector_9" d="M60.152 8.59679C59.7229 8.59679 59.3557 8.53004 59.0458 8.39177C58.7359 8.2535 58.4975 8.05802 58.3306 7.80056C58.1638 7.54309 58.0828 7.23792 58.0828 6.8851C58.0828 6.55134 58.159 6.25574 58.3116 5.99827C58.4642 5.7408 58.6978 5.52626 59.0125 5.35461C59.3272 5.18297 59.7181 5.05899 60.1901 4.98747L62.002 4.69187V5.88384L60.481 6.15562C60.2473 6.19853 60.0709 6.2748 59.947 6.3797C59.823 6.48459 59.761 6.63717 59.761 6.82788C59.761 7.00906 59.8278 7.15211 59.9661 7.25223C60.1043 7.35236 60.276 7.40481 60.4762 7.40481C60.7432 7.40481 60.9769 7.3476 61.1819 7.23317C61.3822 7.11874 61.5395 6.96138 61.6539 6.76112C61.7684 6.56087 61.8208 6.34155 61.8208 6.10315V4.56312C61.8208 4.33903 61.7302 4.14832 61.5538 4.00051C61.3773 3.84794 61.1342 3.77166 60.8338 3.77166C60.5334 3.77166 60.2903 3.85272 60.0709 4.01006C59.8516 4.1674 59.6895 4.37719 59.5894 4.63943L58.2877 4.01957C58.4022 3.68582 58.5881 3.39975 58.8408 3.16136C59.0935 2.92296 59.3987 2.73702 59.7515 2.60829C60.1044 2.47956 60.4953 2.41279 60.9149 2.41279C61.4155 2.41279 61.8542 2.50338 62.2404 2.68456C62.6218 2.86575 62.9222 3.11845 63.1367 3.4379C63.3513 3.76212 63.4561 4.13401 63.4561 4.56312V8.47282H61.9352V7.51924L62.3024 7.45248C62.1307 7.71471 61.9352 7.92926 61.7254 8.10091C61.5156 8.27255 61.282 8.39654 61.0198 8.48236C60.7575 8.56342 60.4715 8.6063 60.152 8.6063V8.59679Z" fill="var(--fill-0, white)"/>
<path id="Vector_10" d="M65.7687 8.46816L63.728 2.54165H65.4111L66.8462 6.81846L66.2597 6.80894L67.857 2.54165H69.2683L70.8512 6.80894L70.2648 6.81846L71.6999 2.54165H73.3925L71.3423 8.46816H69.931L68.2813 3.88621H68.8439L67.1847 8.46816H65.7734H65.7687Z" fill="var(--fill-0, white)"/>
<path id="Vector_11" d="M75.4904 8.59679C75.0613 8.59679 74.6941 8.53004 74.3842 8.39177C74.0743 8.2535 73.8359 8.05802 73.669 7.80056C73.5022 7.54309 73.4211 7.23792 73.4211 6.8851C73.4211 6.55134 73.4974 6.25574 73.6499 5.99827C73.8025 5.7408 74.0362 5.52626 74.3509 5.35461C74.6655 5.18297 75.0565 5.05899 75.5285 4.98747L77.3403 4.69187V5.88384L75.8194 6.15562C75.5857 6.19853 75.4093 6.2748 75.2854 6.3797C75.1614 6.48459 75.0994 6.63717 75.0994 6.82788C75.0994 7.00906 75.1662 7.15211 75.3044 7.25223C75.4427 7.35236 75.6143 7.40481 75.8146 7.40481C76.0816 7.40481 76.3152 7.3476 76.5202 7.23317C76.7205 7.11874 76.8778 6.96138 76.9923 6.76112C77.1067 6.56087 77.1592 6.34155 77.1592 6.10315V4.56312C77.1592 4.33903 77.0686 4.14832 76.8921 4.00051C76.7157 3.84794 76.4726 3.77166 76.1722 3.77166C75.8718 3.77166 75.6287 3.85272 75.4093 4.01006C75.19 4.1674 75.0279 4.37719 74.9278 4.63943L73.6261 4.01957C73.7406 3.68582 73.9265 3.39975 74.1792 3.16136C74.4319 2.92296 74.737 2.73702 75.0899 2.60829C75.4427 2.47956 75.8337 2.41279 76.2533 2.41279C76.7539 2.41279 77.1925 2.50338 77.5787 2.68456C77.9601 2.86575 78.2605 3.11845 78.4751 3.4379C78.6896 3.76212 78.7945 4.13401 78.7945 4.56312V8.47282H77.2736V7.51924L77.6407 7.45248C77.469 7.71471 77.2736 7.92926 77.0638 8.10091C76.854 8.27255 76.6204 8.39654 76.3581 8.48236C76.0959 8.56342 75.8099 8.6063 75.4904 8.6063V8.59679Z" fill="var(--fill-0, white)"/>
<path id="Vector_12" d="M79.8292 2.00715V0.376527H81.4598V2.00715H79.8292ZM79.8292 8.46766V2.54115H81.4598V8.46766H79.8292Z" fill="var(--fill-0, white)"/>
<path id="Vector_13" d="M82.8521 3.56197V2.6179C82.8521 1.98377 83.0094 1.45931 83.3193 1.04927C83.6292 0.639228 84.0917 0.372233 84.6972 0.253036V1.06833C84.4445 1.12555 84.2348 1.23523 84.0727 1.3878C83.9106 1.54514 83.8009 1.72631 83.7532 1.93609H84.4827V3.56674H82.8521V3.56197Z" fill="var(--fill-0, white)"/>
<path id="Vector_14" d="M85.956 2.00715V0.376527H87.5866V2.00715H85.956ZM85.956 8.46766V2.54115H87.5866V8.46766H85.956Z" fill="var(--fill-0, white)"/>
</g>
</svg>
