<svg width="175" height="70" viewBox="0 0 175 70" fill="none" xmlns="http://www.w3.org/2000/svg">
<path d="M70.6853 34.1824C68.5776 38.6599 65.2751 42.2836 61.1441 44.7295C63.5872 49.5029 64.3762 54.9103 63.3618 60.3009C62.3502 65.7054 57.636 69.6307 52.1496 69.6307C51.665 69.6307 51.1747 69.5997 50.6928 69.5377C45.4573 68.8586 40.7262 66.5762 37.0151 62.9947C33.304 66.579 28.5757 68.8614 23.3486 69.5377C17.3523 70.3013 11.7842 66.2436 10.6712 60.2952C9.72721 55.271 10.35 50.2243 12.4239 45.6932C7.45323 43.2896 3.49417 39.2911 1.08774 34.1824C-1.4793 28.7214 0.642534 22.1672 5.92315 19.262C10.5641 16.7147 15.7433 15.7679 20.852 16.4836C21.7565 11.4002 24.2447 6.76491 28.0769 3.13273C32.4615 -1.04048 39.3539 -1.04612 43.7581 3.12709C47.5904 6.76209 50.0757 11.3946 50.9802 16.4751C56.072 15.7763 61.2259 16.7231 65.8471 19.262H65.8499C71.1305 22.1672 73.2524 28.7214 70.6853 34.1824Z" fill="#3BA934"/>
<path d="M64.3087 23.0435C59.4 20.3468 53.7672 19.8199 48.4443 21.5557C47.9314 21.7219 47.4242 21.9107 46.9227 22.1193C46.9649 21.5782 46.9875 21.0344 46.9875 20.4877C46.9875 14.869 44.7473 9.64473 40.6783 5.78431C38.0042 3.25108 33.8198 3.2539 31.1541 5.78995C27.0851 9.64474 24.845 14.8662 24.845 20.4877C24.845 21.0457 24.8675 21.6008 24.9126 22.1503C24.3913 21.9305 23.8587 21.7304 23.3233 21.5557C18.0005 19.8199 12.3676 20.3497 7.45897 23.0463C4.24383 24.8159 2.95044 28.8088 4.51716 32.1367C6.90949 37.22 11.1588 40.9762 16.4817 42.7148C17.3242 42.9909 18.1864 43.2107 19.0487 43.3685C18.7585 43.7179 18.4739 44.0758 18.2062 44.4506C14.9178 48.9986 13.6807 54.5469 14.7177 60.067C15.3968 63.6907 18.7782 66.1563 22.4188 65.6914C27.9671 64.9728 32.8335 62.0733 36.1247 57.5253C36.4488 57.0744 36.7531 56.6151 37.0349 56.1474C37.3082 56.5842 37.6182 57.0406 37.9676 57.5253C41.256 62.0733 46.1224 64.9728 51.6707 65.6914C51.9694 65.7308 52.2653 65.7477 52.5583 65.7477C55.8467 65.7477 58.7491 63.392 59.3718 60.067C60.4088 54.544 59.169 48.9986 55.8834 44.4506C55.4945 43.9152 55.0803 43.3995 54.6492 42.9092C54.8633 42.8472 55.0746 42.7852 55.286 42.7148C60.6089 40.979 64.8582 37.2228 67.2505 32.1367C68.8172 28.806 67.5238 24.8131 64.3087 23.0435ZM57.3825 59.6894C56.9006 62.2564 54.5083 64.0148 51.9328 63.6766C46.9452 63.0313 42.5691 60.422 39.6132 56.3362C38.8693 55.302 38.3367 54.4341 37.9394 53.6029L37.0265 51.7037L36.1135 53.6029C35.6683 54.5299 35.1188 55.4486 34.4819 56.3334C31.5232 60.422 27.1471 63.0313 22.1596 63.6766C19.5897 64.0119 17.1889 62.2592 16.7099 59.6894C15.7772 54.7187 16.8902 49.7284 19.849 45.6341C20.4717 44.7746 21.1564 43.98 21.8862 43.2699C22.5907 42.7148 24.3547 41.4327 25.679 40.8522C27.1894 45.7665 31.7937 49.2268 37.018 49.2268C39.3822 49.2268 41.6674 48.5336 43.623 47.2233C44.3584 46.7302 45.0263 46.1638 45.6237 45.5354L43.1496 45.0592C42.9383 45.2283 42.7213 45.3889 42.4959 45.5383C40.8756 46.6259 38.982 47.2008 37.0208 47.2008C32.377 47.2008 28.325 43.9039 27.3895 39.3644L27.1838 38.3725L25.9158 38.6346C24.0729 39.0854 21.5115 40.9987 20.7704 41.5736C20.5872 41.5538 20.3984 41.5285 20.2012 41.5003L20.1195 41.489C19.1107 41.3453 18.1019 41.1086 17.1128 40.7874C12.3253 39.2263 8.50437 35.8477 6.35437 31.2744C5.24133 28.9102 6.15713 26.0755 8.43957 24.8216C12.8523 22.3982 17.9159 21.922 22.7006 23.4831C23.5769 23.7677 24.4336 24.1284 25.262 24.5454C25.7551 26.9913 26.6822 29.2963 28.0291 31.3984L28.3278 31.8661H38.7341C40.2585 31.8661 41.4983 33.0299 41.4983 34.4557C41.4983 35.1405 41.2166 35.7886 40.7094 36.2732C40.1824 36.7748 39.4808 37.0509 38.7341 37.0509H33.9184L35.981 38.8318C38.5678 41.0635 41.6392 42.5683 44.8938 43.2643L47.1143 43.6108C47.7567 43.6728 48.3992 43.7095 49.0473 43.7095C49.9575 43.7095 50.8733 43.6475 51.789 43.5179L51.8595 43.5094C52.0257 43.4869 52.192 43.4559 52.3583 43.4277C53.0345 44.104 53.6685 44.8451 54.2406 45.6369C57.1993 49.7312 58.3151 54.7216 57.3796 59.6922L57.3825 59.6894ZM65.4189 31.2716C63.2661 35.8449 59.4451 39.2235 54.6576 40.7846C53.6686 41.1086 52.6569 41.3425 51.651 41.4862L51.5721 41.4975C50.4111 41.6637 49.2446 41.7116 48.0893 41.6497L45.99 41.4129C43.747 41.0213 41.5857 40.2069 39.6245 38.9981C40.5544 38.829 41.4138 38.3979 42.107 37.7413C43.02 36.865 43.5244 35.6984 43.5244 34.4557C43.5244 31.9112 41.3744 29.8401 38.7341 29.8401H29.4437L28.8519 28.7581C28.0488 27.1829 27.4796 25.5035 27.1641 23.7452L27.1471 23.6522C26.9668 22.6293 26.8738 21.567 26.8738 20.4906C26.8738 15.4297 28.8886 10.7324 32.5517 7.26085C34.4369 5.46871 37.3956 5.46589 39.2863 7.25521C42.9467 10.7296 44.9643 15.4297 44.9643 20.4877C44.9643 21.5642 44.8713 22.6265 44.6909 23.6494L44.3274 25.6979L46.1647 24.7201C47.0974 24.2242 48.0752 23.8071 49.0755 23.4803C53.8602 21.9192 58.9238 22.3954 63.3365 24.8187C65.619 26.0727 66.5348 28.9074 65.4217 31.2716H65.4189Z" fill="white"/>
<path d="M37.1054 24.5426C34.9301 24.5426 32.8561 25.1259 31.0527 26.1995L32.3856 27.7803C33.8086 26.9998 35.4204 26.5714 37.1054 26.5714C42.5326 26.5714 46.9481 30.987 46.9481 36.4141C46.9481 37.1158 46.872 37.8033 46.7311 38.474L48.7487 38.7135C48.8952 37.9639 48.9769 37.1947 48.9769 36.4141C48.9769 29.8683 43.6512 24.5454 37.1082 24.5454L37.1054 24.5426Z" fill="white"/>
<path d="M64.3087 23.0435C59.4 20.3468 53.7672 19.8199 48.4443 21.5557C47.9314 21.7219 47.4242 21.9107 46.9227 22.1193C46.9649 21.5782 46.9875 21.0344 46.9875 20.4877C46.9875 14.869 44.7473 9.64473 40.6783 5.78431C38.0042 3.25108 33.8198 3.2539 31.1541 5.78995C27.0851 9.64474 24.845 14.8662 24.845 20.4877C24.845 21.0457 24.8675 21.6008 24.9126 22.1503C24.3913 21.9305 23.8587 21.7304 23.3233 21.5557C18.0005 19.8199 12.3676 20.3497 7.45897 23.0463C4.24383 24.8159 2.95044 28.8088 4.51716 32.1367C6.90949 37.22 11.1588 40.9762 16.4817 42.7148C17.3242 42.9909 18.1864 43.2107 19.0487 43.3685C18.7585 43.7179 18.4739 44.0758 18.2062 44.4506C14.9178 48.9986 13.6807 54.5469 14.7177 60.067C15.3968 63.6907 18.7782 66.1563 22.4188 65.6914C27.9671 64.9728 32.8335 62.0733 36.1247 57.5253C36.4488 57.0744 36.7531 56.6151 37.0349 56.1474C37.3082 56.5842 37.6182 57.0406 37.9676 57.5253C41.256 62.0733 46.1224 64.9728 51.6707 65.6914C51.9694 65.7308 52.2653 65.7477 52.5583 65.7477C55.8467 65.7477 58.7491 63.392 59.3718 60.067C60.4088 54.544 59.169 48.9986 55.8834 44.4506C55.4945 43.9152 55.0803 43.3995 54.6492 42.9092C54.8633 42.8472 55.0746 42.7852 55.286 42.7148C60.6089 40.979 64.8582 37.2228 67.2505 32.1367C68.8172 28.806 67.5238 24.8131 64.3087 23.0435ZM57.3825 59.6894C56.9006 62.2564 54.5083 64.0148 51.9328 63.6766C46.9452 63.0313 42.5691 60.422 39.6132 56.3362C38.8693 55.302 38.3367 54.4341 37.9394 53.6029L37.0265 51.7037L36.1135 53.6029C35.6683 54.5299 35.1188 55.4486 34.4819 56.3334C31.5232 60.422 27.1471 63.0313 22.1596 63.6766C19.5897 64.0119 17.1889 62.2592 16.7099 59.6894C15.7772 54.7187 16.8902 49.7284 19.849 45.6341C20.4717 44.7746 21.1564 43.98 21.8862 43.2699C22.5907 42.7148 24.3547 41.4327 25.679 40.8522C27.1894 45.7665 31.7937 49.2268 37.018 49.2268C39.3822 49.2268 41.6674 48.5336 43.623 47.2233C44.3584 46.7302 45.0263 46.1638 45.6237 45.5354L43.1496 45.0592C42.9383 45.2283 42.7213 45.3889 42.4959 45.5383C40.8756 46.6259 38.982 47.2008 37.0208 47.2008C32.377 47.2008 28.325 43.9039 27.3895 39.3644L27.1838 38.3725L25.9158 38.6346C24.0729 39.0854 21.5115 40.9987 20.7704 41.5736C20.5872 41.5538 20.3984 41.5285 20.2012 41.5003L20.1195 41.489C19.1107 41.3453 18.1019 41.1086 17.1128 40.7874C12.3253 39.2263 8.50437 35.8477 6.35437 31.2744C5.24133 28.9102 6.15713 26.0755 8.43957 24.8216C12.8523 22.3982 17.9159 21.922 22.7006 23.4831C23.5769 23.7677 24.4336 24.1284 25.262 24.5454C25.7551 26.9913 26.6822 29.2963 28.0291 31.3984L28.3278 31.8661H38.7341C40.2585 31.8661 41.4983 33.0299 41.4983 34.4557C41.4983 35.1405 41.2166 35.7886 40.7094 36.2732C40.1824 36.7748 39.4808 37.0509 38.7341 37.0509H33.9184L35.981 38.8318C38.5678 41.0635 41.6392 42.5683 44.8938 43.2643L47.1143 43.6108C47.7567 43.6728 48.3992 43.7095 49.0473 43.7095C49.9575 43.7095 50.8733 43.6475 51.789 43.5179L51.8595 43.5094C52.0257 43.4869 52.192 43.4559 52.3583 43.4277C53.0345 44.104 53.6685 44.8451 54.2406 45.6369C57.1993 49.7312 58.3151 54.7216 57.3796 59.6922L57.3825 59.6894ZM65.4189 31.2716C63.2661 35.8449 59.4451 39.2235 54.6576 40.7846C53.6686 41.1086 52.6569 41.3425 51.651 41.4862L51.5721 41.4975C50.4111 41.6637 49.2446 41.7116 48.0893 41.6497L45.99 41.4129C43.747 41.0213 41.5857 40.2069 39.6245 38.9981C40.5544 38.829 41.4138 38.3979 42.107 37.7413C43.02 36.865 43.5244 35.6984 43.5244 34.4557C43.5244 31.9112 41.3744 29.8401 38.7341 29.8401H29.4437L28.8519 28.7581C28.0488 27.1829 27.4796 25.5035 27.1641 23.7452L27.1471 23.6522C26.9668 22.6293 26.8738 21.567 26.8738 20.4906C26.8738 15.4297 28.8886 10.7324 32.5517 7.26085C34.4369 5.46871 37.3956 5.46589 39.2863 7.25521C42.9467 10.7296 44.9643 15.4297 44.9643 20.4877C44.9643 21.5642 44.8713 22.6265 44.6909 23.6494L44.3274 25.6979L46.1647 24.7201C47.0974 24.2242 48.0752 23.8071 49.0755 23.4803C53.8602 21.9192 58.9238 22.3954 63.3365 24.8187C65.619 26.0727 66.5348 28.9074 65.4217 31.2716H65.4189Z" fill="white"/>
<path d="M81.9172 33.0766V11.1709H96.9136V15.141H86.4745V20.6998H95.4423V24.6699H86.4745V33.0799H81.9172V33.0766Z" fill="#FFFFFF"/>
<path d="M98.3228 33.0766V10.8153H102.733V33.0766H98.3228Z" fill="#FFFFFF"/>
<path d="M113.41 33.4289C111.822 33.4289 110.377 33.0668 109.072 32.3426C107.767 31.6184 106.73 30.6202 105.953 29.3577C105.18 28.0952 104.792 26.6566 104.792 25.0483C104.792 23.44 105.18 21.9818 105.953 20.7259C106.726 19.4699 107.767 18.4815 109.072 17.7573C110.373 17.0331 111.822 16.6677 113.41 16.6677C114.999 16.6677 116.438 17.0298 117.733 17.7573C119.028 18.4815 120.059 19.4732 120.835 20.7259C121.608 21.9818 121.997 23.4205 121.997 25.0483C121.997 26.6761 121.608 28.0919 120.835 29.3577C120.059 30.6202 119.028 31.6184 117.733 32.3426C116.438 33.0668 114.999 33.4289 113.41 33.4289ZM113.41 29.4588C114.213 29.4588 114.914 29.2729 115.511 28.901C116.108 28.5291 116.581 28.0071 116.924 27.3416C117.266 26.6761 117.436 25.9095 117.436 25.0483C117.436 24.1871 117.263 23.427 116.924 22.7713C116.581 22.1156 116.108 21.5936 115.511 21.212C114.911 20.8303 114.213 20.6378 113.41 20.6378C112.608 20.6378 111.9 20.827 111.293 21.212C110.687 21.5936 110.21 22.1123 109.868 22.7713C109.525 23.427 109.352 24.1871 109.352 25.0483C109.352 25.9095 109.525 26.6761 109.868 27.3416C110.21 28.0071 110.687 28.5291 111.293 28.901C111.9 29.2729 112.605 29.4588 113.41 29.4588Z" fill="#FFFFFF"/>
<path d="M127.441 33.0766L121.912 17.0233H126.469L130.351 28.6074L128.762 28.578L133.085 17.0233H136.908L141.201 28.578L139.613 28.6074L143.495 17.0233H148.081L142.526 33.0766H138.702L134.233 20.6672H135.763L131.265 33.0766H127.441Z" fill="#FFFFFF"/>
<path d="M156.38 33.4289C154.674 33.4289 153.193 33.0505 151.94 32.2969C150.684 31.5433 149.715 30.5288 149.03 29.2533C148.345 27.981 148.003 26.5685 148.003 25.0189C148.003 23.4694 148.362 21.9818 149.076 20.7259C149.79 19.4699 150.756 18.4815 151.973 17.7573C153.19 17.0331 154.56 16.6677 156.09 16.6677C157.365 16.6677 158.491 16.87 159.473 17.2712C160.455 17.6725 161.28 18.2368 161.958 18.9611C162.634 19.6853 163.149 20.5236 163.501 21.4762C163.854 22.4255 164.03 23.4596 164.03 24.5786C164.03 24.8917 164.017 25.2016 163.987 25.505C163.958 25.8084 163.906 26.0694 163.828 26.2847H151.8V23.0486H161.329L159.241 24.5786C159.437 23.7369 159.427 22.9866 159.212 22.3276C158.996 21.6719 158.618 21.15 158.08 20.7683C157.541 20.3866 156.879 20.1942 156.096 20.1942C155.313 20.1942 154.674 20.3801 154.126 20.752C153.578 21.1239 153.164 21.6752 152.889 22.3994C152.615 23.1236 152.508 24.0077 152.567 25.0451C152.488 25.9454 152.596 26.7414 152.889 27.4265C153.183 28.1115 153.633 28.6465 154.243 29.0282C154.85 29.4099 155.584 29.6023 156.449 29.6023C157.235 29.6023 157.903 29.4458 158.461 29.1326C159.019 28.8194 159.456 28.3855 159.769 27.8375L163.299 29.5143C162.986 30.2972 162.49 30.9855 161.815 31.5727C161.136 32.1599 160.34 32.6166 159.417 32.9396C158.494 33.2625 157.486 33.4256 156.39 33.4256L156.38 33.4289Z" fill="#FFFFFF"/>
<path d="M165.495 33.0766V17.0233H169.612V20.876L169.318 20.3181C169.671 18.9643 170.254 18.0509 171.07 17.5681C171.882 17.0885 172.848 16.8471 173.967 16.8471H174.906V20.6704H173.523C172.443 20.6704 171.572 20.9999 170.907 21.6556C170.241 22.3113 169.905 23.2378 169.905 24.435V33.0798H165.495V33.0766Z" fill="#FFFFFF"/>
<path d="M81.9172 58.463V36.5573H90.2978C91.8082 36.5573 93.1457 36.8216 94.3103 37.3501C95.4749 37.8785 96.3949 38.6647 97.0604 39.7021C97.7259 40.7427 98.0619 42.0248 98.0619 43.5548C98.0619 45.0847 97.7193 46.3146 97.031 47.3617C96.346 48.4089 95.4227 49.1984 94.2679 49.7301L99.2656 58.463H94.1505L88.7418 48.7873L91.681 50.5228H86.4778V58.463H81.9205H81.9172ZM86.4745 46.556H90.3272C90.9731 46.556 91.5342 46.4288 92.004 46.1743C92.4737 45.9199 92.8423 45.5676 93.1066 45.1141C93.3708 44.6639 93.5046 44.1452 93.5046 43.558C93.5046 42.9708 93.3708 42.4195 93.1066 41.9693C92.8423 41.5192 92.4737 41.1668 92.004 40.9091C91.5342 40.6547 90.9731 40.5275 90.3272 40.5275H86.4778V46.556H86.4745Z" fill="#FFFFFF"/>
<path d="M105.522 58.8154C104.368 58.8154 103.366 58.6294 102.524 58.2575C101.683 57.8856 101.034 57.3506 100.583 56.6558C100.133 55.9609 99.9082 55.1323 99.9082 54.17C99.9082 53.2696 100.114 52.4704 100.525 51.7723C100.936 51.0774 101.569 50.4935 102.42 50.0205C103.275 49.5507 104.335 49.218 105.611 49.0222L110.52 48.2295V51.4656L106.403 52.1996C105.774 52.317 105.294 52.5193 104.961 52.8031C104.629 53.0869 104.462 53.4947 104.462 54.0232C104.462 54.5158 104.648 54.8974 105.02 55.1715C105.392 55.4455 105.852 55.5825 106.403 55.5825C107.127 55.5825 107.767 55.4259 108.315 55.1127C108.863 54.7996 109.29 54.3722 109.594 53.834C109.897 53.2957 110.05 52.702 110.05 52.0561V47.8805C110.05 47.2737 109.809 46.7648 109.329 46.3505C108.85 45.9394 108.197 45.7339 107.375 45.7339C106.553 45.7339 105.901 45.9492 105.301 46.3798C104.704 46.8104 104.266 47.3781 103.992 48.086L100.463 46.4092C100.776 45.5088 101.275 44.7324 101.963 44.0865C102.648 43.4406 103.474 42.9382 104.433 42.5859C105.392 42.2336 106.442 42.0542 107.578 42.0542C108.931 42.0542 110.125 42.2988 111.166 42.7914C112.203 43.2807 113.012 43.9625 113.59 44.8335C114.167 45.7046 114.458 46.7224 114.458 47.8772V58.463H110.341V55.8761L111.342 55.6999C110.872 56.4046 110.351 56.9885 109.783 57.4485C109.212 57.9085 108.576 58.251 107.871 58.4761C107.167 58.7012 106.38 58.8154 105.519 58.8154H105.522Z" fill="#FFFFFF"/>
<path d="M116.666 58.463V42.4097H120.783V45.5839L120.548 44.8792C120.92 43.9169 121.524 43.209 122.356 42.7458C123.187 42.2858 124.163 42.0542 125.282 42.0542C126.499 42.0542 127.562 42.3086 128.472 42.8175C129.382 43.3264 130.094 44.0376 130.602 44.951C131.111 45.8612 131.366 46.9279 131.366 48.1414V58.463H126.955V49.0809C126.955 48.4546 126.835 47.9163 126.59 47.4629C126.345 47.0127 126.003 46.6604 125.559 46.4027C125.119 46.1482 124.603 46.021 124.016 46.021C123.429 46.021 122.936 46.1482 122.486 46.4027C122.036 46.6571 121.687 47.0094 121.442 47.4629C121.198 47.9163 121.074 48.4546 121.074 49.0809V58.463H116.663H116.666Z" fill="#FFFFFF"/>
<path d="M141.697 58.8154C140.089 58.8154 138.644 58.45 137.358 57.7127C136.073 56.9787 135.055 55.974 134.302 54.6984C133.548 53.4229 133.17 51.9941 133.17 50.4054C133.17 48.8167 133.542 47.3911 134.285 46.1254C135.029 44.8629 136.05 43.8679 137.342 43.1405C138.634 42.413 140.086 42.0509 141.694 42.0509C142.888 42.0509 143.997 42.2564 145.015 42.6675C146.036 43.0785 146.907 43.6526 147.634 44.3899C148.358 45.1239 148.877 45.9916 149.19 46.9899L145.37 48.6373C145.093 47.8348 144.63 47.1954 143.974 46.7256C143.318 46.2559 142.558 46.021 141.697 46.021C140.934 46.021 140.252 46.2069 139.652 46.5788C139.055 46.9507 138.582 47.4694 138.242 48.1349C137.9 48.8036 137.727 49.567 137.727 50.4282C137.727 51.2894 137.9 52.0561 138.242 52.7215C138.585 53.387 139.055 53.909 139.652 54.2809C140.249 54.6528 140.93 54.8387 141.697 54.8387C142.578 54.8387 143.344 54.6038 143.99 54.1341C144.636 53.6643 145.096 53.0249 145.374 52.2224L149.194 53.8992C148.9 54.8387 148.391 55.6836 147.667 56.4274C146.943 57.1712 146.068 57.7551 145.047 58.176C144.03 58.5968 142.911 58.8088 141.697 58.8088V58.8154Z" fill="#FFFFFF"/>
<path d="M151.164 58.463V36.2018H155.574V45.5839L155.046 44.8792C155.418 43.9169 156.021 43.209 156.853 42.7458C157.685 42.2858 158.66 42.0542 159.779 42.0542C160.996 42.0542 162.06 42.3086 162.97 42.8175C163.88 43.3264 164.591 44.0376 165.1 44.951C165.609 45.8612 165.863 46.9279 165.863 48.1414V58.463H161.453V49.0809C161.453 48.4546 161.332 47.9163 161.088 47.4629C160.843 47.0127 160.5 46.6604 160.057 46.4027C159.616 46.1482 159.101 46.021 158.514 46.021C157.926 46.021 157.434 46.1482 156.984 46.4027C156.533 46.6571 156.184 47.0094 155.94 47.4629C155.695 47.9163 155.571 48.4546 155.571 49.0809V58.463H151.161H151.164Z" fill="#FFFFFF"/>
</svg>
