<svg width="163" height="70" viewBox="0 0 163 70" fill="none" xmlns="http://www.w3.org/2000/svg">
<path d="M70.6853 34.1824C68.5776 38.6599 65.2751 42.2836 61.1441 44.7295C63.5872 49.5029 64.3762 54.9103 63.3618 60.3009C62.3502 65.7054 57.636 69.6307 52.1496 69.6307C51.665 69.6307 51.1747 69.5997 50.6928 69.5377C45.4573 68.8586 40.7262 66.5762 37.0151 62.9947C33.304 66.579 28.5757 68.8614 23.3486 69.5377C17.3523 70.3013 11.7842 66.2436 10.6712 60.2952C9.72721 55.271 10.35 50.2243 12.4239 45.6932C7.45323 43.2896 3.49417 39.2911 1.08774 34.1824C-1.4793 28.7214 0.642534 22.1672 5.92315 19.262C10.5641 16.7147 15.7433 15.7679 20.852 16.4836C21.7565 11.4002 24.2447 6.76491 28.0769 3.13273C32.4615 -1.04048 39.3539 -1.04612 43.7581 3.12709C47.5904 6.76209 50.0757 11.3946 50.9802 16.4751C56.072 15.7763 61.2259 16.7231 65.8471 19.262H65.8499C71.1305 22.1672 73.2524 28.7214 70.6853 34.1824Z" fill="#3BA934"/>
<path d="M64.3087 23.0435C59.4 20.3468 53.7672 19.8199 48.4443 21.5557C47.9314 21.7219 47.4242 21.9107 46.9227 22.1193C46.9649 21.5782 46.9875 21.0344 46.9875 20.4877C46.9875 14.869 44.7473 9.64473 40.6783 5.78431C38.0042 3.25108 33.8198 3.2539 31.1541 5.78995C27.0851 9.64474 24.845 14.8662 24.845 20.4877C24.845 21.0457 24.8675 21.6008 24.9126 22.1503C24.3913 21.9305 23.8587 21.7304 23.3233 21.5557C18.0005 19.8199 12.3676 20.3497 7.45897 23.0463C4.24383 24.8159 2.95044 28.8088 4.51716 32.1367C6.90949 37.22 11.1588 40.9762 16.4817 42.7148C17.3242 42.9909 18.1864 43.2107 19.0487 43.3685C18.7585 43.7179 18.4739 44.0758 18.2062 44.4506C14.9178 48.9986 13.6807 54.5469 14.7177 60.067C15.3968 63.6907 18.7782 66.1563 22.4188 65.6914C27.9671 64.9728 32.8335 62.0733 36.1247 57.5253C36.4488 57.0744 36.7531 56.6151 37.0349 56.1474C37.3082 56.5842 37.6182 57.0406 37.9676 57.5253C41.256 62.0733 46.1224 64.9728 51.6707 65.6914C51.9694 65.7308 52.2653 65.7477 52.5583 65.7477C55.8467 65.7477 58.7491 63.392 59.3718 60.067C60.4088 54.544 59.169 48.9986 55.8834 44.4506C55.4945 43.9152 55.0803 43.3995 54.6492 42.9092C54.8633 42.8472 55.0746 42.7852 55.286 42.7148C60.6089 40.979 64.8582 37.2228 67.2505 32.1367C68.8172 28.806 67.5238 24.8131 64.3087 23.0435ZM57.3825 59.6894C56.9006 62.2564 54.5083 64.0148 51.9328 63.6766C46.9452 63.0313 42.5691 60.422 39.6132 56.3362C38.8693 55.302 38.3367 54.4341 37.9394 53.6029L37.0265 51.7037L36.1135 53.6029C35.6683 54.5299 35.1188 55.4486 34.4819 56.3334C31.5232 60.422 27.1471 63.0313 22.1596 63.6766C19.5897 64.0119 17.1889 62.2592 16.7099 59.6894C15.7772 54.7187 16.8902 49.7284 19.849 45.6341C20.4717 44.7746 21.1564 43.98 21.8862 43.2699C22.5907 42.7148 24.3547 41.4327 25.679 40.8522C27.1894 45.7665 31.7937 49.2268 37.018 49.2268C39.3822 49.2268 41.6674 48.5336 43.623 47.2233C44.3584 46.7302 45.0263 46.1638 45.6237 45.5354L43.1496 45.0592C42.9383 45.2283 42.7213 45.3889 42.4959 45.5383C40.8756 46.6259 38.982 47.2008 37.0208 47.2008C32.377 47.2008 28.325 43.9039 27.3895 39.3644L27.1838 38.3725L25.9158 38.6346C24.0729 39.0854 21.5115 40.9987 20.7704 41.5736C20.5872 41.5538 20.3984 41.5285 20.2012 41.5003L20.1195 41.489C19.1107 41.3453 18.1019 41.1086 17.1128 40.7874C12.3253 39.2263 8.50437 35.8477 6.35437 31.2744C5.24133 28.9102 6.15713 26.0755 8.43957 24.8216C12.8523 22.3982 17.9159 21.922 22.7006 23.4831C23.5769 23.7677 24.4336 24.1284 25.262 24.5454C25.7551 26.9913 26.6822 29.2963 28.0291 31.3984L28.3278 31.8661H38.7341C40.2585 31.8661 41.4983 33.0299 41.4983 34.4557C41.4983 35.1405 41.2166 35.7886 40.7094 36.2732C40.1824 36.7748 39.4808 37.0509 38.7341 37.0509H33.9184L35.981 38.8318C38.5678 41.0635 41.6392 42.5683 44.8938 43.2643L47.1143 43.6108C47.7567 43.6728 48.3992 43.7095 49.0473 43.7095C49.9575 43.7095 50.8733 43.6475 51.789 43.5179L51.8595 43.5094C52.0257 43.4869 52.192 43.4559 52.3583 43.4277C53.0345 44.104 53.6685 44.8451 54.2406 45.6369C57.1993 49.7312 58.3151 54.7216 57.3796 59.6922L57.3825 59.6894ZM65.4189 31.2716C63.2661 35.8449 59.4451 39.2235 54.6576 40.7846C53.6686 41.1086 52.6569 41.3425 51.651 41.4862L51.5721 41.4975C50.4111 41.6637 49.2446 41.7116 48.0893 41.6497L45.99 41.4129C43.747 41.0213 41.5857 40.2069 39.6245 38.9981C40.5544 38.829 41.4138 38.3979 42.107 37.7413C43.02 36.865 43.5244 35.6984 43.5244 34.4557C43.5244 31.9112 41.3744 29.8401 38.7341 29.8401H29.4437L28.8519 28.7581C28.0488 27.1829 27.4796 25.5035 27.1641 23.7452L27.1471 23.6522C26.9668 22.6293 26.8738 21.567 26.8738 20.4906C26.8738 15.4297 28.8886 10.7324 32.5517 7.26085C34.4369 5.46871 37.3956 5.46589 39.2863 7.25521C42.9467 10.7296 44.9643 15.4297 44.9643 20.4877C44.9643 21.5642 44.8713 22.6265 44.6909 23.6494L44.3274 25.6979L46.1647 24.7201C47.0974 24.2242 48.0752 23.8071 49.0755 23.4803C53.8602 21.9192 58.9238 22.3954 63.3365 24.8187C65.619 26.0727 66.5348 28.9074 65.4217 31.2716H65.4189Z" fill="white"/>
<path d="M37.1054 24.5426C34.9301 24.5426 32.8561 25.1259 31.0527 26.1995L32.3856 27.7803C33.8086 26.9998 35.4204 26.5714 37.1054 26.5714C42.5326 26.5714 46.9481 30.987 46.9481 36.4141C46.9481 37.1158 46.872 37.8033 46.7311 38.474L48.7487 38.7135C48.8952 37.9639 48.9769 37.1947 48.9769 36.4141C48.9769 29.8683 43.6512 24.5454 37.1082 24.5454L37.1054 24.5426Z" fill="white"/>
<path d="M64.3087 23.0435C59.4 20.3468 53.7672 19.8199 48.4443 21.5557C47.9314 21.7219 47.4242 21.9107 46.9227 22.1193C46.9649 21.5782 46.9875 21.0344 46.9875 20.4877C46.9875 14.869 44.7473 9.64473 40.6783 5.78431C38.0042 3.25108 33.8198 3.2539 31.1541 5.78995C27.0851 9.64474 24.845 14.8662 24.845 20.4877C24.845 21.0457 24.8675 21.6008 24.9126 22.1503C24.3913 21.9305 23.8587 21.7304 23.3233 21.5557C18.0005 19.8199 12.3676 20.3497 7.45897 23.0463C4.24383 24.8159 2.95044 28.8088 4.51716 32.1367C6.90949 37.22 11.1588 40.9762 16.4817 42.7148C17.3242 42.9909 18.1864 43.2107 19.0487 43.3685C18.7585 43.7179 18.4739 44.0758 18.2062 44.4506C14.9178 48.9986 13.6807 54.5469 14.7177 60.067C15.3968 63.6907 18.7782 66.1563 22.4188 65.6914C27.9671 64.9728 32.8335 62.0733 36.1247 57.5253C36.4488 57.0744 36.7531 56.6151 37.0349 56.1474C37.3082 56.5842 37.6182 57.0406 37.9676 57.5253C41.256 62.0733 46.1224 64.9728 51.6707 65.6914C51.9694 65.7308 52.2653 65.7477 52.5583 65.7477C55.8467 65.7477 58.7491 63.392 59.3718 60.067C60.4088 54.544 59.169 48.9986 55.8834 44.4506C55.4945 43.9152 55.0803 43.3995 54.6492 42.9092C54.8633 42.8472 55.0746 42.7852 55.286 42.7148C60.6089 40.979 64.8582 37.2228 67.2505 32.1367C68.8172 28.806 67.5238 24.8131 64.3087 23.0435ZM57.3825 59.6894C56.9006 62.2564 54.5083 64.0148 51.9328 63.6766C46.9452 63.0313 42.5691 60.422 39.6132 56.3362C38.8693 55.302 38.3367 54.4341 37.9394 53.6029L37.0265 51.7037L36.1135 53.6029C35.6683 54.5299 35.1188 55.4486 34.4819 56.3334C31.5232 60.422 27.1471 63.0313 22.1596 63.6766C19.5897 64.0119 17.1889 62.2592 16.7099 59.6894C15.7772 54.7187 16.8902 49.7284 19.849 45.6341C20.4717 44.7746 21.1564 43.98 21.8862 43.2699C22.5907 42.7148 24.3547 41.4327 25.679 40.8522C27.1894 45.7665 31.7937 49.2268 37.018 49.2268C39.3822 49.2268 41.6674 48.5336 43.623 47.2233C44.3584 46.7302 45.0263 46.1638 45.6237 45.5354L43.1496 45.0592C42.9383 45.2283 42.7213 45.3889 42.4959 45.5383C40.8756 46.6259 38.982 47.2008 37.0208 47.2008C32.377 47.2008 28.325 43.9039 27.3895 39.3644L27.1838 38.3725L25.9158 38.6346C24.0729 39.0854 21.5115 40.9987 20.7704 41.5736C20.5872 41.5538 20.3984 41.5285 20.2012 41.5003L20.1195 41.489C19.1107 41.3453 18.1019 41.1086 17.1128 40.7874C12.3253 39.2263 8.50437 35.8477 6.35437 31.2744C5.24133 28.9102 6.15713 26.0755 8.43957 24.8216C12.8523 22.3982 17.9159 21.922 22.7006 23.4831C23.5769 23.7677 24.4336 24.1284 25.262 24.5454C25.7551 26.9913 26.6822 29.2963 28.0291 31.3984L28.3278 31.8661H38.7341C40.2585 31.8661 41.4983 33.0299 41.4983 34.4557C41.4983 35.1405 41.2166 35.7886 40.7094 36.2732C40.1824 36.7748 39.4808 37.0509 38.7341 37.0509H33.9184L35.981 38.8318C38.5678 41.0635 41.6392 42.5683 44.8938 43.2643L47.1143 43.6108C47.7567 43.6728 48.3992 43.7095 49.0473 43.7095C49.9575 43.7095 50.8733 43.6475 51.789 43.5179L51.8595 43.5094C52.0257 43.4869 52.192 43.4559 52.3583 43.4277C53.0345 44.104 53.6685 44.8451 54.2406 45.6369C57.1993 49.7312 58.3151 54.7216 57.3796 59.6922L57.3825 59.6894ZM65.4189 31.2716C63.2661 35.8449 59.4451 39.2235 54.6576 40.7846C53.6686 41.1086 52.6569 41.3425 51.651 41.4862L51.5721 41.4975C50.4111 41.6637 49.2446 41.7116 48.0893 41.6497L45.99 41.4129C43.747 41.0213 41.5857 40.2069 39.6245 38.9981C40.5544 38.829 41.4138 38.3979 42.107 37.7413C43.02 36.865 43.5244 35.6984 43.5244 34.4557C43.5244 31.9112 41.3744 29.8401 38.7341 29.8401H29.4437L28.8519 28.7581C28.0488 27.1829 27.4796 25.5035 27.1641 23.7452L27.1471 23.6522C26.9668 22.6293 26.8738 21.567 26.8738 20.4906C26.8738 15.4297 28.8886 10.7324 32.5517 7.26085C34.4369 5.46871 37.3956 5.46589 39.2863 7.25521C42.9467 10.7296 44.9643 15.4297 44.9643 20.4877C44.9643 21.5642 44.8713 22.6265 44.6909 23.6494L44.3274 25.6979L46.1647 24.7201C47.0974 24.2242 48.0752 23.8071 49.0755 23.4803C53.8602 21.9192 58.9238 22.3954 63.3365 24.8187C65.619 26.0727 66.5348 28.9074 65.4217 31.2716H65.4189Z" fill="white"/>
<path d="M81.9172 27.9413V9.01953H94.8708V12.4488H85.8538V17.2504H93.6V20.6797H85.8538V27.9441H81.9172V27.9413Z" fill="#1A1A1A"/>
<path d="M96.0881 27.9413V8.71239H99.8978V27.9413H96.0881Z" fill="#1A1A1A"/>
<path d="M109.12 28.2456C107.748 28.2456 106.5 27.9328 105.373 27.3072C104.246 26.6817 103.35 25.8194 102.679 24.7289C102.011 23.6384 101.676 22.3958 101.676 21.0066C101.676 19.6174 102.011 18.3578 102.679 17.273C103.347 16.1881 104.246 15.3343 105.373 14.7087C106.497 14.0832 107.748 13.7676 109.12 13.7676C110.493 13.7676 111.735 14.0804 112.854 14.7087C113.973 15.3343 114.863 16.1909 115.534 17.273C116.202 18.3578 116.537 19.6005 116.537 21.0066C116.537 22.4127 116.202 23.6356 115.534 24.7289C114.863 25.8194 113.973 26.6817 112.854 27.3072C111.735 27.9328 110.493 28.2456 109.12 28.2456ZM109.12 24.8163C109.814 24.8163 110.42 24.6557 110.935 24.3344C111.451 24.0132 111.859 23.5623 112.155 22.9875C112.451 22.4127 112.598 21.7505 112.598 21.0066C112.598 20.2627 112.448 19.6061 112.155 19.0397C111.859 18.4734 111.451 18.0225 110.935 17.6928C110.417 17.3631 109.814 17.1969 109.12 17.1969C108.427 17.1969 107.816 17.3603 107.292 17.6928C106.768 18.0225 106.356 18.4705 106.06 19.0397C105.764 19.6061 105.615 20.2627 105.615 21.0066C105.615 21.7505 105.764 22.4127 106.06 22.9875C106.356 23.5623 106.768 24.0132 107.292 24.3344C107.816 24.6557 108.424 24.8163 109.12 24.8163Z" fill="#1A1A1A"/>
<path d="M121.24 27.9413L116.464 14.0747H120.4L123.754 24.0808L122.381 24.0555L126.115 14.0747H129.417L133.126 24.0555L131.753 24.0808L135.107 14.0747H139.069L134.27 27.9413H130.967L127.107 17.2222H128.428L124.543 27.9413H121.24Z" fill="#1A1A1A"/>
<path d="M146.237 28.2456C144.763 28.2456 143.484 27.9187 142.402 27.2678C141.317 26.6169 140.48 25.7405 139.888 24.6388C139.297 23.5398 139.001 22.3197 139.001 20.9812C139.001 19.6427 139.311 18.3578 139.928 17.273C140.545 16.1881 141.379 15.3343 142.43 14.7087C143.481 14.0832 144.665 13.7676 145.986 13.7676C147.088 13.7676 148.06 13.9423 148.908 14.2889C149.756 14.6355 150.469 15.123 151.055 15.7485C151.639 16.3741 152.084 17.0982 152.388 17.9211C152.693 18.741 152.845 19.6343 152.845 20.6008C152.845 20.8713 152.833 21.139 152.808 21.4011C152.783 21.6631 152.738 21.8886 152.67 22.0745H142.281V19.2793H150.512L148.708 20.6008C148.877 19.8738 148.869 19.2257 148.683 18.6565C148.497 18.0901 148.17 17.6393 147.705 17.3096C147.24 16.9799 146.668 16.8137 145.992 16.8137C145.316 16.8137 144.763 16.9743 144.29 17.2955C143.816 17.6167 143.459 18.0929 143.222 18.7185C142.985 19.3441 142.892 20.1077 142.943 21.0038C142.875 21.7815 142.968 22.469 143.222 23.0608C143.475 23.6525 143.864 24.1146 144.391 24.4443C144.915 24.774 145.549 24.9403 146.296 24.9403C146.975 24.9403 147.553 24.805 148.035 24.5345C148.517 24.264 148.894 23.8892 149.165 23.4158L152.214 24.8642C151.943 25.5405 151.515 26.135 150.931 26.6422C150.345 27.1495 149.658 27.5439 148.86 27.8229C148.063 28.1019 147.192 28.2428 146.245 28.2428L146.237 28.2456Z" fill="#1A1A1A"/>
<path d="M154.11 27.9412V14.0747H157.666V17.4026L157.413 16.9207C157.717 15.7513 158.221 14.9623 158.926 14.5453C159.627 14.1311 160.462 13.9225 161.428 13.9225H162.24V17.225H161.045C160.112 17.225 159.36 17.5096 158.785 18.076C158.21 18.6424 157.92 19.4427 157.92 20.4768V27.9441H154.11V27.9412Z" fill="#1A1A1A"/>
<path d="M81.9172 49.8696V30.9479H89.1562C90.4609 30.9479 91.6162 31.1761 92.6222 31.6326C93.6281 32.0891 94.4228 32.7682 94.9976 33.6643C95.5724 34.5632 95.8627 35.6706 95.8627 36.9921C95.8627 38.3137 95.5668 39.376 94.9722 40.2805C94.3805 41.1851 93.583 41.867 92.5855 42.3263L96.9025 49.8696H92.4841L87.8121 41.5119L90.351 43.011H85.8566V49.8696H81.9201H81.9172ZM85.8538 39.5845H89.1816C89.7395 39.5845 90.2242 39.4746 90.63 39.2549C91.0357 39.0351 91.3541 38.7307 91.5824 38.3391C91.8106 37.9502 91.9262 37.5022 91.9262 36.9949C91.9262 36.4877 91.8106 36.0115 91.5824 35.6227C91.3541 35.2338 91.0357 34.9295 90.63 34.7069C90.2242 34.4871 89.7395 34.3772 89.1816 34.3772H85.8538V39.5845Z" fill="#1A1A1A"/>
<path d="M102.307 50.1739C101.309 50.1739 100.444 50.0133 99.7174 49.6921C98.9904 49.3708 98.4297 48.9087 98.0408 48.3085C97.652 47.7083 97.4575 46.9926 97.4575 46.1613C97.4575 45.3836 97.635 44.6932 97.9901 44.0902C98.3451 43.49 98.8918 42.9856 99.6273 42.5771C100.366 42.1713 101.281 41.8839 102.383 41.7148L106.624 41.0301V43.8254L103.068 44.4594C102.524 44.5608 102.11 44.7355 101.822 44.9807C101.535 45.2258 101.391 45.5781 101.391 46.0345C101.391 46.46 101.552 46.7897 101.873 47.0264C102.194 47.2631 102.592 47.3815 103.068 47.3815C103.693 47.3815 104.246 47.2462 104.719 46.9757C105.192 46.7052 105.562 46.336 105.824 45.8711C106.086 45.4062 106.218 44.8933 106.218 44.3354V40.7286C106.218 40.2044 106.01 39.7649 105.595 39.407C105.181 39.052 104.618 38.8744 103.908 38.8744C103.197 38.8744 102.634 39.0604 102.115 39.4324C101.6 39.8043 101.222 40.2946 100.985 40.9061L97.9366 39.4577C98.2071 38.68 98.6382 38.0094 99.2327 37.4514C99.8245 36.8935 100.537 36.4596 101.366 36.1552C102.194 35.8509 103.102 35.6959 104.082 35.6959C105.252 35.6959 106.283 35.9072 107.182 36.3327C108.078 36.7554 108.777 37.3443 109.275 38.0967C109.774 38.8491 110.025 39.7282 110.025 40.7257V49.8696H106.469V47.6351L107.334 47.4829C106.928 48.0915 106.477 48.5959 105.987 48.9933C105.494 49.3906 104.945 49.6864 104.336 49.8809C103.727 50.0753 103.048 50.1739 102.304 50.1739H102.307Z" fill="#1A1A1A"/>
<path d="M111.933 49.8696V36.0031H115.489V38.7448L115.286 38.1362C115.607 37.3049 116.128 36.6934 116.847 36.2933C117.566 35.896 118.408 35.6959 119.375 35.6959C120.426 35.6959 121.344 35.9157 122.13 36.3553C122.917 36.7949 123.531 37.4092 123.971 38.1982C124.41 38.9843 124.63 39.9058 124.63 40.954V49.8696H120.82V41.7655C120.82 41.2245 120.716 40.7596 120.505 40.3679C120.293 39.979 119.997 39.6747 119.614 39.4521C119.234 39.2323 118.789 39.1224 118.281 39.1224C117.774 39.1224 117.349 39.2323 116.96 39.4521C116.571 39.6719 116.269 39.9762 116.058 40.3679C115.847 40.7596 115.74 41.2245 115.74 41.7655V49.8696H111.93H111.933Z" fill="#1A1A1A"/>
<path d="M133.554 50.1739C132.165 50.1739 130.917 49.8583 129.806 49.2215C128.696 48.5875 127.817 47.7196 127.166 46.6178C126.515 45.516 126.188 44.2818 126.188 42.9096C126.188 41.5373 126.509 40.3059 127.152 39.2126C127.794 38.1221 128.676 37.2626 129.792 36.6342C130.908 36.0059 132.162 35.6931 133.551 35.6931C134.583 35.6931 135.541 35.8706 136.42 36.2257C137.302 36.5807 138.054 37.0766 138.682 37.7135C139.308 38.3475 139.756 39.097 140.027 39.9593L136.727 41.3823C136.487 40.6891 136.087 40.1368 135.521 39.7311C134.954 39.3253 134.298 39.1224 133.554 39.1224C132.895 39.1224 132.306 39.283 131.787 39.6042C131.272 39.9255 130.863 40.3735 130.57 40.9483C130.274 41.526 130.125 42.1854 130.125 42.9293C130.125 43.6732 130.274 44.3354 130.57 44.9102C130.866 45.485 131.272 45.9359 131.787 46.2571C132.303 46.5784 132.892 46.739 133.554 46.739C134.315 46.739 134.977 46.5361 135.535 46.1303C136.093 45.7246 136.49 45.1723 136.73 44.4791L140.029 45.9275C139.776 46.739 139.336 47.4688 138.711 48.1113C138.085 48.7537 137.33 49.2581 136.448 49.6216C135.569 49.9851 134.602 50.1683 133.554 50.1683V50.1739Z" fill="#1A1A1A"/>
<path d="M141.731 49.8696V30.6407H145.541V38.7448L145.085 38.1362C145.406 37.3049 145.927 36.6934 146.646 36.2933C147.364 35.896 148.207 35.6959 149.173 35.6959C150.224 35.6959 151.143 35.9157 151.929 36.3553C152.715 36.7949 153.33 37.4092 153.769 38.1982C154.209 38.9843 154.428 39.9057 154.428 40.954V49.8696H150.619V41.7655C150.619 41.2245 150.515 40.7595 150.303 40.3679C150.092 39.979 149.796 39.6747 149.413 39.4521C149.032 39.2323 148.587 39.1224 148.08 39.1224C147.573 39.1224 147.147 39.2323 146.758 39.4521C146.369 39.6719 146.068 39.9762 145.857 40.3679C145.645 40.7595 145.538 41.2245 145.538 41.7655V49.8696H141.729H141.731Z" fill="#1A1A1A"/>
<path d="M82.1963 60.8177V54.9346H83.4208V57.4773H85.7102V54.9346H86.9347V60.8177H85.7102V58.5422H83.4208V60.8177H82.1963Z" fill="#1A1A1A"/>
<path d="M89.1512 60.9114C88.839 60.9114 88.5719 60.8628 88.3465 60.7622C88.121 60.6616 87.9475 60.5194 87.8261 60.3321C87.7047 60.1448 87.6458 59.9228 87.6458 59.6661C87.6458 59.4232 87.7012 59.2082 87.8122 59.0209C87.9232 58.8336 88.0932 58.6775 88.3222 58.5526C88.5511 58.4277 88.8355 58.3375 89.179 58.2855L90.4971 58.0704V58.9376L89.3906 59.1353C89.2206 59.1666 89.0922 59.2221 89.002 59.2984C88.9119 59.3747 88.8668 59.4857 88.8668 59.6244C88.8668 59.7563 88.9153 59.8603 89.0159 59.9332C89.1165 60.006 89.2414 60.0442 89.3871 60.0442C89.5814 60.0442 89.7513 60.0026 89.9005 59.9193C90.0462 59.836 90.1606 59.7216 90.2439 59.5759C90.3271 59.4302 90.3653 59.2706 90.3653 59.0972V57.9768C90.3653 57.8137 90.2994 57.675 90.171 57.5674C90.0427 57.4564 89.8658 57.4009 89.6473 57.4009C89.4287 57.4009 89.2518 57.4599 89.0922 57.5744C88.9327 57.6889 88.8147 57.8415 88.7419 58.0323L87.7949 57.5813C87.8782 57.3385 88.0135 57.1304 88.1973 56.9569C88.3811 56.7835 88.6031 56.6482 88.8598 56.5546C89.1165 56.4609 89.401 56.4123 89.7062 56.4123C90.0704 56.4123 90.3896 56.4782 90.6705 56.61C90.948 56.7419 91.1666 56.9257 91.3227 57.1581C91.4788 57.394 91.5551 57.6646 91.5551 57.9768V60.8212H90.4486V60.1274L90.7156 60.0789C90.5908 60.2696 90.4486 60.4257 90.2959 60.5506C90.1433 60.6755 89.9733 60.7657 89.7825 60.8281C89.5917 60.8871 89.3836 60.9183 89.1512 60.9183V60.9114ZM88.3707 55.6041V54.6571H91.0556V55.6041H88.3707Z" fill="#1A1A1A"/>
<path d="M92.3494 60.8177V56.506H93.456V57.557L93.338 57.3836C93.4005 57.0506 93.5531 56.8078 93.7959 56.6482C94.0387 56.4886 94.3266 56.4123 94.6631 56.4123C95.0204 56.4123 95.3361 56.5025 95.6066 56.6864C95.8772 56.8668 96.0472 57.113 96.1165 57.4183L95.7766 57.4495C95.9188 57.0957 96.12 56.8355 96.3836 56.669C96.6473 56.499 96.956 56.4158 97.3063 56.4158C97.6185 56.4158 97.8926 56.4852 98.1319 56.6205C98.3713 56.7592 98.5586 56.95 98.6973 57.1928C98.8326 57.4391 98.902 57.7235 98.902 58.0496V60.8212H97.7157V58.3028C97.7157 58.1329 97.6845 57.9906 97.6255 57.8692C97.5665 57.7478 97.4798 57.6542 97.3688 57.5848C97.2578 57.5154 97.1225 57.4807 96.9664 57.4807C96.8103 57.4807 96.682 57.5154 96.5675 57.5848C96.453 57.6542 96.3663 57.7478 96.3073 57.8692C96.2483 57.9906 96.2171 58.1363 96.2171 58.3028V60.8212H95.0308V58.3028C95.0308 58.1329 94.9996 57.9906 94.9406 57.8692C94.8816 57.7478 94.7949 57.6542 94.6839 57.5848C94.5729 57.5154 94.4376 57.4807 94.2815 57.4807C94.1255 57.4807 93.9971 57.5154 93.8826 57.5848C93.7682 57.6542 93.6814 57.7478 93.6225 57.8692C93.5635 57.9906 93.5323 58.1363 93.5323 58.3028V60.8212H92.3459L92.3494 60.8177Z" fill="#1A1A1A"/>
<path d="M100.945 60.9114C100.633 60.9114 100.366 60.8628 100.14 60.7622C99.9149 60.6616 99.7415 60.5194 99.6201 60.3321C99.4987 60.1448 99.4397 59.9228 99.4397 59.6661C99.4397 59.4232 99.4952 59.2082 99.6062 59.0209C99.7172 58.8336 99.8872 58.6775 100.116 58.5526C100.345 58.4277 100.629 58.3375 100.973 58.2855L102.291 58.0704V58.9376L101.184 59.1353C101.015 59.1666 100.886 59.2221 100.796 59.2984C100.706 59.3747 100.661 59.4857 100.661 59.6244C100.661 59.7563 100.709 59.8603 100.81 59.9332C100.91 60.006 101.035 60.0442 101.181 60.0442C101.375 60.0442 101.545 60.0026 101.694 59.9193C101.84 59.836 101.955 59.7216 102.038 59.5759C102.121 59.4302 102.159 59.2706 102.159 59.0972V57.9768C102.159 57.8137 102.093 57.675 101.965 57.5674C101.837 57.4564 101.66 57.4009 101.441 57.4009C101.223 57.4009 101.046 57.4599 100.886 57.5744C100.727 57.6889 100.609 57.8415 100.536 58.0323L99.5889 57.5813C99.6721 57.3385 99.8074 57.1304 99.9912 56.9569C100.175 56.7835 100.397 56.6482 100.654 56.5546C100.91 56.4609 101.195 56.4123 101.5 56.4123C101.864 56.4123 102.184 56.4782 102.464 56.61C102.742 56.7419 102.961 56.9257 103.117 57.1581C103.273 57.394 103.349 57.6646 103.349 57.9768V60.8212H102.242V60.1274L102.51 60.0789C102.385 60.2696 102.242 60.4257 102.09 60.5506C101.937 60.6755 101.767 60.7657 101.576 60.8281C101.386 60.8871 101.178 60.9183 100.945 60.9183V60.9114ZM100.161 55.6041V54.6571H102.846V55.6041H100.161Z" fill="#1A1A1A"/>
<path d="M104.14 60.8177V54.8375H105.326V58.667L104.882 58.5248L106.787 56.5025H108.247L106.683 58.2404L108.24 60.8142H106.898L105.593 58.6254L106.28 58.452L104.962 59.8881L105.326 59.2013V60.8108H104.14V60.8177Z" fill="#1A1A1A"/>
<path d="M110.179 60.9114C109.832 60.9114 109.534 60.8351 109.291 60.6859C109.048 60.5367 108.861 60.3251 108.733 60.058C108.608 59.7909 108.542 59.4753 108.542 59.118V56.5025H109.728V59.0209C109.728 59.1839 109.76 59.3261 109.829 59.451C109.895 59.5759 109.988 59.6695 110.11 59.7389C110.231 59.8083 110.367 59.843 110.519 59.843C110.672 59.843 110.814 59.8083 110.935 59.7389C111.053 59.6695 111.147 59.5759 111.213 59.451C111.279 59.3261 111.31 59.1839 111.31 59.0209V56.5025H112.496V60.8142H111.39V59.9609L111.452 60.1517C111.352 60.4084 111.189 60.5992 110.967 60.724C110.741 60.8489 110.481 60.9114 110.179 60.9114Z" fill="#1A1A1A"/>
<path d="M114.564 60.9114C114.252 60.9114 113.985 60.8628 113.759 60.7622C113.534 60.6616 113.36 60.5194 113.239 60.3321C113.117 60.1448 113.058 59.9228 113.058 59.6661C113.058 59.4232 113.114 59.2082 113.225 59.0209C113.336 58.8336 113.506 58.6775 113.735 58.5526C113.964 58.4277 114.248 58.3375 114.592 58.2855L115.91 58.0704V58.9376L114.803 59.1353C114.633 59.1666 114.505 59.2221 114.415 59.2984C114.324 59.3747 114.279 59.4857 114.279 59.6244C114.279 59.7563 114.328 59.8603 114.429 59.9332C114.529 60.006 114.654 60.0442 114.8 60.0442C114.994 60.0442 115.164 60.0026 115.313 59.9193C115.459 59.8361 115.573 59.7216 115.656 59.5759C115.74 59.4302 115.778 59.2706 115.778 59.0972V57.9768C115.778 57.8137 115.712 57.675 115.584 57.5674C115.455 57.4564 115.278 57.4009 115.06 57.4009C114.841 57.4009 114.664 57.4599 114.505 57.5744C114.345 57.6889 114.227 57.8415 114.155 58.0323L113.208 57.5813C113.291 57.3385 113.426 57.1304 113.61 56.9569C113.794 56.7835 114.016 56.6482 114.272 56.5546C114.529 56.4609 114.814 56.4123 115.119 56.4123C115.483 56.4123 115.802 56.4782 116.083 56.61C116.361 56.7419 116.579 56.9257 116.735 57.1581C116.891 57.394 116.968 57.6646 116.968 57.9768V60.8212H115.861V60.1274L116.128 60.0789C116.003 60.2696 115.861 60.4257 115.709 60.5506C115.556 60.6755 115.386 60.7657 115.195 60.8281C115.004 60.8871 114.796 60.9183 114.564 60.9183V60.9114Z" fill="#1A1A1A"/>
<path d="M119.025 60.8177V54.9346H120.249V57.4773H122.539V54.9346H123.763V60.8177H122.539V58.5422H120.249V60.8177H119.025Z" fill="#1A1A1A"/>
<path d="M125.959 60.9114C125.647 60.9114 125.38 60.8628 125.154 60.7622C124.929 60.6616 124.755 60.5194 124.634 60.3321C124.512 60.1448 124.453 59.9228 124.453 59.6661C124.453 59.4232 124.509 59.2082 124.62 59.0209C124.731 58.8336 124.901 58.6775 125.13 58.5526C125.359 58.4277 125.643 58.3375 125.987 58.2855L127.305 58.0704V58.9376L126.198 59.1353C126.028 59.1666 125.9 59.2221 125.81 59.2984C125.719 59.3747 125.674 59.4857 125.674 59.6244C125.674 59.7563 125.723 59.8603 125.824 59.9332C125.924 60.006 126.049 60.0442 126.195 60.0442C126.389 60.0442 126.559 60.0026 126.708 59.9193C126.854 59.8361 126.968 59.7216 127.052 59.5759C127.135 59.4302 127.173 59.2706 127.173 59.0972V57.9768C127.173 57.8137 127.107 57.675 126.979 57.5674C126.85 57.4564 126.673 57.4009 126.455 57.4009C126.236 57.4009 126.059 57.4599 125.9 57.5744C125.74 57.6889 125.622 57.8415 125.549 58.0323L124.603 57.5813C124.686 57.3385 124.821 57.1304 125.005 56.9569C125.189 56.7835 125.411 56.6482 125.667 56.5546C125.924 56.4609 126.209 56.4123 126.514 56.4123C126.878 56.4123 127.197 56.4782 127.478 56.61C127.756 56.7419 127.974 56.9257 128.13 57.1581C128.286 57.394 128.363 57.6646 128.363 57.9768V60.8212H127.256V60.1274L127.523 60.0789C127.398 60.2696 127.256 60.4257 127.104 60.5506C126.951 60.6755 126.781 60.7657 126.59 60.8281C126.399 60.8871 126.191 60.9183 125.959 60.9183V60.9114Z" fill="#1A1A1A"/>
<path d="M130.045 60.8177L128.56 56.506H129.785L130.829 59.6175L130.402 59.6106L131.564 56.506H132.591L133.743 59.6106L133.316 59.6175L134.36 56.506H135.592L134.1 60.8177H133.073L131.873 57.4842H132.282L131.075 60.8177H130.048H130.045Z" fill="#1A1A1A"/>
<path d="M137.118 60.9114C136.806 60.9114 136.539 60.8628 136.313 60.7622C136.088 60.6616 135.914 60.5194 135.793 60.3321C135.672 60.1448 135.613 59.9228 135.613 59.6661C135.613 59.4232 135.668 59.2082 135.779 59.0209C135.89 58.8336 136.06 58.6775 136.289 58.5526C136.518 58.4277 136.802 58.3375 137.146 58.2855L138.464 58.0704V58.9376L137.357 59.1353C137.187 59.1666 137.059 59.2221 136.969 59.2984C136.879 59.3747 136.834 59.4857 136.834 59.6244C136.834 59.7563 136.882 59.8603 136.983 59.9332C137.083 60.006 137.208 60.0442 137.354 60.0442C137.548 60.0442 137.718 60.0026 137.867 59.9193C138.013 59.8361 138.127 59.7216 138.211 59.5759C138.294 59.4302 138.332 59.2706 138.332 59.0972V57.9768C138.332 57.8137 138.266 57.675 138.138 57.5674C138.01 57.4564 137.833 57.4009 137.614 57.4009C137.396 57.4009 137.219 57.4599 137.059 57.5744C136.899 57.6889 136.782 57.8415 136.709 58.0323L135.762 57.5813C135.845 57.3385 135.98 57.1304 136.164 56.9569C136.348 56.7835 136.57 56.6482 136.827 56.5546C137.083 56.4609 137.368 56.4123 137.673 56.4123C138.037 56.4123 138.356 56.4782 138.637 56.61C138.915 56.7419 139.133 56.9257 139.289 57.1581C139.446 57.394 139.522 57.6646 139.522 57.9768V60.8212H138.415V60.1274L138.682 60.0789C138.558 60.2696 138.415 60.4257 138.263 60.5506C138.11 60.6755 137.94 60.7657 137.749 60.8281C137.559 60.8871 137.35 60.9183 137.118 60.9183V60.9114Z" fill="#1A1A1A"/>
<path d="M140.275 56.1175V54.9312H141.461V56.1175H140.275ZM140.275 60.8177V56.506H141.461V60.8177H140.275Z" fill="#1A1A1A"/>
<path d="M142.474 57.2483V56.5615C142.474 56.1001 142.588 55.7186 142.814 55.4202C143.039 55.1219 143.376 54.9277 143.816 54.841V55.4341C143.632 55.4757 143.48 55.5555 143.362 55.6665C143.244 55.781 143.164 55.9128 143.129 56.0654H143.66V57.2518H142.474V57.2483Z" fill="#1A1A1A"/>
<path d="M144.732 56.1175V54.9312H145.918V56.1175H144.732ZM144.732 60.8177V56.506H145.918V60.8177H144.732Z" fill="#1A1A1A"/>
</svg>
