<svg preserveAspectRatio="none" width="100%" height="100%" overflow="visible" style="display: block;" viewBox="0 0 10.5556 14.4449" fill="none" xmlns="http://www.w3.org/2000/svg">
<path id="Icon" fill-rule="evenodd" clip-rule="evenodd" d="M5.27778 0C5.73801 0 6.11111 0.373096 6.11111 0.833333V11.5996L9.13294 8.57744C9.45836 8.25199 9.98599 8.25196 10.3114 8.57738C10.6369 8.9028 10.6369 9.43044 10.3115 9.75589L5.86706 14.2008C5.71078 14.3571 5.49881 14.4449 5.27778 14.4449C5.05675 14.4449 4.84477 14.3571 4.68849 14.2008L0.244048 9.75589C-0.0813725 9.43044 -0.081346 8.9028 0.244107 8.57738C0.56956 8.25196 1.0972 8.25199 1.42262 8.57744L4.44444 11.5996V0.833333C4.44444 0.373096 4.81754 0 5.27778 0Z" fill="var(--fill-0, white)"/>
</svg>
