<svg preserveAspectRatio="none" width="100%" height="100%" overflow="visible" style="display: block;" viewBox="0 0 64.0621 61.8616" fill="none" xmlns="http://www.w3.org/2000/svg">
<g id="Group 391">
<path id="Vector" d="M33.2525 20.6565C31.0772 20.6565 29.0033 21.2397 27.1999 22.3133L28.5327 23.8941C29.9557 23.1136 31.5675 22.6853 33.2525 22.6853C38.6797 22.6853 43.0952 27.1008 43.0952 32.528C43.0952 33.2296 43.0192 33.9172 42.8783 34.5878L44.8958 34.8273C45.0423 34.0778 45.1241 33.3085 45.1241 32.528C45.1241 25.9822 39.7984 20.6593 33.2554 20.6593L33.2525 20.6565Z" fill="var(--fill-0, white)"/>
<path id="Vector_2" d="M60.4559 19.1574C55.5472 16.4607 49.9144 15.9338 44.5915 17.6696C44.0787 17.8358 43.5715 18.0246 43.0699 18.2331C43.1122 17.6921 43.1347 17.1483 43.1347 16.6016C43.1347 10.9828 40.8945 5.75859 36.8256 1.89816C34.1514 -0.63507 29.967 -0.632246 27.3013 1.9038C23.2324 5.75859 20.9922 10.98 20.9922 16.6016C20.9922 17.1595 21.0147 17.7146 21.0598 18.2641C20.5385 18.0443 20.006 17.8443 19.4706 17.6696C14.1477 15.9338 8.51485 16.4635 3.60619 19.1602C0.391045 20.9298 -0.90234 24.9226 0.664374 28.2505C3.05671 33.3339 7.30599 37.09 12.6289 38.8286C13.4714 39.1048 14.3336 39.3246 15.1959 39.4824C14.9057 39.8318 14.6211 40.1897 14.3534 40.5644C11.065 45.1124 9.82794 50.6607 10.8649 56.1808C11.544 59.8046 14.9254 62.2702 18.566 61.8052C24.1143 61.0867 28.9807 58.1871 32.272 53.6391C32.596 53.1883 32.9003 52.729 33.1821 52.2612C33.4554 52.698 33.7654 53.1545 34.1148 53.6391C37.4032 58.1871 42.2696 61.0867 47.8179 61.8052C48.1166 61.8447 48.4125 61.8616 48.7055 61.8616C51.994 61.8616 54.8963 59.5059 55.5191 56.1808C56.556 50.6579 55.3162 45.1124 52.0306 40.5644C51.6417 40.029 51.2275 39.5134 50.7964 39.0231C51.0105 38.9611 51.2219 38.8991 51.4332 38.8286C56.7561 37.0929 61.0054 33.3367 63.3977 28.2505C64.9644 24.9198 63.671 20.927 60.4559 19.1574ZM53.5297 55.8032C53.0478 58.3703 50.6555 60.1286 48.08 59.7905C43.0924 59.1452 38.7163 56.5359 35.7604 52.45C35.0165 51.4159 34.484 50.548 34.0866 49.7167L33.1737 47.8175L32.2607 49.7167C31.8155 50.6438 31.266 51.5624 30.6292 52.4472C27.6704 56.5359 23.2944 59.1452 18.3068 59.7905C15.7369 60.1258 13.3361 58.3731 12.8571 55.8032C11.9244 50.8326 13.0375 45.8422 15.9962 41.7479C16.6189 40.8885 17.3036 40.0938 18.0335 39.3838C18.7379 38.8286 20.5019 37.5465 21.8263 36.9661C23.3366 41.8803 27.941 45.3407 33.1652 45.3407C35.5294 45.3407 37.8146 44.6475 39.7702 43.3372C40.5057 42.844 41.1735 42.2777 41.7709 41.6493L39.2968 41.1731C39.0855 41.3421 38.8685 41.5028 38.6431 41.6521C37.0228 42.7398 35.1292 43.3146 33.168 43.3146C28.5242 43.3146 24.4722 40.0178 23.5367 35.4782L23.331 34.4864L22.063 34.7484C20.2201 35.1993 17.6587 37.1126 16.9176 37.6874C16.7345 37.6677 16.5457 37.6423 16.3484 37.6142L16.2667 37.6029C15.2579 37.4592 14.2491 37.2225 13.2601 36.9012C8.47257 35.3402 4.65159 31.9616 2.50159 27.3883C1.38854 25.0241 2.30435 22.1894 4.58679 20.9354C8.99951 18.5121 14.0631 18.0359 18.8478 19.597C19.7242 19.8816 20.5808 20.2422 21.4092 20.6593C21.9024 23.1051 22.8294 25.4101 24.1763 27.5122L24.475 27.98H34.8813C36.4057 27.98 37.6456 29.1438 37.6456 30.5696C37.6456 31.2543 37.3638 31.9024 36.8566 32.3871C36.3296 32.8887 35.628 33.1648 34.8813 33.1648H30.0656L32.1283 34.9457C34.715 37.1774 37.7865 38.6821 41.041 39.3781L43.2615 39.7247C43.904 39.7867 44.5464 39.8233 45.1945 39.8233C46.1047 39.8233 47.0205 39.7613 47.9363 39.6317L48.0067 39.6233C48.173 39.6007 48.3392 39.5697 48.5055 39.5416C49.1818 40.2178 49.8158 40.9589 50.3878 41.7507C53.3465 45.845 54.4624 50.8354 53.5268 55.8061L53.5297 55.8032ZM61.5661 27.3854C59.4133 31.9588 55.5923 35.3374 50.8048 36.8984C49.8158 37.2225 48.8042 37.4564 47.7982 37.6001L47.7193 37.6113C46.5584 37.7776 45.3918 37.8255 44.2365 37.7635L42.1372 37.5268C39.8942 37.1351 37.7329 36.3208 35.7717 35.1119C36.7016 34.9428 37.561 34.5117 38.2542 33.8552C39.1672 32.9788 39.6716 31.8122 39.6716 30.5696C39.6716 28.0251 37.5216 25.954 34.8813 25.954H25.5909L24.9991 24.8719C24.1961 23.2968 23.6269 21.6173 23.3113 19.859L23.2944 19.766C23.114 18.7431 23.021 17.6808 23.021 16.6044C23.021 11.5436 25.0358 6.84627 28.699 3.37471C30.5841 1.58257 33.5428 1.57974 35.4336 3.36907C39.0939 6.84345 41.1115 11.5436 41.1115 16.6016C41.1115 17.678 41.0185 18.7403 40.8382 19.7632L40.4747 21.8118L42.3119 20.834C43.2446 20.338 44.2224 19.921 45.2227 19.5941C50.0074 18.0331 55.071 18.5093 59.4837 20.9326C61.7662 22.1865 62.682 25.0213 61.5689 27.3854H61.5661Z" fill="var(--fill-0, white)"/>
</g>
</svg>
