<svg width="549" height="220" viewBox="0 0 549 220" fill="none" xmlns="http://www.w3.org/2000/svg">
<path d="M214.548 67.9862C197.128 58.4162 177.138 56.5462 158.248 62.7062C156.428 63.2962 154.628 63.9662 152.848 64.7062C152.998 62.7862 153.078 60.8563 153.078 58.9163C153.078 38.9763 145.128 20.4362 130.688 6.73624C121.198 -2.25376 106.348 -2.24374 96.8877 6.75626C82.4477 20.4363 74.4977 38.9663 74.4977 58.9163C74.4977 60.8963 74.5778 62.8663 74.7378 64.8163C72.8878 64.0363 70.9977 63.3262 69.0977 62.7062C50.2077 56.5462 30.2178 58.4263 12.7978 67.9963C1.38775 74.2763 -3.20225 88.4463 2.35775 100.256C10.8477 118.296 25.9277 131.626 44.8177 137.796C47.8077 138.776 50.8677 139.556 53.9277 140.116C52.8977 141.356 51.8877 142.626 50.9377 143.956C39.2677 160.096 34.8777 179.786 38.5577 199.376C40.9677 212.236 52.9677 220.986 65.8877 219.336C85.5777 216.786 102.848 206.496 114.528 190.356C115.678 188.756 116.758 187.126 117.758 185.466C118.728 187.016 119.828 188.636 121.068 190.356C132.738 206.496 150.008 216.786 169.698 219.336C170.758 219.476 171.808 219.536 172.848 219.536C184.518 219.536 194.818 211.176 197.028 199.376C200.708 179.776 196.308 160.096 184.648 143.956C183.268 142.056 181.798 140.226 180.268 138.486C181.028 138.266 181.778 138.046 182.528 137.796C201.418 131.636 216.498 118.306 224.988 100.256C230.548 88.4363 225.958 74.2662 214.548 67.9862ZM189.968 198.036C188.258 207.146 179.768 213.386 170.628 212.186C152.928 209.896 137.398 200.636 126.908 186.136C124.268 182.466 122.378 179.386 120.968 176.436L117.728 169.696L114.488 176.436C112.908 179.726 110.958 182.986 108.698 186.126C98.1977 200.636 82.6677 209.896 64.9677 212.186C55.8477 213.376 47.3277 207.156 45.6277 198.036C42.3177 180.396 46.2677 162.686 56.7677 148.156C58.9777 145.106 61.4077 142.286 63.9977 139.766C66.4977 137.796 72.7577 133.246 77.4577 131.186C82.8177 148.626 99.1577 160.906 117.698 160.906C126.088 160.906 134.198 158.446 141.138 153.796C143.748 152.046 146.118 150.036 148.238 147.806L139.458 146.116C138.708 146.716 137.938 147.286 137.138 147.816C131.388 151.676 124.668 153.716 117.708 153.716C101.228 153.716 86.8477 142.016 83.5277 125.906L82.7978 122.386L78.2978 123.316C71.7578 124.916 62.6677 131.706 60.0377 133.746C59.3877 133.676 58.7177 133.586 58.0177 133.486L57.7277 133.446C54.1477 132.936 50.5677 132.096 47.0577 130.956C30.0677 125.416 16.5077 113.426 8.87771 97.1963C4.92771 88.8063 8.17773 78.7463 16.2777 74.2963C31.9377 65.6963 49.9077 64.0063 66.8877 69.5463C69.9977 70.5563 73.0377 71.8363 75.9777 73.3163C77.7277 81.9963 81.0178 90.1763 85.7978 97.6363L86.8577 99.2962H123.788C129.198 99.2962 133.598 103.426 133.598 108.486C133.598 110.916 132.598 113.216 130.798 114.936C128.928 116.716 126.438 117.696 123.788 117.696H106.698L114.018 124.016C123.198 131.936 134.098 137.276 145.648 139.746L153.528 140.976C155.808 141.196 158.088 141.326 160.388 141.326C163.618 141.326 166.868 141.106 170.118 140.646L170.368 140.616C170.958 140.536 171.548 140.426 172.138 140.326C174.538 142.726 176.788 145.356 178.818 148.166C189.318 162.696 193.278 180.406 189.958 198.046L189.968 198.036ZM218.488 97.1863C210.848 113.416 197.288 125.406 180.298 130.946C176.788 132.096 173.198 132.926 169.628 133.436L169.348 133.476C165.228 134.066 161.088 134.236 156.988 134.016L149.538 133.176C141.578 131.786 133.908 128.896 126.948 124.606C130.248 124.006 133.298 122.476 135.758 120.146C138.998 117.036 140.788 112.896 140.788 108.486C140.788 99.4562 133.158 92.1063 123.788 92.1063H90.8177L88.7177 88.2663C85.8677 82.6763 83.8477 76.7163 82.7277 70.4763L82.6677 70.1462C82.0277 66.5162 81.6977 62.7462 81.6977 58.9262C81.6977 40.9662 88.8477 24.2963 101.848 11.9763C108.538 5.61627 119.038 5.60625 125.748 11.9562C138.738 24.2862 145.898 40.9663 145.898 58.9163C145.898 62.7363 145.568 66.5063 144.928 70.1363L143.638 77.4063L150.158 73.9363C153.468 72.1763 156.938 70.6963 160.488 69.5363C177.468 63.9963 195.438 65.6863 211.098 74.2863C219.198 78.7363 222.448 88.7963 218.498 97.1863H218.488Z" fill="white"/>
<path d="M118.008 73.3063C110.288 73.3063 102.928 75.3763 96.5278 79.1863L101.258 84.7963C106.308 82.0263 112.028 80.5063 118.008 80.5063C137.268 80.5063 152.938 96.1763 152.938 115.436C152.938 117.926 152.668 120.366 152.168 122.746L159.328 123.596C159.848 120.936 160.138 118.206 160.138 115.436C160.138 92.2063 141.238 73.3163 118.018 73.3163L118.008 73.3063Z" fill="white"/>
<path d="M214.548 67.9862C197.128 58.4162 177.138 56.5462 158.248 62.7062C156.428 63.2962 154.628 63.9662 152.848 64.7062C152.998 62.7862 153.078 60.8563 153.078 58.9163C153.078 38.9763 145.128 20.4362 130.688 6.73624C121.198 -2.25376 106.348 -2.24374 96.8877 6.75626C82.4477 20.4363 74.4977 38.9663 74.4977 58.9163C74.4977 60.8963 74.5778 62.8663 74.7378 64.8163C72.8878 64.0363 70.9977 63.3262 69.0977 62.7062C50.2077 56.5462 30.2178 58.4263 12.7978 67.9963C1.38775 74.2763 -3.20225 88.4463 2.35775 100.256C10.8477 118.296 25.9277 131.626 44.8177 137.796C47.8077 138.776 50.8677 139.556 53.9277 140.116C52.8977 141.356 51.8877 142.626 50.9377 143.956C39.2677 160.096 34.8777 179.786 38.5577 199.376C40.9677 212.236 52.9677 220.986 65.8877 219.336C85.5777 216.786 102.848 206.496 114.528 190.356C115.678 188.756 116.758 187.126 117.758 185.466C118.728 187.016 119.828 188.636 121.068 190.356C132.738 206.496 150.008 216.786 169.698 219.336C170.758 219.476 171.808 219.536 172.848 219.536C184.518 219.536 194.818 211.176 197.028 199.376C200.708 179.776 196.308 160.096 184.648 143.956C183.268 142.056 181.798 140.226 180.268 138.486C181.028 138.266 181.778 138.046 182.528 137.796C201.418 131.636 216.498 118.306 224.988 100.256C230.548 88.4363 225.958 74.2662 214.548 67.9862ZM189.968 198.036C188.258 207.146 179.768 213.386 170.628 212.186C152.928 209.896 137.398 200.636 126.908 186.136C124.268 182.466 122.378 179.386 120.968 176.436L117.728 169.696L114.488 176.436C112.908 179.726 110.958 182.986 108.698 186.126C98.1977 200.636 82.6677 209.896 64.9677 212.186C55.8477 213.376 47.3277 207.156 45.6277 198.036C42.3177 180.396 46.2677 162.686 56.7677 148.156C58.9777 145.106 61.4077 142.286 63.9977 139.766C66.4977 137.796 72.7577 133.246 77.4577 131.186C82.8177 148.626 99.1577 160.906 117.698 160.906C126.088 160.906 134.198 158.446 141.138 153.796C143.748 152.046 146.118 150.036 148.238 147.806L139.458 146.116C138.708 146.716 137.938 147.286 137.138 147.816C131.388 151.676 124.668 153.716 117.708 153.716C101.228 153.716 86.8477 142.016 83.5277 125.906L82.7978 122.386L78.2978 123.316C71.7578 124.916 62.6677 131.706 60.0377 133.746C59.3877 133.676 58.7177 133.586 58.0177 133.486L57.7277 133.446C54.1477 132.936 50.5677 132.096 47.0577 130.956C30.0677 125.416 16.5077 113.426 8.87771 97.1963C4.92771 88.8063 8.17773 78.7463 16.2777 74.2963C31.9377 65.6963 49.9077 64.0063 66.8877 69.5463C69.9977 70.5563 73.0377 71.8363 75.9777 73.3163C77.7277 81.9963 81.0178 90.1763 85.7978 97.6363L86.8577 99.2962H123.788C129.198 99.2962 133.598 103.426 133.598 108.486C133.598 110.916 132.598 113.216 130.798 114.936C128.928 116.716 126.438 117.696 123.788 117.696H106.698L114.018 124.016C123.198 131.936 134.098 137.276 145.648 139.746L153.528 140.976C155.808 141.196 158.088 141.326 160.388 141.326C163.618 141.326 166.868 141.106 170.118 140.646L170.368 140.616C170.958 140.536 171.548 140.426 172.138 140.326C174.538 142.726 176.788 145.356 178.818 148.166C189.318 162.696 193.278 180.406 189.958 198.046L189.968 198.036ZM218.488 97.1863C210.848 113.416 197.288 125.406 180.298 130.946C176.788 132.096 173.198 132.926 169.628 133.436L169.348 133.476C165.228 134.066 161.088 134.236 156.988 134.016L149.538 133.176C141.578 131.786 133.908 128.896 126.948 124.606C130.248 124.006 133.298 122.476 135.758 120.146C138.998 117.036 140.788 112.896 140.788 108.486C140.788 99.4562 133.158 92.1063 123.788 92.1063H90.8177L88.7177 88.2663C85.8677 82.6763 83.8477 76.7163 82.7277 70.4763L82.6677 70.1462C82.0277 66.5162 81.6977 62.7462 81.6977 58.9262C81.6977 40.9662 88.8477 24.2963 101.848 11.9763C108.538 5.61627 119.038 5.60625 125.748 11.9562C138.738 24.2862 145.898 40.9663 145.898 58.9163C145.898 62.7363 145.568 66.5063 144.928 70.1363L143.638 77.4063L150.158 73.9363C153.468 72.1763 156.938 70.6963 160.488 69.5363C177.468 63.9963 195.438 65.6863 211.098 74.2863C219.198 78.7363 222.448 88.7963 218.498 97.1863H218.488Z" fill="white"/>
<path d="M263.345 85.3731V18.2231H309.315V30.3931H277.315V47.4331H304.805V59.6031H277.315V85.3831H263.345V85.3731Z" fill="white"/>
<path d="M313.635 85.3731V17.1331H327.155V85.3731H313.635Z" fill="white"/>
<path d="M359.885 86.4531C355.015 86.4531 350.585 85.3431 346.585 83.1231C342.585 80.9031 339.405 77.8431 337.025 73.9731C334.655 70.1031 333.465 65.6931 333.465 60.7631C333.465 55.8331 334.655 51.3631 337.025 47.5131C339.395 43.6631 342.585 40.6331 346.585 38.4131C350.575 36.1931 355.015 35.0731 359.885 35.0731C364.755 35.0731 369.165 36.1831 373.135 38.4131C377.105 40.6331 380.265 43.6731 382.645 47.5131C385.015 51.3631 386.205 55.7731 386.205 60.7631C386.205 65.7531 385.015 70.0931 382.645 73.9731C380.265 77.8431 377.105 80.9031 373.135 83.1231C369.165 85.3431 364.755 86.4531 359.885 86.4531ZM359.885 74.2831C362.345 74.2831 364.495 73.7131 366.325 72.5731C368.155 71.4331 369.605 69.8331 370.655 67.7931C371.705 65.7531 372.225 63.4031 372.225 60.7631C372.225 58.1231 371.695 55.7931 370.655 53.7831C369.605 51.7731 368.155 50.1731 366.325 49.0031C364.485 47.8331 362.345 47.2431 359.885 47.2431C357.425 47.2431 355.255 47.8231 353.395 49.0031C351.535 50.1731 350.075 51.7631 349.025 53.7831C347.975 55.7931 347.445 58.1231 347.445 60.7631C347.445 63.4031 347.975 65.7531 349.025 67.7931C350.075 69.8331 351.535 71.4331 353.395 72.5731C355.255 73.7131 357.415 74.2831 359.885 74.2831Z" fill="white"/>
<path d="M402.895 85.3731L385.945 36.1631H399.915L411.815 71.6731L406.945 71.5831L420.195 36.1631H431.915L445.075 71.5831L440.205 71.6731L452.105 36.1631H466.165L449.135 85.3731H437.415L423.715 47.3331H428.405L414.615 85.3731H402.895Z" fill="white"/>
<path d="M491.605 86.4531C486.375 86.4531 481.835 85.2931 477.995 82.9831C474.145 80.6731 471.175 77.5631 469.075 73.6531C466.975 69.7531 465.925 65.4231 465.925 60.6731C465.925 55.9231 467.025 51.3631 469.215 47.5131C471.405 43.6631 474.365 40.6331 478.095 38.4131C481.825 36.1931 486.025 35.0731 490.715 35.0731C494.625 35.0731 498.075 35.6931 501.085 36.9231C504.095 38.1531 506.625 39.8831 508.705 42.1031C510.775 44.3231 512.355 46.8931 513.435 49.8131C514.515 52.7231 515.055 55.8931 515.055 59.3231C515.055 60.2831 515.015 61.2331 514.925 62.1631C514.835 63.0931 514.675 63.8931 514.435 64.5531H477.565V54.6331H506.775L500.375 59.3231C500.975 56.7431 500.945 54.4431 500.285 52.4231C499.625 50.4131 498.465 48.8131 496.815 47.6431C495.165 46.4731 493.135 45.8831 490.735 45.8831C488.335 45.8831 486.375 46.4531 484.695 47.5931C483.015 48.7331 481.745 50.4231 480.905 52.6431C480.065 54.8631 479.735 57.5731 479.915 60.7531C479.675 63.5131 480.005 65.9531 480.905 68.0531C481.805 70.1531 483.185 71.7931 485.055 72.9631C486.915 74.1331 489.165 74.7231 491.815 74.7231C494.225 74.7231 496.275 74.2431 497.985 73.2831C499.695 72.3231 501.035 70.9931 501.995 69.3131L512.815 74.4531C511.855 76.8531 510.335 78.9631 508.265 80.7631C506.185 82.5631 503.745 83.9631 500.915 84.9531C498.085 85.9431 494.995 86.4431 491.635 86.4431L491.605 86.4531Z" fill="white"/>
<path d="M519.545 85.3731V36.1631H532.166V47.9731L531.266 46.2631C532.346 42.1131 534.135 39.3131 536.635 37.8331C539.125 36.3631 542.086 35.6231 545.516 35.6231H548.396V47.3431H544.156C540.846 47.3431 538.175 48.3531 536.135 50.3631C534.095 52.3731 533.065 55.2131 533.065 58.8831V85.3831H519.545V85.3731Z" fill="white"/>
<path d="M263.345 163.193V96.0431H289.035C293.665 96.0431 297.765 96.8531 301.335 98.4731C304.905 100.093 307.725 102.503 309.765 105.683C311.805 108.873 312.835 112.803 312.835 117.493C312.835 122.183 311.785 125.953 309.675 129.163C307.575 132.373 304.745 134.793 301.205 136.423L316.525 163.193H300.845L284.265 133.533L293.275 138.853H277.325V163.193H263.355H263.345ZM277.315 126.693H289.125C291.105 126.693 292.825 126.303 294.265 125.523C295.705 124.743 296.835 123.663 297.645 122.273C298.455 120.893 298.865 119.303 298.865 117.503C298.865 115.703 298.455 114.013 297.645 112.633C296.835 111.253 295.705 110.173 294.265 109.383C292.825 108.603 291.105 108.213 289.125 108.213H277.315V126.693Z" fill="white"/>
<path d="M335.706 164.273C332.166 164.273 329.096 163.703 326.516 162.563C323.936 161.423 321.946 159.783 320.566 157.653C319.186 155.523 318.496 152.983 318.496 150.033C318.496 147.273 319.126 144.823 320.386 142.683C321.646 140.553 323.586 138.763 326.196 137.313C328.816 135.873 332.066 134.853 335.976 134.253L351.026 131.823V141.743L338.406 143.993C336.476 144.353 335.006 144.973 333.986 145.843C332.966 146.713 332.456 147.963 332.456 149.583C332.456 151.093 333.026 152.263 334.166 153.103C335.306 153.943 336.716 154.363 338.406 154.363C340.626 154.363 342.586 153.883 344.266 152.923C345.946 151.963 347.256 150.653 348.186 149.003C349.116 147.353 349.586 145.533 349.586 143.553V130.753C349.586 128.893 348.846 127.333 347.376 126.063C345.906 124.803 343.906 124.173 341.386 124.173C338.866 124.173 336.866 124.833 335.026 126.153C333.196 127.473 331.856 129.213 331.016 131.383L320.196 126.243C321.156 123.483 322.686 121.103 324.796 119.123C326.896 117.143 329.426 115.603 332.366 114.523C335.306 113.443 338.526 112.893 342.006 112.893C346.156 112.893 349.816 113.643 353.006 115.153C356.186 116.653 358.666 118.743 360.436 121.413C362.206 124.083 363.096 127.203 363.096 130.743V163.193H350.476V155.263L353.546 154.723C352.106 156.883 350.506 158.673 348.766 160.083C347.016 161.493 345.066 162.543 342.906 163.233C340.746 163.923 338.336 164.273 335.696 164.273H335.706Z" fill="white"/>
<path d="M369.865 163.193V113.983H382.485V123.713L381.766 121.553C382.906 118.603 384.755 116.433 387.305 115.013C389.855 113.603 392.846 112.893 396.276 112.893C400.006 112.893 403.265 113.673 406.055 115.233C408.845 116.793 411.025 118.973 412.585 121.773C414.145 124.563 414.925 127.833 414.925 131.553V163.193H401.406V134.433C401.406 132.513 401.036 130.863 400.286 129.473C399.536 128.093 398.485 127.013 397.125 126.223C395.775 125.443 394.196 125.053 392.396 125.053C390.596 125.053 389.085 125.443 387.705 126.223C386.325 127.003 385.255 128.083 384.505 129.473C383.755 130.863 383.375 132.513 383.375 134.433V163.193H369.855H369.865Z" fill="white"/>
<path d="M446.596 164.273C441.666 164.273 437.236 163.153 433.296 160.893C429.356 158.643 426.236 155.563 423.926 151.653C421.616 147.743 420.456 143.363 420.456 138.493C420.456 133.623 421.596 129.253 423.876 125.373C426.156 121.503 429.286 118.453 433.246 116.223C437.206 113.993 441.656 112.883 446.586 112.883C450.246 112.883 453.646 113.513 456.766 114.773C459.896 116.033 462.566 117.793 464.796 120.053C467.016 122.303 468.606 124.963 469.566 128.023L457.856 133.073C457.006 130.613 455.586 128.653 453.576 127.213C451.566 125.773 449.236 125.053 446.596 125.053C444.256 125.053 442.166 125.623 440.326 126.763C438.496 127.903 437.046 129.493 436.006 131.533C434.956 133.583 434.426 135.923 434.426 138.563C434.426 141.203 434.956 143.553 436.006 145.593C437.056 147.633 438.496 149.233 440.326 150.373C442.156 151.513 444.246 152.083 446.596 152.083C449.296 152.083 451.646 151.363 453.626 149.923C455.606 148.483 457.016 146.523 457.866 144.063L469.576 149.203C468.676 152.083 467.116 154.673 464.896 156.953C462.676 159.233 459.996 161.023 456.866 162.313C453.746 163.603 450.316 164.253 446.596 164.253V164.273Z" fill="white"/>
<path d="M475.615 163.193V94.9531H489.135V123.713L487.516 121.553C488.656 118.603 490.505 116.433 493.055 115.013C495.605 113.603 498.596 112.893 502.026 112.893C505.756 112.893 509.015 113.673 511.805 115.233C514.595 116.793 516.775 118.973 518.335 121.773C519.895 124.563 520.675 127.833 520.675 131.553V163.193H507.156V134.433C507.156 132.513 506.786 130.863 506.036 129.473C505.286 128.093 504.235 127.013 502.875 126.223C501.525 125.443 499.946 125.053 498.146 125.053C496.346 125.053 494.835 125.443 493.455 126.223C492.075 127.003 491.005 128.083 490.255 129.473C489.505 130.863 489.125 132.513 489.125 134.433V163.193H475.605H475.615Z" fill="white"/>
<path d="M264.335 202.046V181.168H268.681V190.191H276.806V181.168H281.151V202.046H276.806V193.971H268.681V202.046H264.335Z" fill="white"/>
<path d="M289.017 202.379C287.91 202.379 286.962 202.206 286.161 201.849C285.361 201.492 284.746 200.987 284.315 200.323C283.884 199.658 283.675 198.87 283.675 197.959C283.675 197.097 283.872 196.334 284.266 195.669C284.66 195.005 285.263 194.451 286.075 194.008C286.888 193.564 287.897 193.244 289.116 193.06L293.794 192.296V195.374L289.867 196.076C289.264 196.186 288.808 196.383 288.488 196.654C288.168 196.925 288.008 197.319 288.008 197.811C288.008 198.279 288.18 198.649 288.537 198.907C288.894 199.166 289.338 199.301 289.855 199.301C290.544 199.301 291.147 199.153 291.676 198.858C292.193 198.562 292.6 198.156 292.895 197.639C293.191 197.122 293.326 196.556 293.326 195.94V191.964C293.326 191.385 293.092 190.893 292.637 190.511C292.181 190.118 291.553 189.921 290.778 189.921C290.002 189.921 289.374 190.13 288.808 190.536C288.242 190.942 287.823 191.484 287.565 192.161L284.204 190.561C284.5 189.699 284.98 188.96 285.632 188.345C286.285 187.729 287.072 187.249 287.983 186.917C288.894 186.585 289.904 186.412 290.987 186.412C292.28 186.412 293.412 186.646 294.409 187.114C295.394 187.582 296.17 188.234 296.724 189.059C297.278 189.896 297.548 190.856 297.548 191.964V202.058H293.621V199.596L294.569 199.424C294.126 200.101 293.621 200.655 293.08 201.098C292.538 201.541 291.935 201.861 291.258 202.083C290.581 202.292 289.842 202.403 289.017 202.403V202.379ZM286.248 183.544V180.183H295.776V183.544H286.248Z" fill="white"/>
<path d="M300.368 202.046V186.745H304.295V190.475L303.876 189.859C304.098 188.677 304.639 187.815 305.501 187.249C306.363 186.683 307.384 186.412 308.578 186.412C309.846 186.412 310.967 186.732 311.927 187.385C312.887 188.025 313.49 188.899 313.736 189.982L312.53 190.093C313.035 188.837 313.749 187.914 314.684 187.323C315.62 186.72 316.715 186.424 317.959 186.424C319.067 186.424 320.039 186.671 320.889 187.151C321.738 187.643 322.403 188.32 322.895 189.182C323.375 190.056 323.622 191.065 323.622 192.223V202.058H319.411V193.121C319.411 192.518 319.301 192.013 319.091 191.582C318.882 191.152 318.574 190.819 318.18 190.573C317.786 190.327 317.306 190.204 316.752 190.204C316.198 190.204 315.743 190.327 315.337 190.573C314.93 190.819 314.623 191.152 314.413 191.582C314.204 192.013 314.093 192.53 314.093 193.121V202.058H309.883V193.121C309.883 192.518 309.773 192.013 309.563 191.582C309.354 191.152 309.046 190.819 308.652 190.573C308.258 190.327 307.778 190.204 307.224 190.204C306.67 190.204 306.215 190.327 305.809 190.573C305.402 190.819 305.095 191.152 304.885 191.582C304.676 192.013 304.565 192.53 304.565 193.121V202.058H300.355L300.368 202.046Z" fill="white"/>
<path d="M330.872 202.379C329.764 202.379 328.816 202.206 328.016 201.849C327.216 201.492 326.601 200.987 326.17 200.323C325.739 199.658 325.53 198.87 325.53 197.959C325.53 197.097 325.726 196.334 326.12 195.669C326.514 195.005 327.118 194.451 327.93 194.008C328.743 193.564 329.752 193.244 330.971 193.06L335.648 192.296V195.374L331.722 196.076C331.118 196.186 330.663 196.383 330.343 196.654C330.023 196.925 329.863 197.319 329.863 197.811C329.863 198.279 330.035 198.649 330.392 198.907C330.749 199.166 331.192 199.301 331.709 199.301C332.399 199.301 333.002 199.153 333.531 198.858C334.048 198.562 334.454 198.156 334.75 197.639C335.045 197.122 335.181 196.556 335.181 195.94V191.964C335.181 191.385 334.947 190.893 334.491 190.511C334.036 190.118 333.408 189.921 332.633 189.921C331.857 189.921 331.229 190.13 330.663 190.536C330.097 190.942 329.678 191.484 329.42 192.161L326.059 190.561C326.354 189.699 326.834 188.96 327.487 188.345C328.139 187.729 328.927 187.249 329.838 186.917C330.749 186.585 331.759 186.412 332.842 186.412C334.134 186.412 335.267 186.646 336.264 187.114C337.249 187.582 338.024 188.234 338.578 189.059C339.132 189.896 339.403 190.856 339.403 191.964V202.058H335.476V199.596L336.424 199.424C335.981 200.101 335.476 200.655 334.935 201.098C334.393 201.541 333.79 201.861 333.113 202.083C332.436 202.292 331.697 202.403 330.872 202.403V202.379ZM328.09 183.544V180.183H337.618V183.544H328.09Z" fill="white"/>
<path d="M342.21 202.046V180.823H346.42V194.414L344.844 193.909L351.602 186.732H356.785L351.233 192.9L356.76 202.034H351.996L347.368 194.266L349.805 193.651L345.127 198.747L346.42 196.31V202.021H342.21V202.046Z" fill="white"/>
<path d="M363.642 202.378C362.411 202.378 361.352 202.108 360.49 201.578C359.629 201.049 358.964 200.298 358.509 199.35C358.065 198.402 357.832 197.282 357.832 196.014V186.732H362.042V195.669C362.042 196.248 362.152 196.753 362.399 197.196C362.632 197.639 362.965 197.971 363.396 198.218C363.826 198.464 364.307 198.587 364.848 198.587C365.39 198.587 365.895 198.464 366.325 198.218C366.744 197.971 367.076 197.639 367.31 197.196C367.544 196.753 367.655 196.248 367.655 195.669V186.732H371.865V202.034H367.938V199.005L368.16 199.683C367.803 200.593 367.224 201.271 366.436 201.714C365.636 202.157 364.713 202.378 363.642 202.378Z" fill="white"/>
<path d="M379.202 202.378C378.094 202.378 377.146 202.206 376.346 201.849C375.546 201.492 374.93 200.987 374.5 200.323C374.069 199.658 373.859 198.87 373.859 197.959C373.859 197.097 374.056 196.334 374.45 195.669C374.844 195.005 375.447 194.451 376.26 194.008C377.072 193.564 378.082 193.244 379.301 193.06L383.978 192.296V195.374L380.051 196.076C379.448 196.186 378.993 196.383 378.673 196.654C378.353 196.925 378.193 197.319 378.193 197.811C378.193 198.279 378.365 198.648 378.722 198.907C379.079 199.166 379.522 199.301 380.039 199.301C380.728 199.301 381.332 199.153 381.861 198.858C382.378 198.562 382.784 198.156 383.08 197.639C383.375 197.122 383.511 196.556 383.511 195.94V191.964C383.511 191.385 383.277 190.893 382.821 190.511C382.366 190.118 381.738 189.921 380.962 189.921C380.187 189.921 379.559 190.13 378.993 190.536C378.427 190.942 378.008 191.484 377.749 192.161L374.389 190.561C374.684 189.699 375.164 188.96 375.817 188.345C376.469 187.729 377.257 187.249 378.168 186.917C379.079 186.584 380.088 186.412 381.172 186.412C382.464 186.412 383.597 186.646 384.594 187.114C385.579 187.582 386.354 188.234 386.908 189.059C387.462 189.896 387.733 190.856 387.733 191.964V202.058H383.806V199.596L384.754 199.424C384.311 200.101 383.806 200.655 383.264 201.098C382.723 201.541 382.12 201.861 381.443 202.083C380.765 202.292 380.027 202.403 379.202 202.403V202.378Z" fill="white"/>
<path d="M395.033 202.046V181.168H399.378V190.191H407.503V181.168H411.849V202.046H407.503V193.971H399.378V202.046H395.033Z" fill="white"/>
<path d="M419.641 202.378C418.533 202.378 417.585 202.206 416.785 201.849C415.985 201.492 415.369 200.987 414.939 200.323C414.508 199.658 414.299 198.87 414.299 197.959C414.299 197.097 414.496 196.334 414.889 195.669C415.283 195.005 415.887 194.451 416.699 194.008C417.511 193.564 418.521 193.244 419.74 193.06L424.418 192.296V195.374L420.491 196.076C419.887 196.186 419.432 196.383 419.112 196.654C418.792 196.925 418.632 197.319 418.632 197.811C418.632 198.279 418.804 198.648 419.161 198.907C419.518 199.166 419.961 199.301 420.478 199.301C421.168 199.301 421.771 199.153 422.3 198.858C422.817 198.562 423.223 198.156 423.519 197.639C423.814 197.122 423.95 196.556 423.95 195.94V191.964C423.95 191.385 423.716 190.893 423.26 190.511C422.805 190.118 422.177 189.921 421.401 189.921C420.626 189.921 419.998 190.13 419.432 190.536C418.866 190.942 418.447 191.484 418.189 192.161L414.828 190.561C415.123 189.699 415.603 188.96 416.256 188.345C416.908 187.729 417.696 187.249 418.607 186.917C419.518 186.584 420.527 186.412 421.611 186.412C422.903 186.412 424.036 186.646 425.033 187.114C426.018 187.582 426.793 188.234 427.347 189.059C427.901 189.896 428.172 190.856 428.172 191.964V202.058H424.245V199.596L425.193 199.424C424.75 200.101 424.245 200.655 423.703 201.098C423.162 201.541 422.559 201.861 421.882 202.083C421.205 202.292 420.466 202.403 419.641 202.403V202.378Z" fill="white"/>
<path d="M434.143 202.046L428.874 186.745H433.219L436.925 197.787L435.41 197.762L439.534 186.745H443.178L447.265 197.762L445.751 197.787L449.456 186.745H453.827L448.533 202.046H444.889L440.63 190.216H442.083L437.799 202.046H434.155H434.143Z" fill="white"/>
<path d="M459.243 202.378C458.135 202.378 457.187 202.206 456.387 201.849C455.587 201.492 454.971 200.987 454.541 200.323C454.11 199.658 453.9 198.87 453.9 197.959C453.9 197.097 454.097 196.334 454.491 195.669C454.885 195.005 455.488 194.451 456.301 194.008C457.113 193.564 458.123 193.244 459.342 193.06L464.019 192.296V195.374L460.092 196.076C459.489 196.186 459.034 196.383 458.714 196.654C458.394 196.925 458.234 197.319 458.234 197.811C458.234 198.279 458.406 198.648 458.763 198.907C459.12 199.166 459.563 199.301 460.08 199.301C460.77 199.301 461.373 199.153 461.902 198.858C462.419 198.562 462.825 198.156 463.121 197.639C463.416 197.122 463.552 196.556 463.552 195.94V191.964C463.552 191.385 463.318 190.893 462.862 190.511C462.407 190.118 461.779 189.921 461.003 189.921C460.228 189.921 459.6 190.13 459.034 190.536C458.468 190.942 458.049 191.484 457.79 192.161L454.43 190.561C454.725 189.699 455.205 188.96 455.858 188.345C456.51 187.729 457.298 187.249 458.209 186.917C459.12 186.584 460.129 186.412 461.213 186.412C462.505 186.412 463.638 186.646 464.635 187.114C465.62 187.582 466.395 188.234 466.949 189.059C467.503 189.896 467.774 190.856 467.774 191.964V202.058H463.847V199.596L464.795 199.424C464.352 200.101 463.847 200.655 463.305 201.098C462.764 201.541 462.161 201.861 461.484 202.083C460.806 202.292 460.068 202.403 459.243 202.403V202.378Z" fill="white"/>
<path d="M470.445 185.366V181.156H474.655V185.366H470.445ZM470.445 202.046V186.745H474.655V202.046H470.445Z" fill="white"/>
<path d="M478.25 189.379V186.941C478.25 185.304 478.656 183.95 479.456 182.891C480.257 181.833 481.451 181.143 483.014 180.836V182.941C482.362 183.088 481.82 183.372 481.401 183.765C480.983 184.172 480.7 184.639 480.577 185.181H482.46V189.391H478.25V189.379Z" fill="white"/>
<path d="M486.264 185.366V181.156H490.474V185.366H486.264ZM486.264 202.046V186.745H490.474V202.046H486.264Z" fill="white"/>
</svg>
