<svg preserveAspectRatio="none" width="100%" height="100%" overflow="visible" style="display: block;" viewBox="0 0 72.5112 19.5332" fill="none" xmlns="http://www.w3.org/2000/svg">
<g id="Group">
<path id="Vector" d="M8.25996e-06 19.2289V0.307139H7.23901C8.54367 0.307139 9.69897 0.535381 10.7049 0.991869C11.7109 1.44836 12.5055 2.12746 13.0804 3.02353C13.6552 3.92242 13.9454 5.02983 13.9454 6.35139C13.9454 7.67295 13.6496 8.73527 13.055 9.63979C12.4633 10.5443 11.6658 11.2262 10.6683 11.6855L14.9852 19.2289H10.5669L5.8949 10.8712L8.43377 12.3703H3.93933V19.2289H0.00282884H8.25996e-06ZM3.93653 8.94379H7.26438C7.82231 8.94379 8.30696 8.8339 8.71273 8.61411C9.1185 8.39432 9.43692 8.09 9.66516 7.69832C9.8934 7.30946 10.0089 6.86142 10.0089 6.35421C10.0089 5.847 9.8934 5.37079 9.66516 4.98193C9.43692 4.59307 9.1185 4.28874 8.71273 4.06613C8.30696 3.84634 7.82231 3.73645 7.26438 3.73645H3.93653V8.94379Z" fill="var(--fill-0, white)"/>
<path id="Vector_2" d="M20.3898 19.5332C19.3923 19.5332 18.5272 19.3726 17.8002 19.0513C17.0732 18.7301 16.5125 18.268 16.1236 17.6678C15.7348 17.0676 15.5403 16.3519 15.5403 15.5206C15.5403 14.7429 15.7179 14.0525 16.0729 13.4495C16.428 12.8493 16.9746 12.3449 17.7101 11.9363C18.4483 11.5306 19.3641 11.2431 20.4659 11.0741L24.7068 10.3893V13.1846L21.1507 13.8186C20.6068 13.9201 20.1926 14.0948 19.9052 14.3399C19.6177 14.5851 19.474 14.9373 19.474 15.3938C19.474 15.8193 19.6347 16.149 19.9559 16.3857C20.2771 16.6224 20.6744 16.7407 21.1507 16.7407C21.7762 16.7407 22.3285 16.6055 22.8019 16.335C23.2753 16.0644 23.6444 15.6953 23.9065 15.2304C24.1685 14.7654 24.301 14.2526 24.301 13.6946V10.0878C24.301 9.56372 24.0925 9.12413 23.6782 8.76627C23.264 8.41122 22.7005 8.23369 21.9904 8.23369C21.2803 8.23369 20.7167 8.41967 20.1982 8.79162C19.6826 9.16357 19.305 9.65389 19.0683 10.2654L16.0194 8.81699C16.2899 8.03927 16.721 7.36862 17.3156 6.81069C17.9073 6.25276 18.6202 5.81883 19.4487 5.5145C20.2771 5.21017 21.1845 5.05519 22.1651 5.05519C23.3345 5.05519 24.3658 5.26651 25.2647 5.69201C26.1607 6.11468 26.8596 6.70361 27.3583 7.45597C27.8571 8.20833 28.1079 9.0875 28.1079 10.085V19.2289H24.5518V16.9943L25.4168 16.8422C25.0111 17.4508 24.5602 17.9552 24.0699 18.3525C23.5768 18.7498 23.0273 19.0457 22.4187 19.2401C21.81 19.4346 21.1309 19.5332 20.387 19.5332H20.3898Z" fill="var(--fill-0, white)"/>
<path id="Vector_3" d="M30.0155 19.2289V5.36233H33.5716V8.10409L33.3688 7.49543C33.69 6.66417 34.2113 6.0527 34.9298 5.65257C35.6484 5.25526 36.4909 5.05519 37.4574 5.05519C38.5085 5.05519 39.4271 5.27497 40.2132 5.71455C40.9994 6.15414 41.6137 6.76843 42.0533 7.55743C42.4929 8.3436 42.7127 9.26502 42.7127 10.3133V19.2289H38.903V11.1248C38.903 10.5838 38.7987 10.1188 38.5874 9.72714C38.376 9.33828 38.0802 9.03396 37.6969 8.81135C37.3165 8.59156 36.8713 8.48167 36.3641 8.48167C35.8569 8.48167 35.4314 8.59156 35.0425 8.81135C34.6537 9.03114 34.3522 9.33546 34.1408 9.72714C33.9295 10.1188 33.8224 10.5838 33.8224 11.1248V19.2289H30.0127H30.0155Z" fill="var(--fill-0, white)"/>
<path id="Vector_4" d="M51.6367 19.5332C50.2475 19.5332 48.9992 19.2176 47.889 18.5808C46.7788 17.9468 45.8996 17.0789 45.2487 15.9771C44.5978 14.8753 44.2709 13.6411 44.2709 12.2688C44.2709 10.8965 44.5922 9.66516 45.2346 8.57184C45.8771 7.48134 46.7591 6.62189 47.8749 5.99352C48.9908 5.36514 50.2447 5.05237 51.6339 5.05237C52.6652 5.05237 53.6233 5.2299 54.5025 5.58495C55.3845 5.93999 56.1368 6.43592 56.7652 7.07275C57.3907 7.70676 57.8388 8.45631 58.1093 9.31857L54.8096 10.7416C54.5701 10.0484 54.17 9.49609 53.6036 9.09033C53.0372 8.68456 52.3806 8.48167 51.6367 8.48167C50.9774 8.48167 50.3884 8.64229 49.87 8.96352C49.3543 9.28475 48.9457 9.73278 48.6527 10.3076C48.3568 10.8853 48.2074 11.5446 48.2074 12.2886C48.2074 13.0325 48.3568 13.6946 48.6527 14.2695C48.9485 14.8443 49.3543 15.2952 49.87 15.6164C50.3856 15.9376 50.9745 16.0983 51.6367 16.0983C52.3976 16.0983 53.0598 15.8954 53.6177 15.4896C54.1756 15.0838 54.5729 14.5315 54.8124 13.8384L58.1121 15.2867C57.8585 16.0983 57.4189 16.8281 56.7934 17.4705C56.1678 18.113 55.4126 18.6174 54.5307 18.9809C53.6515 19.3444 52.685 19.5276 51.6367 19.5276V19.5332Z" fill="var(--fill-0, white)"/>
<path id="Vector_5" d="M59.8141 19.2289V5.04439e-06H63.6238V8.10409L63.1673 7.49542C63.4885 6.66417 64.0098 6.0527 64.7284 5.65257C65.4469 5.25526 66.2895 5.05519 67.256 5.05519C68.307 5.05519 69.2256 5.27497 70.0118 5.71455C70.798 6.15414 71.4123 6.76843 71.8519 7.55743C72.2914 8.3436 72.5112 9.26502 72.5112 10.3133V19.2289H68.7015V11.1248C68.7015 10.5838 68.5973 10.1188 68.3859 9.72714C68.1746 9.33828 67.8787 9.03395 67.4955 8.81135C67.1151 8.59156 66.6699 8.48167 66.1627 8.48167C65.6555 8.48167 65.23 8.59156 64.8411 8.81135C64.4522 9.03114 64.1507 9.33546 63.9394 9.72714C63.7281 10.1188 63.621 10.5838 63.621 11.1248V19.2289H59.8113H59.8141Z" fill="var(--fill-0, white)"/>
</g>
</svg>
