<svg width="493" height="180" viewBox="0 0 493 180" fill="none" xmlns="http://www.w3.org/2000/svg">
<path d="M240.479 72.9517V13.4717H281.189V24.2517H252.849V39.3417H277.199V50.1217H252.849V72.9517H240.479Z" fill="white"/>
<path d="M285.029 72.9515V12.5215H297.009V72.9515H285.029Z" fill="white"/>
<path d="M325.979 73.9111C321.669 73.9111 317.739 72.9311 314.199 70.9611C310.659 68.9911 307.839 66.2911 305.739 62.8611C303.639 59.4311 302.589 55.5311 302.589 51.1611C302.589 46.7911 303.639 42.8312 305.739 39.4312C307.839 36.0212 310.659 33.3412 314.199 31.3712C317.739 29.4012 321.659 28.4111 325.979 28.4111C330.299 28.4111 334.199 29.4012 337.709 31.3712C341.219 33.3412 344.029 36.0312 346.129 39.4312C348.229 42.8412 349.279 46.7511 349.279 51.1611C349.279 55.5711 348.229 59.4211 346.129 62.8611C344.029 66.2911 341.219 68.9911 337.709 70.9611C334.199 72.9311 330.279 73.9111 325.979 73.9111ZM325.979 63.1312C328.159 63.1312 330.059 62.6311 331.689 61.6111C333.309 60.6011 334.589 59.1911 335.519 57.3811C336.449 55.5711 336.909 53.5012 336.909 51.1512C336.909 48.8012 336.439 46.7512 335.519 44.9612C334.589 43.1812 333.309 41.7711 331.689 40.7311C330.059 39.6911 328.159 39.1711 325.979 39.1711C323.799 39.1711 321.879 39.6911 320.229 40.7311C318.579 41.7711 317.289 43.1812 316.359 44.9612C315.429 46.7412 314.959 48.8112 314.959 51.1512C314.959 53.4912 315.429 55.5711 316.359 57.3811C317.289 59.1911 318.579 60.6011 320.229 61.6111C321.879 62.6211 323.789 63.1312 325.979 63.1312Z" fill="white"/>
<path d="M364.069 72.9514L349.059 29.3613H361.429L371.969 60.8113L367.659 60.7313L379.389 29.3613H389.769L401.429 60.7313L397.119 60.8113L407.659 29.3613H420.109L405.019 72.9514H394.639L382.499 39.2613H386.649L374.439 72.9514H364.059H364.069Z" fill="white"/>
<path d="M442.649 73.9111C438.019 73.9111 433.999 72.8811 430.589 70.8411C427.179 68.7911 424.549 66.0411 422.689 62.5811C420.829 59.1211 419.899 55.2911 419.899 51.0811C419.899 46.8711 420.869 42.8312 422.809 39.4312C424.749 36.0212 427.369 33.3412 430.669 31.3712C433.969 29.4012 437.689 28.4111 441.849 28.4111C445.309 28.4111 448.369 28.9611 451.029 30.0511C453.689 31.1411 455.939 32.6711 457.779 34.6411C459.609 36.6111 461.009 38.8811 461.969 41.4711C462.929 44.0511 463.409 46.8611 463.409 49.8911C463.409 50.7411 463.369 51.5812 463.289 52.4012C463.209 53.2312 463.069 53.9311 462.849 54.5211H430.199V45.7411H456.069L450.399 49.8911C450.929 47.6011 450.899 45.5712 450.319 43.7812C449.729 42.0012 448.709 40.5911 447.239 39.5511C445.779 38.5111 443.979 37.9911 441.849 37.9911C439.719 37.9911 437.989 38.4911 436.499 39.5111C435.009 40.5211 433.889 42.0111 433.149 43.9811C432.399 45.9511 432.109 48.3511 432.269 51.1611C432.059 53.6111 432.349 55.7611 433.149 57.6311C433.949 59.4911 435.169 60.9411 436.819 61.9811C438.469 63.0211 440.459 63.5411 442.809 63.5411C444.939 63.5411 446.759 63.1212 448.279 62.2612C449.799 61.4012 450.979 60.2412 451.829 58.7512L461.409 63.3011C460.559 65.4311 459.219 67.2912 457.379 68.8912C455.539 70.4912 453.369 71.7211 450.869 72.6011C448.369 73.4811 445.629 73.9211 442.649 73.9211V73.9111Z" fill="white"/>
<path d="M467.389 72.9509V29.3609H478.569V39.8209L477.769 38.3009C478.729 34.6309 480.309 32.1409 482.519 30.8409C484.729 29.5409 487.349 28.8809 490.379 28.8809H492.929V39.2609H489.179C486.249 39.2609 483.879 40.1509 482.079 41.9409C480.269 43.7209 479.359 46.2409 479.359 49.4809V72.9509H467.379H467.389Z" fill="white"/>
<path d="M240.479 141.881V82.4014H263.229C267.329 82.4014 270.959 83.1214 274.129 84.5614C277.289 86.0014 279.789 88.1314 281.589 90.9514C283.399 93.7714 284.309 97.2614 284.309 101.411C284.309 105.561 283.379 108.901 281.509 111.751C279.649 114.601 277.149 116.741 274.009 118.181L287.579 141.891H273.689L258.999 115.631L266.979 120.341H252.849V141.891H240.479V141.881ZM252.849 109.541H263.309C265.069 109.541 266.579 109.191 267.859 108.501C269.139 107.811 270.129 106.851 270.849 105.621C271.569 104.401 271.929 102.991 271.929 101.391C271.929 99.7914 271.569 98.3014 270.849 97.0814C270.129 95.8614 269.129 94.9014 267.859 94.2014C266.579 93.5114 265.059 93.1614 263.309 93.1614H252.849V109.531V109.541Z" fill="white"/>
<path d="M304.569 142.831C301.429 142.831 298.719 142.331 296.429 141.311C294.139 140.301 292.379 138.851 291.159 136.961C289.939 135.071 289.329 132.821 289.329 130.221C289.329 127.771 289.889 125.601 291.009 123.711C292.119 121.821 293.839 120.241 296.159 118.961C298.479 117.681 301.359 116.781 304.819 116.251L318.149 114.091V122.871L306.969 124.871C305.259 125.191 303.959 125.731 303.059 126.511C302.149 127.281 301.699 128.391 301.699 129.821C301.699 131.151 302.199 132.191 303.219 132.931C304.229 133.681 305.479 134.051 306.969 134.051C308.939 134.051 310.669 133.631 312.159 132.771C313.649 131.921 314.799 130.761 315.629 129.301C316.459 127.841 316.869 126.221 316.869 124.471V113.131C316.869 111.481 316.219 110.101 314.919 108.981C313.619 107.861 311.839 107.301 309.609 107.301C307.379 107.301 305.599 107.891 303.979 109.061C302.359 110.231 301.169 111.771 300.429 113.691L290.849 109.141C291.699 106.691 293.059 104.591 294.919 102.841C296.779 101.081 299.019 99.7311 301.629 98.7711C304.239 97.8111 307.089 97.3311 310.169 97.3311C313.839 97.3311 317.089 98.0011 319.909 99.3311C322.729 100.661 324.929 102.511 326.489 104.881C328.059 107.251 328.849 110.011 328.849 113.141V141.881H317.669V134.861L320.389 134.381C319.109 136.301 317.699 137.881 316.159 139.131C314.609 140.381 312.889 141.311 310.969 141.921C309.049 142.531 306.919 142.841 304.579 142.841L304.569 142.831Z" fill="white"/>
<path d="M334.819 141.881V98.2913H345.999V106.911L345.359 104.991C346.369 102.381 348.009 100.451 350.269 99.2013C352.529 97.9513 355.179 97.3213 358.209 97.3213C361.509 97.3213 364.399 98.0112 366.869 99.4012C369.339 100.781 371.269 102.711 372.659 105.191C374.039 107.661 374.739 110.551 374.739 113.851V141.871H362.759V116.401C362.759 114.701 362.429 113.241 361.759 112.011C361.089 110.791 360.159 109.831 358.959 109.131C357.759 108.441 356.369 108.101 354.769 108.101C353.169 108.101 351.839 108.441 350.619 109.131C349.399 109.821 348.449 110.781 347.789 112.011C347.119 113.231 346.789 114.701 346.789 116.401V141.871H334.809L334.819 141.881Z" fill="white"/>
<path d="M402.779 142.831C398.419 142.831 394.489 141.831 390.999 139.841C387.509 137.841 384.749 135.121 382.699 131.661C380.649 128.201 379.629 124.311 379.629 120.001C379.629 115.691 380.639 111.821 382.659 108.381C384.679 104.951 387.449 102.251 390.959 100.281C394.469 98.3112 398.409 97.3213 402.769 97.3213C406.019 97.3213 409.019 97.8813 411.789 99.0013C414.559 100.121 416.929 101.671 418.899 103.671C420.869 105.671 422.279 108.021 423.129 110.731L412.749 115.201C411.999 113.021 410.739 111.291 408.959 110.011C407.179 108.731 405.119 108.091 402.769 108.091C400.689 108.091 398.839 108.591 397.219 109.611C395.599 110.621 394.319 112.031 393.389 113.841C392.459 115.651 391.989 117.731 391.989 120.071C391.989 122.411 392.459 124.491 393.389 126.301C394.319 128.111 395.599 129.521 397.219 130.531C398.839 131.541 400.689 132.051 402.769 132.051C405.159 132.051 407.239 131.411 408.999 130.131C410.749 128.851 411.999 127.121 412.749 124.941L423.129 129.491C422.329 132.041 420.949 134.331 418.979 136.361C417.009 138.381 414.639 139.971 411.869 141.111C409.099 142.251 406.069 142.831 402.769 142.831H402.779Z" fill="white"/>
<path d="M428.479 141.881V81.4512H440.459V106.921L439.019 105.001C440.029 102.391 441.669 100.461 443.929 99.2111C446.189 97.9611 448.839 97.3311 451.869 97.3311C455.169 97.3311 458.059 98.0211 460.529 99.4111C462.999 100.791 464.929 102.721 466.319 105.201C467.699 107.671 468.399 110.561 468.399 113.861V141.881H456.419V116.411C456.419 114.711 456.089 113.251 455.419 112.021C454.749 110.801 453.819 109.841 452.619 109.141C451.419 108.451 450.029 108.111 448.429 108.111C446.829 108.111 445.499 108.451 444.279 109.141C443.059 109.831 442.109 110.791 441.449 112.021C440.779 113.241 440.449 114.711 440.449 116.411V141.881H428.469H428.479Z" fill="white"/>
<path d="M241.359 176.341V161.321H244.489V167.811H250.339V161.321H253.469V176.341H250.339V170.531H244.489V176.341H241.359Z" fill="white"/>
<path d="M259.119 176.581C258.329 176.581 257.639 176.451 257.059 176.201C256.479 175.941 256.039 175.581 255.729 175.101C255.419 174.621 255.269 174.061 255.269 173.401C255.269 172.781 255.409 172.231 255.689 171.761C255.969 171.291 256.409 170.881 256.989 170.561C257.569 170.241 258.299 170.011 259.179 169.871L262.549 169.331V171.551L259.729 172.051C259.299 172.131 258.969 172.271 258.739 172.461C258.509 172.651 258.399 172.931 258.399 173.301C258.399 173.641 258.529 173.901 258.779 174.091C259.039 174.281 259.349 174.371 259.729 174.371C260.229 174.371 260.659 174.261 261.039 174.051C261.419 173.841 261.709 173.541 261.919 173.171C262.129 172.801 262.229 172.391 262.229 171.951V169.091C262.229 168.671 262.069 168.321 261.739 168.041C261.409 167.761 260.959 167.621 260.399 167.621C259.839 167.621 259.389 167.771 258.979 168.061C258.569 168.361 258.269 168.751 258.079 169.231L255.659 168.081C255.879 167.461 256.219 166.931 256.689 166.491C257.159 166.051 257.729 165.701 258.379 165.461C259.039 165.221 259.759 165.101 260.539 165.101C261.469 165.101 262.289 165.271 262.999 165.601C263.709 165.941 264.269 166.401 264.659 167.001C265.059 167.601 265.249 168.291 265.249 169.091V176.351H262.429V174.581L263.119 174.461C262.799 174.941 262.439 175.341 262.049 175.661C261.659 175.981 261.219 176.211 260.739 176.371C260.259 176.521 259.719 176.601 259.129 176.601L259.119 176.581ZM257.119 163.031V160.611H263.979V163.031H257.119Z" fill="white"/>
<path d="M267.279 176.341V165.331H270.099V168.011L269.799 167.571C269.959 166.721 270.349 166.101 270.969 165.691C271.589 165.291 272.329 165.081 273.189 165.081C274.099 165.081 274.909 165.311 275.599 165.781C276.289 166.241 276.729 166.871 276.899 167.641L276.029 167.721C276.389 166.821 276.909 166.151 277.579 165.721C278.249 165.291 279.039 165.071 279.939 165.071C280.729 165.071 281.439 165.241 282.049 165.591C282.659 165.941 283.139 166.431 283.489 167.051C283.839 167.671 284.009 168.401 284.009 169.241V176.321H280.989V169.891C280.989 169.461 280.909 169.091 280.759 168.781C280.609 168.471 280.389 168.231 280.109 168.051C279.829 167.881 279.479 167.791 279.079 167.791C278.679 167.791 278.349 167.881 278.059 168.051C277.769 168.221 277.549 168.471 277.389 168.781C277.239 169.091 277.159 169.461 277.159 169.891V176.321H274.129V169.891C274.129 169.461 274.049 169.091 273.899 168.781C273.749 168.471 273.529 168.231 273.249 168.051C272.969 167.881 272.619 167.791 272.219 167.791C271.819 167.791 271.489 167.881 271.199 168.051C270.909 168.221 270.689 168.471 270.529 168.781C270.379 169.091 270.299 169.461 270.299 169.891V176.321H267.269L267.279 176.341Z" fill="white"/>
<path d="M289.229 176.581C288.439 176.581 287.749 176.451 287.169 176.201C286.589 175.941 286.149 175.581 285.839 175.101C285.529 174.621 285.379 174.061 285.379 173.401C285.379 172.781 285.519 172.231 285.799 171.761C286.079 171.291 286.519 170.881 287.099 170.561C287.679 170.241 288.409 170.011 289.289 169.871L292.659 169.331V171.551L289.839 172.051C289.409 172.131 289.079 172.271 288.849 172.461C288.619 172.651 288.509 172.931 288.509 173.301C288.509 173.641 288.639 173.901 288.889 174.091C289.139 174.281 289.459 174.371 289.839 174.371C290.339 174.371 290.769 174.261 291.149 174.051C291.529 173.841 291.819 173.541 292.029 173.171C292.239 172.801 292.339 172.391 292.339 171.951V169.091C292.339 168.671 292.179 168.321 291.849 168.041C291.519 167.761 291.069 167.621 290.509 167.621C289.949 167.621 289.499 167.771 289.089 168.061C288.679 168.361 288.379 168.751 288.189 169.231L285.769 168.081C285.989 167.461 286.329 166.931 286.799 166.491C287.269 166.051 287.839 165.701 288.489 165.461C289.149 165.221 289.869 165.101 290.649 165.101C291.579 165.101 292.399 165.271 293.109 165.601C293.819 165.941 294.379 166.401 294.769 167.001C295.169 167.601 295.359 168.291 295.359 169.091V176.351H292.539V174.581L293.229 174.461C292.909 174.941 292.549 175.341 292.159 175.661C291.769 175.981 291.329 176.211 290.849 176.371C290.369 176.521 289.829 176.601 289.239 176.601L289.229 176.581ZM287.229 163.031V160.611H294.089V163.031H287.229Z" fill="white"/>
<path d="M297.379 176.341V161.071H300.409V170.851L299.279 170.491L304.139 165.331H307.869L303.879 169.771L307.849 176.341H304.419L301.089 170.751L302.839 170.311L299.469 173.981L300.399 172.231V176.341H297.369H297.379Z" fill="white"/>
<path d="M312.809 176.581C311.919 176.581 311.169 176.391 310.539 176.001C309.909 175.611 309.439 175.081 309.119 174.401C308.799 173.711 308.639 172.911 308.639 172.001V165.331H311.659V171.761C311.659 172.181 311.739 172.541 311.909 172.861C312.079 173.181 312.319 173.421 312.629 173.601C312.939 173.771 313.289 173.861 313.679 173.861C314.069 173.861 314.439 173.771 314.739 173.601C315.039 173.431 315.279 173.181 315.449 172.861C315.619 172.541 315.699 172.181 315.699 171.761V165.331H318.719V176.341H315.899V174.161L316.059 174.641C315.799 175.301 315.389 175.791 314.819 176.101C314.249 176.421 313.579 176.571 312.809 176.571V176.581Z" fill="white"/>
<path d="M323.999 176.582C323.209 176.582 322.519 176.452 321.939 176.202C321.359 175.942 320.919 175.582 320.609 175.102C320.299 174.622 320.149 174.062 320.149 173.402C320.149 172.782 320.289 172.232 320.569 171.762C320.849 171.292 321.289 170.882 321.869 170.562C322.449 170.242 323.179 170.012 324.059 169.872L327.429 169.332V171.552L324.609 172.052C324.179 172.132 323.849 172.272 323.619 172.462C323.389 172.652 323.279 172.932 323.279 173.302C323.279 173.642 323.409 173.902 323.659 174.092C323.909 174.282 324.229 174.372 324.609 174.372C325.109 174.372 325.539 174.262 325.919 174.052C326.299 173.842 326.589 173.542 326.799 173.172C327.009 172.802 327.109 172.392 327.109 171.952V169.092C327.109 168.672 326.949 168.322 326.619 168.042C326.289 167.762 325.839 167.622 325.279 167.622C324.719 167.622 324.269 167.772 323.859 168.062C323.449 168.362 323.149 168.752 322.959 169.232L320.539 168.082C320.759 167.462 321.099 166.932 321.569 166.492C322.039 166.052 322.609 165.702 323.259 165.462C323.919 165.222 324.639 165.102 325.419 165.102C326.349 165.102 327.169 165.272 327.879 165.602C328.589 165.942 329.149 166.402 329.539 167.002C329.939 167.602 330.129 168.292 330.129 169.092V176.352H327.309V174.582L327.999 174.462C327.679 174.942 327.319 175.342 326.929 175.662C326.539 175.982 326.099 176.212 325.619 176.372C325.139 176.522 324.599 176.602 324.009 176.602L323.999 176.582Z" fill="white"/>
<path d="M335.389 176.341V161.321H338.519V167.811H344.369V161.321H347.499V176.341H344.369V170.531H338.519V176.341H335.389Z" fill="white"/>
<path d="M353.089 176.582C352.299 176.582 351.609 176.452 351.029 176.202C350.449 175.942 350.009 175.582 349.699 175.102C349.389 174.622 349.239 174.062 349.239 173.402C349.239 172.782 349.379 172.232 349.659 171.762C349.939 171.292 350.379 170.882 350.959 170.562C351.539 170.242 352.269 170.012 353.149 169.872L356.519 169.332V171.552L353.699 172.052C353.269 172.132 352.939 172.272 352.709 172.462C352.479 172.652 352.369 172.932 352.369 173.302C352.369 173.642 352.499 173.902 352.749 174.092C352.999 174.282 353.319 174.372 353.699 174.372C354.199 174.372 354.629 174.262 355.009 174.052C355.389 173.842 355.679 173.542 355.889 173.172C356.099 172.802 356.199 172.392 356.199 171.952V169.092C356.199 168.672 356.039 168.322 355.709 168.042C355.379 167.762 354.929 167.622 354.369 167.622C353.809 167.622 353.359 167.772 352.949 168.062C352.539 168.362 352.239 168.752 352.049 169.232L349.629 168.082C349.849 167.462 350.189 166.932 350.659 166.492C351.129 166.052 351.699 165.702 352.349 165.462C353.009 165.222 353.729 165.102 354.509 165.102C355.439 165.102 356.259 165.272 356.969 165.602C357.679 165.942 358.239 166.402 358.629 167.002C359.029 167.602 359.219 168.292 359.219 169.092V176.352H356.399V174.582L357.089 174.462C356.769 174.942 356.409 175.342 356.019 175.662C355.629 175.982 355.189 176.212 354.709 176.372C354.229 176.522 353.689 176.602 353.099 176.602L353.089 176.582Z" fill="white"/>
<path d="M363.529 176.341L359.739 165.331H362.869L365.529 173.281L364.439 173.261L367.399 165.331H370.019L372.959 173.261L371.869 173.281L374.529 165.331H377.679L373.869 176.341H371.249L368.179 167.831H369.229L366.139 176.341H363.519H363.529Z" fill="white"/>
<path d="M381.589 176.582C380.799 176.582 380.109 176.452 379.529 176.202C378.949 175.942 378.509 175.582 378.199 175.102C377.889 174.622 377.739 174.062 377.739 173.402C377.739 172.782 377.879 172.232 378.159 171.762C378.439 171.292 378.879 170.882 379.459 170.562C380.039 170.242 380.769 170.012 381.649 169.872L385.019 169.332V171.552L382.199 172.052C381.769 172.132 381.439 172.272 381.209 172.462C380.979 172.652 380.869 172.932 380.869 173.302C380.869 173.642 380.999 173.902 381.249 174.092C381.499 174.282 381.819 174.372 382.199 174.372C382.699 174.372 383.129 174.262 383.509 174.052C383.889 173.842 384.179 173.542 384.389 173.172C384.599 172.802 384.699 172.392 384.699 171.952V169.092C384.699 168.672 384.539 168.322 384.209 168.042C383.879 167.762 383.429 167.622 382.869 167.622C382.309 167.622 381.859 167.772 381.449 168.062C381.039 168.362 380.739 168.752 380.549 169.232L378.129 168.082C378.349 167.462 378.689 166.932 379.159 166.492C379.629 166.052 380.199 165.702 380.849 165.462C381.509 165.222 382.229 165.102 383.009 165.102C383.939 165.102 384.759 165.272 385.469 165.602C386.179 165.942 386.739 166.402 387.129 167.002C387.529 167.602 387.719 168.292 387.719 169.092V176.352H384.899V174.582L385.589 174.462C385.269 174.942 384.909 175.342 384.519 175.662C384.129 175.982 383.689 176.212 383.209 176.372C382.729 176.522 382.189 176.602 381.599 176.602L381.589 176.582Z" fill="white"/>
<path d="M389.639 164.341V161.312H392.669V164.341H389.639ZM389.639 176.341V165.331H392.669V176.341H389.639Z" fill="white"/>
<path d="M395.259 167.231V165.481C395.259 164.301 395.549 163.331 396.129 162.571C396.709 161.811 397.559 161.321 398.689 161.091V162.601C398.219 162.711 397.829 162.911 397.529 163.201C397.229 163.491 397.029 163.831 396.929 164.221H398.279V167.251H395.259V167.231Z" fill="white"/>
<path d="M401.019 164.341V161.312H404.049V164.341H401.019ZM401.019 176.341V165.331H404.049V176.341H401.019Z" fill="white"/>
<path d="M180.689 64.5613C174.829 45.8213 157.609 31.6813 138.159 29.3713C120.039 -9.79874 63.0989 -9.78876 44.9989 29.3912C1.93891 34.7812 -15.4011 88.2812 16.1689 117.991C8.2389 160.871 53.3289 193.571 91.6089 172.801C126.539 192.021 169.439 165.461 167.829 125.591C162.359 130.681 156.469 133.691 151.379 135.451C145.259 162.741 112.179 172.591 91.5989 153.761C61.5089 180.161 18.4689 148.881 34.2889 112.131C-0.121109 91.7213 16.4289 41.0113 56.1789 44.7713C64.9589 5.75125 118.229 5.79125 127.009 44.7713C161.109 41.0913 181.089 81.0312 157.129 105.771C146.309 116.921 128.299 119.591 114.709 112.031C143.469 101.691 136.499 60.3912 105.689 59.8312H52.7989V59.9712H52.5689V126.981H68.3289V75.4612H105.909C120.909 75.9612 121.179 96.7312 106.529 97.7712H81.9589V113.401C87.9489 113.401 93.6389 115.671 98.1789 119.551C99.9489 121.051 101.809 122.441 103.789 123.711C113.819 130.221 126.079 133.111 137.919 131.591C138.029 131.591 138.149 131.571 138.259 131.551C143.039 130.941 147.829 129.601 152.279 127.681V127.881C156.999 125.861 162.329 122.731 167.319 117.891V117.691C170.209 114.921 172.749 111.861 174.879 108.591C174.999 108.421 175.109 108.251 175.209 108.081C183.369 95.2412 185.539 79.4312 180.709 64.5512L180.689 64.5613Z" fill="white"/>
</svg>
