<svg width="576" height="248" viewBox="0 0 576 248" fill="none" xmlns="http://www.w3.org/2000/svg">
<path d="M250.85 121.308C243.37 137.198 231.65 150.058 216.99 158.738C225.66 175.678 228.46 194.868 224.86 213.998C221.27 233.178 204.54 247.107 185.07 247.107C183.35 247.107 181.61 246.997 179.9 246.777C161.32 244.367 144.53 236.268 131.36 223.558C118.19 236.278 101.41 244.377 82.8602 246.777C61.5802 249.487 41.8202 235.087 37.8702 213.977C34.5202 196.147 36.7303 178.237 44.0903 162.157C26.4503 153.627 12.4002 139.438 3.86021 121.308C-5.24979 101.928 2.28024 78.6675 21.0202 68.3575C37.4902 59.3175 55.8702 55.9575 74.0002 58.4975C77.2102 40.4575 86.0402 24.0075 99.6402 11.1175C115.2 -3.69248 139.66 -3.7125 155.29 11.0975C168.89 23.9975 177.71 40.4375 180.92 58.4675C198.99 55.9875 217.28 59.3475 233.68 68.3575H233.69C252.43 78.6675 259.96 101.928 250.85 121.308Z" fill="#3BA934"/>
<path d="M228.22 81.7775C210.8 72.2075 190.81 70.3375 171.92 76.4975C170.1 77.0875 168.3 77.7575 166.52 78.4975C166.67 76.5775 166.75 74.6475 166.75 72.7075C166.75 52.7675 158.8 34.2275 144.36 20.5275C134.87 11.5375 120.02 11.5475 110.56 20.5475C96.1203 34.2275 88.1703 52.7575 88.1703 72.7075C88.1703 74.6875 88.2504 76.6575 88.4104 78.6075C86.5604 77.8275 84.6703 77.1175 82.7703 76.4975C63.8803 70.3375 43.8904 72.2175 26.4704 81.7875C15.0604 88.0675 10.4704 102.238 16.0304 114.048C24.5204 132.088 39.6003 145.418 58.4903 151.588C61.4803 152.568 64.5403 153.348 67.6003 153.908C66.5703 155.148 65.5603 156.418 64.6103 157.748C52.9403 173.888 48.5503 193.578 52.2303 213.168C54.6403 226.028 66.6403 234.778 79.5603 233.128C99.2503 230.578 116.52 220.288 128.2 204.148C129.35 202.548 130.43 200.918 131.43 199.258C132.4 200.808 133.5 202.428 134.74 204.148C146.41 220.288 163.68 230.578 183.37 233.128C184.43 233.268 185.48 233.327 186.52 233.327C198.19 233.327 208.49 224.968 210.7 213.168C214.38 193.568 209.98 173.888 198.32 157.748C196.94 155.848 195.47 154.018 193.94 152.278C194.7 152.058 195.45 151.838 196.2 151.588C215.09 145.428 230.17 132.098 238.66 114.048C244.22 102.228 239.63 88.0575 228.22 81.7775ZM203.64 211.827C201.93 220.937 193.44 227.178 184.3 225.978C166.6 223.688 151.07 214.428 140.58 199.928C137.94 196.258 136.05 193.178 134.64 190.228L131.4 183.488L128.16 190.228C126.58 193.518 124.63 196.778 122.37 199.918C111.87 214.428 96.3403 223.688 78.6403 225.978C69.5203 227.168 61.0003 220.947 59.3003 211.827C55.9903 194.188 59.9403 176.478 70.4403 161.948C72.6503 158.898 75.0803 156.078 77.6703 153.558C80.1703 151.588 86.4303 147.038 91.1303 144.978C96.4903 162.418 112.83 174.698 131.37 174.698C139.76 174.698 147.87 172.238 154.81 167.588C157.42 165.838 159.79 163.828 161.91 161.598L153.13 159.908C152.38 160.508 151.61 161.078 150.81 161.608C145.06 165.468 138.34 167.508 131.38 167.508C114.9 167.508 100.52 155.808 97.2003 139.698L96.4704 136.178L91.9704 137.108C85.4304 138.708 76.3404 145.498 73.7104 147.538C73.0604 147.468 72.3903 147.378 71.6903 147.278L71.4004 147.238C67.8204 146.728 64.2403 145.888 60.7303 144.748C43.7403 139.208 30.1803 127.218 22.5503 110.988C18.6003 102.598 21.8503 92.5375 29.9503 88.0875C45.6103 79.4875 63.5803 77.7975 80.5603 83.3375C83.6703 84.3475 86.7104 85.6275 89.6504 87.1075C91.4004 95.7875 94.6904 103.968 99.4704 111.428L100.53 113.088H137.46C142.87 113.088 147.27 117.218 147.27 122.278C147.27 124.708 146.27 127.008 144.47 128.728C142.6 130.508 140.11 131.488 137.46 131.488H120.37L127.69 137.808C136.87 145.728 147.77 151.068 159.32 153.538L167.2 154.768C169.48 154.988 171.76 155.118 174.06 155.118C177.29 155.118 180.54 154.898 183.79 154.438L184.04 154.408C184.63 154.328 185.22 154.218 185.81 154.118C188.21 156.518 190.46 159.148 192.49 161.958C202.99 176.488 206.95 194.198 203.63 211.838L203.64 211.827ZM232.16 110.978C224.52 127.208 210.96 139.198 193.97 144.738C190.46 145.888 186.87 146.718 183.3 147.228L183.02 147.268C178.9 147.858 174.76 148.028 170.66 147.808L163.21 146.968C155.25 145.578 147.58 142.687 140.62 138.397C143.92 137.797 146.97 136.268 149.43 133.938C152.67 130.828 154.46 126.688 154.46 122.278C154.46 113.248 146.83 105.898 137.46 105.898H104.49L102.39 102.058C99.5403 96.4675 97.5204 90.5075 96.4004 84.2675L96.3404 83.9375C95.7004 80.3075 95.3703 76.5375 95.3703 72.7175C95.3703 54.7575 102.52 38.0875 115.52 25.7675C122.21 19.4075 132.71 19.3975 139.42 25.7475C152.41 38.0775 159.57 54.7575 159.57 72.7075C159.57 76.5275 159.24 80.2975 158.6 83.9275L157.31 91.1975L163.83 87.7275C167.14 85.9675 170.61 84.4875 174.16 83.3275C191.14 77.7875 209.11 79.4775 224.77 88.0775C232.87 92.5275 236.12 102.588 232.17 110.978H232.16Z" fill="white"/>
<path d="M131.68 87.0975C123.96 87.0975 116.6 89.1675 110.2 92.9775L114.93 98.5875C119.98 95.8175 125.7 94.2975 131.68 94.2975C150.94 94.2975 166.61 109.968 166.61 129.228C166.61 131.718 166.34 134.158 165.84 136.538L173 137.387C173.52 134.727 173.81 131.998 173.81 129.228C173.81 105.998 154.91 87.1075 131.69 87.1075L131.68 87.0975Z" fill="white"/>
<path d="M228.22 81.7775C210.8 72.2075 190.81 70.3375 171.92 76.4975C170.1 77.0875 168.3 77.7575 166.52 78.4975C166.67 76.5775 166.75 74.6475 166.75 72.7075C166.75 52.7675 158.8 34.2275 144.36 20.5275C134.87 11.5375 120.02 11.5475 110.56 20.5475C96.1203 34.2275 88.1703 52.7575 88.1703 72.7075C88.1703 74.6875 88.2504 76.6575 88.4104 78.6075C86.5604 77.8275 84.6703 77.1175 82.7703 76.4975C63.8803 70.3375 43.8904 72.2175 26.4704 81.7875C15.0604 88.0675 10.4704 102.238 16.0304 114.048C24.5204 132.088 39.6003 145.418 58.4903 151.588C61.4803 152.568 64.5403 153.348 67.6003 153.908C66.5703 155.148 65.5603 156.418 64.6103 157.748C52.9403 173.888 48.5503 193.578 52.2303 213.168C54.6403 226.028 66.6403 234.778 79.5603 233.128C99.2503 230.578 116.52 220.288 128.2 204.148C129.35 202.548 130.43 200.918 131.43 199.258C132.4 200.808 133.5 202.428 134.74 204.148C146.41 220.288 163.68 230.578 183.37 233.128C184.43 233.268 185.48 233.327 186.52 233.327C198.19 233.327 208.49 224.968 210.7 213.168C214.38 193.568 209.98 173.888 198.32 157.748C196.94 155.848 195.47 154.018 193.94 152.278C194.7 152.058 195.45 151.838 196.2 151.588C215.09 145.428 230.17 132.098 238.66 114.048C244.22 102.228 239.63 88.0575 228.22 81.7775ZM203.64 211.827C201.93 220.937 193.44 227.178 184.3 225.978C166.6 223.688 151.07 214.428 140.58 199.928C137.94 196.258 136.05 193.178 134.64 190.228L131.4 183.488L128.16 190.228C126.58 193.518 124.63 196.778 122.37 199.918C111.87 214.428 96.3403 223.688 78.6403 225.978C69.5203 227.168 61.0003 220.947 59.3003 211.827C55.9903 194.188 59.9403 176.478 70.4403 161.948C72.6503 158.898 75.0803 156.078 77.6703 153.558C80.1703 151.588 86.4303 147.038 91.1303 144.978C96.4903 162.418 112.83 174.698 131.37 174.698C139.76 174.698 147.87 172.238 154.81 167.588C157.42 165.838 159.79 163.828 161.91 161.598L153.13 159.908C152.38 160.508 151.61 161.078 150.81 161.608C145.06 165.468 138.34 167.508 131.38 167.508C114.9 167.508 100.52 155.808 97.2003 139.698L96.4704 136.178L91.9704 137.108C85.4304 138.708 76.3404 145.498 73.7104 147.538C73.0604 147.468 72.3903 147.378 71.6903 147.278L71.4004 147.238C67.8204 146.728 64.2403 145.888 60.7303 144.748C43.7403 139.208 30.1803 127.218 22.5503 110.988C18.6003 102.598 21.8503 92.5375 29.9503 88.0875C45.6103 79.4875 63.5803 77.7975 80.5603 83.3375C83.6703 84.3475 86.7104 85.6275 89.6504 87.1075C91.4004 95.7875 94.6904 103.968 99.4704 111.428L100.53 113.088H137.46C142.87 113.088 147.27 117.218 147.27 122.278C147.27 124.708 146.27 127.008 144.47 128.728C142.6 130.508 140.11 131.488 137.46 131.488H120.37L127.69 137.808C136.87 145.728 147.77 151.068 159.32 153.538L167.2 154.768C169.48 154.988 171.76 155.118 174.06 155.118C177.29 155.118 180.54 154.898 183.79 154.438L184.04 154.408C184.63 154.328 185.22 154.218 185.81 154.118C188.21 156.518 190.46 159.148 192.49 161.958C202.99 176.488 206.95 194.198 203.63 211.838L203.64 211.827ZM232.16 110.978C224.52 127.208 210.96 139.198 193.97 144.738C190.46 145.888 186.87 146.718 183.3 147.228L183.02 147.268C178.9 147.858 174.76 148.028 170.66 147.808L163.21 146.968C155.25 145.578 147.58 142.687 140.62 138.397C143.92 137.797 146.97 136.268 149.43 133.938C152.67 130.828 154.46 126.688 154.46 122.278C154.46 113.248 146.83 105.898 137.46 105.898H104.49L102.39 102.058C99.5403 96.4675 97.5204 90.5075 96.4004 84.2675L96.3404 83.9375C95.7004 80.3075 95.3703 76.5375 95.3703 72.7175C95.3703 54.7575 102.52 38.0875 115.52 25.7675C122.21 19.4075 132.71 19.3975 139.42 25.7475C152.41 38.0775 159.57 54.7575 159.57 72.7075C159.57 76.5275 159.24 80.2975 158.6 83.9275L157.31 91.1975L163.83 87.7275C167.14 85.9675 170.61 84.4875 174.16 83.3275C191.14 77.7875 209.11 79.4775 224.77 88.0775C232.87 92.5275 236.12 102.588 232.17 110.978H232.16Z" fill="white"/>
<path d="M290.71 99.1588V32.0088H336.68V44.1787H304.68V61.2188H332.17V73.3888H304.68V99.1688H290.71V99.1588Z" fill="#3BA934"/>
<path d="M341 99.1588V30.9188H354.52V99.1588H341Z" fill="#3BA934"/>
<path d="M387.251 100.239C382.381 100.239 377.951 99.1288 373.951 96.9088C369.951 94.6888 366.771 91.6288 364.391 87.7588C362.021 83.8888 360.831 79.4787 360.831 74.5487C360.831 69.6187 362.021 65.1487 364.391 61.2987C366.761 57.4487 369.951 54.4188 373.951 52.1988C377.941 49.9788 382.381 48.8588 387.251 48.8588C392.121 48.8588 396.531 49.9688 400.501 52.1988C404.471 54.4188 407.631 57.4587 410.011 61.2987C412.381 65.1487 413.571 69.5587 413.571 74.5487C413.571 79.5387 412.381 83.8788 410.011 87.7588C407.631 91.6288 404.471 94.6888 400.501 96.9088C396.531 99.1288 392.121 100.239 387.251 100.239ZM387.251 88.0688C389.711 88.0688 391.861 87.4988 393.691 86.3588C395.521 85.2188 396.971 83.6187 398.021 81.5787C399.071 79.5387 399.591 77.1887 399.591 74.5487C399.591 71.9087 399.061 69.5788 398.021 67.5688C396.971 65.5588 395.521 63.9588 393.691 62.7888C391.851 61.6188 389.711 61.0287 387.251 61.0287C384.791 61.0287 382.621 61.6088 380.761 62.7888C378.901 63.9588 377.441 65.5488 376.391 67.5688C375.341 69.5788 374.811 71.9087 374.811 74.5487C374.811 77.1887 375.341 79.5387 376.391 81.5787C377.441 83.6187 378.901 85.2188 380.761 86.3588C382.621 87.4988 384.781 88.0688 387.251 88.0688Z" fill="#3BA934"/>
<path d="M430.261 99.1588L413.311 49.9488H427.281L439.181 85.4587L434.311 85.3687L447.561 49.9488H459.281L472.441 85.3687L467.571 85.4587L479.471 49.9488H493.531L476.501 99.1588H464.781L451.081 61.1187H455.771L441.981 99.1588H430.261Z" fill="#3BA934"/>
<path d="M518.971 100.239C513.741 100.239 509.201 99.0787 505.361 96.7687C501.511 94.4587 498.541 91.3488 496.441 87.4388C494.341 83.5388 493.291 79.2087 493.291 74.4587C493.291 69.7087 494.391 65.1487 496.581 61.2987C498.771 57.4487 501.731 54.4188 505.461 52.1988C509.191 49.9788 513.391 48.8588 518.081 48.8588C521.991 48.8588 525.441 49.4787 528.451 50.7087C531.461 51.9387 533.991 53.6688 536.071 55.8888C538.141 58.1088 539.721 60.6788 540.801 63.5988C541.881 66.5088 542.421 69.6788 542.421 73.1088C542.421 74.0688 542.381 75.0188 542.291 75.9488C542.201 76.8788 542.041 77.6787 541.801 78.3387H504.931V68.4188H534.141L527.741 73.1088C528.341 70.5288 528.311 68.2287 527.651 66.2087C526.991 64.1987 525.831 62.5987 524.181 61.4287C522.531 60.2587 520.501 59.6688 518.101 59.6688C515.701 59.6688 513.741 60.2388 512.061 61.3788C510.381 62.5188 509.111 64.2087 508.271 66.4287C507.431 68.6487 507.101 71.3588 507.281 74.5388C507.041 77.2988 507.371 79.7387 508.271 81.8387C509.171 83.9387 510.551 85.5787 512.421 86.7487C514.281 87.9187 516.531 88.5088 519.181 88.5088C521.591 88.5088 523.641 88.0288 525.351 87.0688C527.061 86.1088 528.401 84.7788 529.361 83.0988L540.181 88.2387C539.221 90.6387 537.701 92.7488 535.631 94.5488C533.551 96.3488 531.111 97.7488 528.281 98.7388C525.451 99.7288 522.361 100.229 519.001 100.229L518.971 100.239Z" fill="#3BA934"/>
<path d="M546.91 99.1588V49.9488H559.531V61.7588L558.63 60.0487C559.71 55.8987 561.5 53.0987 564 51.6187C566.49 50.1487 569.45 49.4088 572.88 49.4088H575.76V61.1288H571.521C568.211 61.1288 565.54 62.1387 563.5 64.1487C561.46 66.1587 560.43 68.9988 560.43 72.6688V99.1688H546.91V99.1588Z" fill="#3BA934"/>
<path d="M290.71 176.979V109.829H316.4C321.03 109.829 325.13 110.639 328.7 112.259C332.27 113.879 335.09 116.289 337.13 119.469C339.17 122.659 340.2 126.589 340.2 131.279C340.2 135.969 339.15 139.739 337.04 142.949C334.94 146.159 332.11 148.579 328.57 150.209L343.89 176.979H328.21L311.63 147.319L320.64 152.639H304.69V176.979H290.72H290.71ZM304.68 140.479H316.49C318.47 140.479 320.19 140.089 321.63 139.309C323.07 138.529 324.2 137.449 325.01 136.059C325.82 134.679 326.23 133.089 326.23 131.289C326.23 129.489 325.82 127.799 325.01 126.419C324.2 125.039 323.07 123.959 321.63 123.169C320.19 122.389 318.47 121.999 316.49 121.999H304.68V140.479Z" fill="#3BA934"/>
<path d="M363.07 178.059C359.53 178.059 356.46 177.489 353.88 176.349C351.3 175.209 349.31 173.569 347.93 171.439C346.55 169.309 345.86 166.769 345.86 163.819C345.86 161.059 346.49 158.609 347.75 156.469C349.01 154.339 350.95 152.549 353.56 151.099C356.18 149.659 359.43 148.639 363.34 148.039L378.39 145.609V155.529L365.77 157.779C363.84 158.139 362.37 158.759 361.35 159.629C360.33 160.499 359.82 161.749 359.82 163.369C359.82 164.879 360.39 166.049 361.53 166.889C362.67 167.729 364.08 168.149 365.77 168.149C367.99 168.149 369.95 167.669 371.63 166.709C373.31 165.749 374.62 164.439 375.55 162.789C376.48 161.139 376.95 159.319 376.95 157.339V144.539C376.95 142.679 376.21 141.119 374.74 139.849C373.27 138.589 371.27 137.959 368.75 137.959C366.23 137.959 364.23 138.619 362.39 139.939C360.56 141.259 359.22 142.999 358.38 145.169L347.56 140.029C348.52 137.269 350.05 134.889 352.16 132.909C354.26 130.929 356.79 129.389 359.73 128.309C362.67 127.229 365.89 126.679 369.37 126.679C373.52 126.679 377.18 127.429 380.37 128.939C383.55 130.439 386.03 132.529 387.8 135.199C389.57 137.869 390.46 140.989 390.46 144.529V176.979H377.84V169.049L380.91 168.509C379.47 170.669 377.87 172.459 376.13 173.869C374.38 175.279 372.43 176.329 370.27 177.019C368.11 177.709 365.7 178.059 363.06 178.059H363.07Z" fill="#3BA934"/>
<path d="M397.23 176.979V127.769H409.85V137.499L409.13 135.339C410.27 132.389 412.12 130.219 414.67 128.799C417.22 127.389 420.211 126.679 423.641 126.679C427.371 126.679 430.63 127.459 433.42 129.019C436.21 130.579 438.39 132.759 439.95 135.559C441.51 138.349 442.29 141.619 442.29 145.339V176.979H428.771V148.219C428.771 146.299 428.401 144.649 427.651 143.259C426.901 141.879 425.85 140.799 424.49 140.009C423.14 139.229 421.56 138.839 419.76 138.839C417.96 138.839 416.45 139.229 415.07 140.009C413.69 140.789 412.62 141.869 411.87 143.259C411.12 144.649 410.74 146.299 410.74 148.219V176.979H397.22H397.23Z" fill="#3BA934"/>
<path d="M473.96 178.059C469.03 178.059 464.6 176.939 460.66 174.679C456.72 172.429 453.6 169.349 451.29 165.439C448.98 161.529 447.82 157.149 447.82 152.279C447.82 147.409 448.96 143.039 451.24 139.159C453.52 135.289 456.65 132.239 460.61 130.009C464.57 127.779 469.02 126.669 473.95 126.669C477.61 126.669 481.01 127.299 484.13 128.559C487.26 129.819 489.93 131.579 492.16 133.839C494.38 136.089 495.97 138.749 496.93 141.809L485.22 146.859C484.37 144.399 482.95 142.439 480.94 140.999C478.93 139.559 476.6 138.839 473.96 138.839C471.62 138.839 469.53 139.409 467.69 140.549C465.86 141.689 464.41 143.279 463.37 145.319C462.32 147.369 461.79 149.709 461.79 152.349C461.79 154.989 462.32 157.339 463.37 159.379C464.42 161.419 465.86 163.019 467.69 164.159C469.52 165.299 471.61 165.869 473.96 165.869C476.66 165.869 479.01 165.149 480.99 163.709C482.97 162.269 484.38 160.309 485.23 157.849L496.94 162.989C496.04 165.869 494.48 168.459 492.26 170.739C490.04 173.019 487.36 174.809 484.23 176.099C481.11 177.389 477.68 178.039 473.96 178.039V178.059Z" fill="#3BA934"/>
<path d="M502.98 176.979V108.739H516.5V137.499L514.88 135.339C516.02 132.389 517.87 130.219 520.42 128.799C522.97 127.389 525.961 126.679 529.391 126.679C533.121 126.679 536.38 127.459 539.17 129.019C541.96 130.579 544.14 132.759 545.7 135.559C547.26 138.349 548.04 141.619 548.04 145.339V176.979H534.521V148.219C534.521 146.299 534.151 144.649 533.401 143.259C532.651 141.879 531.6 140.799 530.24 140.009C528.89 139.229 527.31 138.839 525.51 138.839C523.71 138.839 522.2 139.229 520.82 140.009C519.44 140.789 518.37 141.869 517.62 143.259C516.87 144.649 516.49 146.299 516.49 148.219V176.979H502.97H502.98Z" fill="#3BA934"/>
<path d="M291.7 215.832V194.954H296.046V203.977H304.171V194.954H308.516V215.832H304.171V207.756H296.046V215.832H291.7Z" fill="#3BA934"/>
<path d="M316.382 216.164C315.275 216.164 314.327 215.992 313.526 215.635C312.726 215.278 312.111 214.773 311.68 214.108C311.249 213.444 311.04 212.656 311.04 211.745C311.04 210.883 311.237 210.12 311.631 209.455C312.025 208.79 312.628 208.236 313.44 207.793C314.253 207.35 315.262 207.03 316.481 206.845L321.159 206.082V209.16L317.232 209.861C316.629 209.972 316.173 210.169 315.853 210.44C315.533 210.711 315.373 211.105 315.373 211.597C315.373 212.065 315.545 212.434 315.902 212.693C316.259 212.951 316.703 213.087 317.22 213.087C317.909 213.087 318.512 212.939 319.041 212.643C319.558 212.348 319.965 211.942 320.26 211.425C320.556 210.908 320.691 210.341 320.691 209.726V205.75C320.691 205.171 320.457 204.679 320.002 204.297C319.546 203.903 318.918 203.706 318.143 203.706C317.367 203.706 316.739 203.916 316.173 204.322C315.607 204.728 315.188 205.27 314.93 205.947L311.569 204.346C311.865 203.485 312.345 202.746 312.997 202.13C313.65 201.515 314.437 201.035 315.348 200.703C316.259 200.37 317.269 200.198 318.352 200.198C319.645 200.198 320.777 200.432 321.774 200.899C322.759 201.367 323.535 202.02 324.089 202.844C324.643 203.682 324.913 204.642 324.913 205.75V215.844H320.986V213.382L321.934 213.21C321.491 213.887 320.986 214.441 320.445 214.884C319.903 215.327 319.3 215.647 318.623 215.869C317.946 216.078 317.207 216.189 316.382 216.189V216.164ZM313.613 197.33V193.969H323.141V197.33H313.613Z" fill="#3BA934"/>
<path d="M327.733 215.832V200.53H331.659V204.26L331.241 203.645C331.463 202.463 332.004 201.601 332.866 201.035C333.728 200.469 334.749 200.198 335.943 200.198C337.211 200.198 338.332 200.518 339.292 201.17C340.252 201.81 340.855 202.684 341.101 203.768L339.895 203.879C340.4 202.623 341.114 201.7 342.049 201.109C342.985 200.506 344.08 200.21 345.324 200.21C346.432 200.21 347.404 200.456 348.254 200.936C349.103 201.429 349.768 202.106 350.26 202.968C350.74 203.842 350.987 204.851 350.987 206.008V215.844H346.776V206.907C346.776 206.304 346.666 205.799 346.456 205.368C346.247 204.937 345.939 204.605 345.545 204.359C345.151 204.112 344.671 203.989 344.117 203.989C343.563 203.989 343.108 204.112 342.702 204.359C342.295 204.605 341.988 204.937 341.778 205.368C341.569 205.799 341.458 206.316 341.458 206.907V215.844H337.248V206.907C337.248 206.304 337.137 205.799 336.928 205.368C336.719 204.937 336.411 204.605 336.017 204.359C335.623 204.112 335.143 203.989 334.589 203.989C334.035 203.989 333.58 204.112 333.174 204.359C332.767 204.605 332.46 204.937 332.25 205.368C332.041 205.799 331.93 206.316 331.93 206.907V215.844H327.72L327.733 215.832Z" fill="#3BA934"/>
<path d="M358.237 216.164C357.129 216.164 356.181 215.992 355.381 215.635C354.581 215.278 353.966 214.773 353.535 214.108C353.104 213.444 352.895 212.656 352.895 211.745C352.895 210.883 353.091 210.12 353.485 209.455C353.879 208.79 354.483 208.236 355.295 207.793C356.108 207.35 357.117 207.03 358.336 206.845L363.013 206.082V209.16L359.087 209.861C358.483 209.972 358.028 210.169 357.708 210.44C357.388 210.711 357.228 211.105 357.228 211.597C357.228 212.065 357.4 212.434 357.757 212.693C358.114 212.951 358.557 213.087 359.074 213.087C359.764 213.087 360.367 212.939 360.896 212.643C361.413 212.348 361.819 211.942 362.115 211.425C362.41 210.908 362.546 210.341 362.546 209.726V205.75C362.546 205.171 362.312 204.679 361.856 204.297C361.401 203.903 360.773 203.706 359.998 203.706C359.222 203.706 358.594 203.916 358.028 204.322C357.462 204.728 357.043 205.27 356.785 205.947L353.424 204.346C353.719 203.485 354.199 202.746 354.852 202.13C355.504 201.515 356.292 201.035 357.203 200.703C358.114 200.37 359.123 200.198 360.207 200.198C361.499 200.198 362.632 200.432 363.629 200.899C364.614 201.367 365.389 202.02 365.943 202.844C366.497 203.682 366.768 204.642 366.768 205.75V215.844H362.841V213.382L363.789 213.21C363.346 213.887 362.841 214.441 362.3 214.884C361.758 215.327 361.155 215.647 360.478 215.869C359.801 216.078 359.062 216.189 358.237 216.189V216.164ZM355.455 197.33V193.969H364.983V197.33H355.455Z" fill="#3BA934"/>
<path d="M369.575 215.832V194.609H373.785V208.199L372.209 207.695L378.967 200.518H384.15L378.598 206.685L384.125 215.819H379.361L374.733 208.052L377.17 207.436L372.492 212.533L373.785 210.095V215.807H369.575V215.832Z" fill="#3BA934"/>
<path d="M391.007 216.164C389.776 216.164 388.717 215.893 387.855 215.364C386.994 214.835 386.329 214.084 385.874 213.136C385.43 212.188 385.197 211.068 385.197 209.8V200.518H389.407V209.455C389.407 210.034 389.517 210.538 389.764 210.982C389.997 211.425 390.33 211.757 390.761 212.003C391.191 212.25 391.672 212.373 392.213 212.373C392.755 212.373 393.26 212.25 393.69 212.003C394.109 211.757 394.441 211.425 394.675 210.982C394.909 210.538 395.02 210.034 395.02 209.455V200.518H399.23V215.819H395.303V212.791L395.525 213.468C395.168 214.379 394.589 215.056 393.801 215.499C393.001 215.943 392.078 216.164 391.007 216.164Z" fill="#3BA934"/>
<path d="M406.567 216.164C405.459 216.164 404.511 215.992 403.711 215.635C402.911 215.278 402.295 214.773 401.865 214.108C401.434 213.444 401.224 212.656 401.224 211.745C401.224 210.883 401.421 210.12 401.815 209.455C402.209 208.79 402.812 208.236 403.625 207.793C404.437 207.35 405.447 207.03 406.666 206.845L411.343 206.082V209.16L407.416 209.861C406.813 209.972 406.358 210.169 406.038 210.44C405.718 210.711 405.558 211.105 405.558 211.597C405.558 212.065 405.73 212.434 406.087 212.693C406.444 212.951 406.887 213.087 407.404 213.087C408.093 213.087 408.697 212.939 409.226 212.643C409.743 212.348 410.149 211.942 410.445 211.425C410.74 210.908 410.876 210.341 410.876 209.726V205.75C410.876 205.171 410.642 204.679 410.186 204.297C409.731 203.903 409.103 203.706 408.327 203.706C407.552 203.706 406.924 203.916 406.358 204.322C405.792 204.728 405.373 205.27 405.114 205.947L401.754 204.346C402.049 203.485 402.529 202.746 403.182 202.13C403.834 201.515 404.622 201.035 405.533 200.703C406.444 200.37 407.453 200.198 408.537 200.198C409.829 200.198 410.962 200.432 411.959 200.899C412.944 201.367 413.719 202.02 414.273 202.845C414.827 203.682 415.098 204.642 415.098 205.75V215.844H411.171V213.382L412.119 213.21C411.676 213.887 411.171 214.441 410.629 214.884C410.088 215.327 409.485 215.647 408.807 215.869C408.13 216.078 407.392 216.189 406.567 216.189V216.164Z" fill="#3BA934"/>
<path d="M422.398 215.832V194.954H426.743V203.977H434.868V194.954H439.214V215.832H434.868V207.756H426.743V215.832H422.398Z" fill="#3BA934"/>
<path d="M447.006 216.164C445.898 216.164 444.95 215.992 444.15 215.635C443.35 215.278 442.734 214.773 442.304 214.108C441.873 213.444 441.664 212.656 441.664 211.745C441.664 210.883 441.861 210.12 442.254 209.455C442.648 208.79 443.252 208.236 444.064 207.793C444.876 207.35 445.886 207.03 447.105 206.845L451.783 206.082V209.16L447.855 209.861C447.252 209.972 446.797 210.169 446.477 210.44C446.157 210.711 445.997 211.105 445.997 211.597C445.997 212.065 446.169 212.434 446.526 212.693C446.883 212.951 447.326 213.087 447.843 213.087C448.533 213.087 449.136 212.939 449.665 212.643C450.182 212.348 450.588 211.942 450.884 211.425C451.179 210.908 451.315 210.341 451.315 209.726V205.75C451.315 205.171 451.081 204.679 450.625 204.297C450.17 203.903 449.542 203.706 448.766 203.706C447.991 203.706 447.363 203.916 446.797 204.322C446.231 204.728 445.812 205.27 445.553 205.947L442.193 204.346C442.488 203.485 442.968 202.746 443.621 202.13C444.273 201.515 445.061 201.035 445.972 200.703C446.883 200.37 447.892 200.198 448.976 200.198C450.268 200.198 451.401 200.432 452.398 200.899C453.383 201.367 454.158 202.02 454.712 202.845C455.266 203.682 455.537 204.642 455.537 205.75V215.844H451.61V213.382L452.558 213.21C452.115 213.887 451.61 214.441 451.068 214.884C450.527 215.327 449.924 215.647 449.247 215.869C448.569 216.078 447.831 216.189 447.006 216.189V216.164Z" fill="#3BA934"/>
<path d="M461.508 215.832L456.239 200.53H460.584L464.29 211.572L462.775 211.548L466.899 200.53H470.543L474.63 211.548L473.116 211.572L476.821 200.53H481.192L475.898 215.832H472.254L467.995 204.002H469.448L465.164 215.832H461.52H461.508Z" fill="#3BA934"/>
<path d="M486.608 216.164C485.5 216.164 484.552 215.992 483.752 215.635C482.952 215.278 482.336 214.773 481.906 214.108C481.475 213.444 481.265 212.656 481.265 211.745C481.265 210.883 481.462 210.12 481.856 209.455C482.25 208.79 482.853 208.236 483.666 207.793C484.478 207.35 485.488 207.03 486.707 206.845L491.384 206.082V209.16L487.457 209.861C486.854 209.972 486.399 210.169 486.079 210.44C485.759 210.711 485.599 211.105 485.599 211.597C485.599 212.065 485.771 212.434 486.128 212.693C486.485 212.951 486.928 213.087 487.445 213.087C488.135 213.087 488.738 212.939 489.267 212.643C489.784 212.348 490.19 211.942 490.486 211.425C490.781 210.908 490.917 210.341 490.917 209.726V205.75C490.917 205.171 490.683 204.679 490.227 204.297C489.772 203.903 489.144 203.706 488.368 203.706C487.593 203.706 486.965 203.916 486.399 204.322C485.833 204.728 485.414 205.27 485.155 205.947L481.795 204.346C482.09 203.485 482.57 202.746 483.223 202.13C483.875 201.515 484.663 201.035 485.574 200.703C486.485 200.37 487.494 200.198 488.578 200.198C489.87 200.198 491.003 200.432 492 200.899C492.985 201.367 493.76 202.02 494.314 202.845C494.868 203.682 495.139 204.642 495.139 205.75V215.844H491.212V213.382L492.16 213.21C491.717 213.887 491.212 214.441 490.67 214.884C490.129 215.327 489.526 215.647 488.849 215.869C488.171 216.078 487.433 216.189 486.608 216.189V216.164Z" fill="#3BA934"/>
<path d="M497.81 199.151V194.941H502.02V199.151H497.81ZM497.81 215.832V200.53H502.02V215.832H497.81Z" fill="#3BA934"/>
<path d="M505.615 203.165V200.727C505.615 199.09 506.021 197.736 506.821 196.677C507.622 195.618 508.816 194.929 510.379 194.621V196.726C509.727 196.874 509.185 197.157 508.766 197.551C508.348 197.957 508.065 198.425 507.942 198.967H509.825V203.177H505.615V203.165Z" fill="#3BA934"/>
<path d="M513.629 199.151V194.941H517.839V199.151H513.629ZM513.629 215.832V200.53H517.839V215.832H513.629Z" fill="#3BA934"/>
</svg>
