<svg width="163" height="70" viewBox="0 0 163 70" fill="none" xmlns="http://www.w3.org/2000/svg">
<path d="M70.6853 34.1824C68.5776 38.6599 65.2751 42.2836 61.1441 44.7295C63.5872 49.5029 64.3762 54.9103 63.3618 60.3009C62.3502 65.7054 57.636 69.6307 52.1496 69.6307C51.665 69.6307 51.1747 69.5997 50.6928 69.5377C45.4573 68.8586 40.7262 66.5762 37.0151 62.9947C33.304 66.579 28.5757 68.8614 23.3486 69.5377C17.3523 70.3013 11.7842 66.2436 10.6712 60.2952C9.72721 55.271 10.35 50.2243 12.4239 45.6932C7.45323 43.2896 3.49417 39.2911 1.08774 34.1824C-1.4793 28.7214 0.642534 22.1672 5.92315 19.262C10.5641 16.7147 15.7433 15.7679 20.852 16.4836C21.7565 11.4002 24.2447 6.76491 28.0769 3.13273C32.4615 -1.04048 39.3539 -1.04612 43.7581 3.12709C47.5904 6.76209 50.0757 11.3946 50.9802 16.4751C56.072 15.7763 61.2259 16.7231 65.8471 19.262H65.8499C71.1305 22.1672 73.2524 28.7214 70.6853 34.1824Z" fill="white"/>
<path d="M64.3086 23.0435C59.3999 20.3468 53.767 19.8199 48.4442 21.5557C47.9313 21.7219 47.4241 21.9107 46.9225 22.1193C46.9648 21.5782 46.9874 21.0344 46.9874 20.4877C46.9874 14.869 44.7472 9.64473 40.6782 5.78431C38.0041 3.25108 33.8196 3.2539 31.154 5.78995C27.085 9.64474 24.8448 14.8662 24.8448 20.4877C24.8448 21.0457 24.8674 21.6008 24.9125 22.1503C24.3912 21.9305 23.8586 21.7304 23.3232 21.5557C18.0003 19.8199 12.3675 20.3497 7.45885 23.0463C4.24371 24.8159 2.95032 28.8088 4.51703 32.1367C6.90937 37.22 11.1586 40.9762 16.4815 42.7148C17.3241 42.9909 18.1863 43.2107 19.0486 43.3685C18.7583 43.7179 18.4737 44.0758 18.206 44.4506C14.9176 48.9986 13.6806 54.5469 14.7176 60.067C15.3967 63.6907 18.7781 66.1563 22.4187 65.6914C27.967 64.9728 32.8334 62.0733 36.1246 57.5253C36.4487 57.0744 36.753 56.6151 37.0348 56.1474C37.3081 56.5842 37.6181 57.0406 37.9675 57.5253C41.2559 62.0733 46.1223 64.9728 51.6706 65.6914C51.9693 65.7308 52.2652 65.7477 52.5582 65.7477C55.8466 65.7477 58.749 63.392 59.3717 60.067C60.4087 54.544 59.1688 48.9986 55.8832 44.4506C55.4944 43.9152 55.0802 43.3995 54.649 42.9092C54.8632 42.8472 55.0745 42.7852 55.2859 42.7148C60.6087 40.979 64.858 37.2228 67.2504 32.1367C68.8171 28.806 67.5237 24.8131 64.3086 23.0435Z" fill="white"/>
<path d="M37.1052 24.5426C34.9298 24.5426 32.8559 25.1259 31.0525 26.1995L32.3853 27.7803C33.8083 26.9998 35.4201 26.5714 37.1052 26.5714C42.5323 26.5714 46.9479 30.987 46.9479 36.4141C46.9479 37.1158 46.8718 37.8033 46.7309 38.474L48.7485 38.7135C48.895 37.9639 48.9767 37.1947 48.9767 36.4141C48.9767 29.8683 43.651 24.5454 37.108 24.5454L37.1052 24.5426Z" fill="white"/>
<path d="M81.9172 27.9413V9.01953H94.8708V12.4488H85.8538V17.2504H93.6V20.6797H85.8538V27.9441H81.9172V27.9413Z" fill="white"/>
<path d="M96.0881 27.9413V8.71239H99.8978V27.9413H96.0881Z" fill="white"/>
<path d="M109.121 28.2456C107.748 28.2456 106.5 27.9328 105.373 27.3072C104.246 26.6817 103.35 25.8194 102.679 24.7289C102.011 23.6384 101.676 22.3958 101.676 21.0066C101.676 19.6174 102.011 18.3578 102.679 17.2729C103.347 16.1881 104.246 15.3343 105.373 14.7087C106.497 14.0832 107.748 13.7676 109.121 13.7676C110.493 13.7676 111.736 14.0803 112.854 14.7087C113.973 15.3343 114.863 16.1909 115.534 17.2729C116.202 18.3578 116.537 19.6005 116.537 21.0066C116.537 22.4127 116.202 23.6356 115.534 24.7289C114.863 25.8194 113.973 26.6817 112.854 27.3072C111.736 27.9328 110.493 28.2456 109.121 28.2456ZM109.121 24.8163C109.814 24.8163 110.42 24.6557 110.935 24.3344C111.451 24.0132 111.86 23.5623 112.155 22.9875C112.451 22.4127 112.598 21.7505 112.598 21.0066C112.598 20.2627 112.448 19.6061 112.155 19.0397C111.86 18.4733 111.451 18.0225 110.935 17.6928C110.417 17.3631 109.814 17.1969 109.121 17.1969C108.427 17.1969 107.816 17.3603 107.292 17.6928C106.768 18.0225 106.356 18.4705 106.06 19.0397C105.765 19.6061 105.615 20.2627 105.615 21.0066C105.615 21.7505 105.765 22.4127 106.06 22.9875C106.356 23.5623 106.768 24.0132 107.292 24.3344C107.816 24.6557 108.425 24.8163 109.121 24.8163Z" fill="white"/>
<path d="M121.24 27.9413L116.464 14.0747H120.4L123.754 24.0808L122.381 24.0555L126.115 14.0747H129.417L133.126 24.0555L131.753 24.0808L135.107 14.0747H139.069L134.27 27.9413H130.967L127.107 17.2222H128.428L124.543 27.9413H121.24Z" fill="white"/>
<path d="M146.237 28.2456C144.763 28.2456 143.484 27.9187 142.402 27.2678C141.317 26.6169 140.48 25.7405 139.888 24.6388C139.297 23.5398 139.001 22.3197 139.001 20.9812C139.001 19.6427 139.311 18.3578 139.928 17.2729C140.545 16.1881 141.379 15.3343 142.43 14.7087C143.481 14.0832 144.665 13.7676 145.986 13.7676C147.088 13.7676 148.06 13.9423 148.908 14.2889C149.757 14.6355 150.469 15.1229 151.056 15.7485C151.639 16.3741 152.084 17.0982 152.388 17.921C152.693 18.741 152.845 19.6343 152.845 20.6008C152.845 20.8713 152.834 21.139 152.808 21.4011C152.783 21.6631 152.738 21.8885 152.67 22.0745H142.281V19.2792H150.512L148.708 20.6008C148.877 19.8738 148.869 19.2257 148.683 18.6565C148.497 18.0901 148.17 17.6393 147.705 17.3096C147.24 16.9799 146.668 16.8136 145.992 16.8136C145.316 16.8136 144.763 16.9743 144.29 17.2955C143.817 17.6167 143.459 18.0929 143.222 18.7185C142.985 19.344 142.892 20.1077 142.943 21.0038C142.875 21.7815 142.968 22.469 143.222 23.0608C143.476 23.6525 143.864 24.1146 144.391 24.4443C144.915 24.774 145.549 24.9403 146.296 24.9403C146.975 24.9403 147.553 24.805 148.035 24.5345C148.517 24.264 148.894 23.8892 149.165 23.4158L152.214 24.8642C151.943 25.5405 151.515 26.135 150.932 26.6422C150.345 27.1494 149.658 27.5439 148.86 27.8229C148.063 28.1019 147.192 28.2428 146.246 28.2428L146.237 28.2456Z" fill="white"/>
<path d="M154.11 27.9413V14.0747H157.666V17.4026L157.413 16.9207C157.717 15.7513 158.221 14.9623 158.926 14.5453C159.627 14.1311 160.461 13.9226 161.428 13.9226H162.239V17.2251H161.045C160.112 17.2251 159.36 17.5096 158.785 18.076C158.21 18.6424 157.92 19.4427 157.92 20.4768V27.9441H154.11V27.9413Z" fill="white"/>
<path d="M81.9172 49.8696V30.9479H89.1562C90.4609 30.9479 91.6162 31.1761 92.6222 31.6326C93.6281 32.0891 94.4228 32.7682 94.9976 33.6643C95.5724 34.5632 95.8627 35.6706 95.8627 36.9921C95.8627 38.3137 95.5668 39.376 94.9722 40.2805C94.3805 41.1851 93.583 41.867 92.5855 42.3263L96.9025 49.8696H92.4841L87.8121 41.5119L90.351 43.011H85.8566V49.8696H81.9201H81.9172ZM85.8538 39.5845H89.1816C89.7395 39.5845 90.2242 39.4746 90.63 39.2549C91.0357 39.0351 91.3541 38.7307 91.5824 38.3391C91.8106 37.9502 91.9262 37.5022 91.9262 36.9949C91.9262 36.4877 91.8106 36.0115 91.5824 35.6227C91.3541 35.2338 91.0357 34.9295 90.63 34.7069C90.2242 34.4871 89.7395 34.3772 89.1816 34.3772H85.8538V39.5845Z" fill="white"/>
<path d="M102.307 50.1739C101.31 50.1739 100.445 50.0133 99.7175 49.6921C98.9905 49.3709 98.4298 48.9087 98.0409 48.3085C97.6521 47.7083 97.4576 46.9926 97.4576 46.1613C97.4576 45.3836 97.6352 44.6933 97.9902 44.0902C98.3453 43.49 98.8919 42.9857 99.6274 42.5771C100.366 42.1713 101.281 41.8839 102.383 41.7148L106.624 41.0301V43.8254L103.068 44.4594C102.524 44.5608 102.11 44.7355 101.822 44.9807C101.535 45.2258 101.391 45.5781 101.391 46.0345C101.391 46.46 101.552 46.7897 101.873 47.0264C102.194 47.2631 102.592 47.3815 103.068 47.3815C103.694 47.3815 104.246 47.2462 104.719 46.9757C105.193 46.7052 105.562 46.3361 105.824 45.8711C106.086 45.4062 106.218 44.8933 106.218 44.3354V40.7286C106.218 40.2045 106.01 39.7649 105.596 39.407C105.181 39.052 104.618 38.8744 103.908 38.8744C103.198 38.8744 102.634 39.0604 102.116 39.4324C101.6 39.8043 101.222 40.2946 100.986 40.9061L97.9367 39.4577C98.2072 38.68 98.6383 38.0094 99.2329 37.4514C99.8246 36.8935 100.538 36.4596 101.366 36.1552C102.194 35.8509 103.102 35.6959 104.082 35.6959C105.252 35.6959 106.283 35.9073 107.182 36.3327C108.078 36.7554 108.777 37.3443 109.276 38.0967C109.774 38.8491 110.025 39.7282 110.025 40.7257V49.8696H106.469V47.6351L107.334 47.4829C106.928 48.0916 106.478 48.596 105.987 48.9933C105.494 49.3906 104.945 49.6864 104.336 49.8809C103.727 50.0753 103.048 50.1739 102.304 50.1739H102.307Z" fill="white"/>
<path d="M111.933 49.8696V36.0031H115.489V38.7448L115.286 38.1362C115.607 37.3049 116.128 36.6934 116.847 36.2933C117.566 35.896 118.408 35.6959 119.375 35.6959C120.426 35.6959 121.344 35.9157 122.13 36.3553C122.917 36.7949 123.531 37.4092 123.971 38.1982C124.41 38.9843 124.63 39.9058 124.63 40.954V49.8696H120.82V41.7655C120.82 41.2245 120.716 40.7596 120.505 40.3679C120.293 39.979 119.997 39.6747 119.614 39.4521C119.234 39.2323 118.789 39.1224 118.281 39.1224C117.774 39.1224 117.349 39.2323 116.96 39.4521C116.571 39.6719 116.269 39.9762 116.058 40.3679C115.847 40.7596 115.74 41.2245 115.74 41.7655V49.8696H111.93H111.933Z" fill="white"/>
<path d="M133.554 50.1739C132.165 50.1739 130.916 49.8583 129.806 49.2215C128.696 48.5875 127.817 47.7196 127.166 46.6178C126.515 45.5161 126.188 44.2818 126.188 42.9096C126.188 41.5373 126.509 40.3059 127.152 39.2126C127.794 38.1221 128.676 37.2626 129.792 36.6343C130.908 36.0059 132.162 35.6931 133.551 35.6931C134.582 35.6931 135.541 35.8706 136.42 36.2257C137.302 36.5807 138.054 37.0767 138.682 37.7135C139.308 38.3475 139.756 39.0971 140.026 39.9593L136.727 41.3823C136.487 40.6891 136.087 40.1368 135.521 39.7311C134.954 39.3253 134.298 39.1224 133.554 39.1224C132.895 39.1224 132.306 39.283 131.787 39.6043C131.271 39.9255 130.863 40.3735 130.57 40.9483C130.274 41.526 130.125 42.1854 130.125 42.9293C130.125 43.6732 130.274 44.3354 130.57 44.9102C130.866 45.4851 131.271 45.9359 131.787 46.2571C132.303 46.5784 132.892 46.739 133.554 46.739C134.315 46.739 134.977 46.5361 135.535 46.1303C136.093 45.7246 136.49 45.1723 136.73 44.4791L140.029 45.9275C139.776 46.739 139.336 47.4688 138.711 48.1113C138.085 48.7538 137.33 49.2581 136.448 49.6216C135.569 49.9851 134.602 50.1683 133.554 50.1683V50.1739Z" fill="white"/>
<path d="M141.731 49.8696V30.6407H145.541V38.7448L145.085 38.1362C145.406 37.3049 145.927 36.6934 146.646 36.2933C147.364 35.896 148.207 35.6959 149.173 35.6959C150.224 35.6959 151.143 35.9157 151.929 36.3553C152.715 36.7949 153.33 37.4092 153.769 38.1982C154.209 38.9843 154.428 39.9058 154.428 40.954V49.8696H150.619V41.7655C150.619 41.2245 150.515 40.7596 150.303 40.3679C150.092 39.979 149.796 39.6747 149.413 39.4521C149.032 39.2323 148.587 39.1224 148.08 39.1224C147.573 39.1224 147.147 39.2323 146.758 39.4521C146.369 39.6719 146.068 39.9762 145.857 40.3679C145.645 40.7596 145.538 41.2245 145.538 41.7655V49.8696H141.729H141.731Z" fill="white"/>
<path d="M82.1962 60.8177V54.9346H83.4207V57.4773H85.7101V54.9346H86.9346V60.8177H85.7101V58.5422H83.4207V60.8177H82.1962Z" fill="white"/>
<path d="M89.1511 60.9114C88.8389 60.9114 88.5718 60.8628 88.3463 60.7622C88.1209 60.6616 87.9474 60.5194 87.826 60.3321C87.7046 60.1448 87.6456 59.9228 87.6456 59.6661C87.6456 59.4233 87.7011 59.2082 87.8121 59.0209C87.9231 58.8336 88.0931 58.6775 88.3221 58.5526C88.551 58.4277 88.8354 58.3375 89.1788 58.2855L90.497 58.0704V58.9376L89.3904 59.1354C89.2205 59.1666 89.0921 59.2221 89.0019 59.2984C88.9117 59.3747 88.8667 59.4857 88.8667 59.6245C88.8667 59.7563 88.9152 59.8603 89.0158 59.9332C89.1164 60.006 89.2413 60.0442 89.387 60.0442C89.5812 60.0442 89.7512 60.0026 89.9004 59.9193C90.046 59.8361 90.1605 59.7216 90.2438 59.5759C90.327 59.4302 90.3652 59.2706 90.3652 59.0972V57.9768C90.3652 57.8137 90.2993 57.675 90.1709 57.5675C90.0426 57.4565 89.8657 57.401 89.6471 57.401C89.4286 57.401 89.2517 57.4599 89.0921 57.5744C88.9326 57.6889 88.8146 57.8415 88.7418 58.0323L87.7948 57.5813C87.878 57.3385 88.0133 57.1304 88.1972 56.9569C88.381 56.7835 88.603 56.6482 88.8597 56.5546C89.1164 56.4609 89.4008 56.4123 89.7061 56.4123C90.0703 56.4123 90.3894 56.4782 90.6704 56.6101C90.9479 56.7419 91.1665 56.9257 91.3226 57.1581C91.4787 57.394 91.555 57.6646 91.555 57.9768V60.8212H90.4484V60.1274L90.7155 60.0789C90.5906 60.2697 90.4484 60.4257 90.2958 60.5506C90.1432 60.6755 89.9732 60.7657 89.7824 60.8281C89.5916 60.8871 89.3835 60.9183 89.1511 60.9183V60.9114ZM88.3706 55.6041V54.6571H91.0555V55.6041H88.3706Z" fill="white"/>
<path d="M92.3494 60.8177V56.506H93.456V57.5571L93.338 57.3836C93.4005 57.0506 93.5531 56.8078 93.7959 56.6482C94.0387 56.4886 94.3266 56.4123 94.6631 56.4123C95.0204 56.4123 95.3361 56.5025 95.6066 56.6864C95.8772 56.8668 96.0472 57.113 96.1165 57.4183L95.7766 57.4495C95.9188 57.0957 96.12 56.8355 96.3836 56.669C96.6473 56.4991 96.956 56.4158 97.3063 56.4158C97.6185 56.4158 97.8926 56.4852 98.1319 56.6205C98.3713 56.7592 98.5586 56.95 98.6973 57.1928C98.8326 57.4391 98.902 57.7236 98.902 58.0496V60.8212H97.7157V58.3028C97.7157 58.1329 97.6845 57.9906 97.6255 57.8692C97.5665 57.7478 97.4798 57.6542 97.3688 57.5848C97.2578 57.5154 97.1225 57.4807 96.9664 57.4807C96.8103 57.4807 96.682 57.5154 96.5675 57.5848C96.453 57.6542 96.3663 57.7478 96.3073 57.8692C96.2483 57.9906 96.2171 58.1363 96.2171 58.3028V60.8212H95.0308V58.3028C95.0308 58.1329 94.9996 57.9906 94.9406 57.8692C94.8816 57.7478 94.7949 57.6542 94.6839 57.5848C94.5729 57.5154 94.4376 57.4807 94.2815 57.4807C94.1255 57.4807 93.9971 57.5154 93.8826 57.5848C93.7682 57.6542 93.6814 57.7478 93.6225 57.8692C93.5635 57.9906 93.5323 58.1363 93.5323 58.3028V60.8212H92.3459L92.3494 60.8177Z" fill="white"/>
<path d="M100.945 60.9114C100.633 60.9114 100.366 60.8628 100.14 60.7622C99.9148 60.6616 99.7414 60.5194 99.62 60.3321C99.4986 60.1448 99.4396 59.9228 99.4396 59.6661C99.4396 59.4233 99.4951 59.2082 99.6061 59.0209C99.7171 58.8336 99.8871 58.6775 100.116 58.5526C100.345 58.4277 100.629 58.3375 100.973 58.2855L102.291 58.0704V58.9376L101.184 59.1354C101.014 59.1666 100.886 59.2221 100.796 59.2984C100.706 59.3747 100.661 59.4857 100.661 59.6245C100.661 59.7563 100.709 59.8603 100.81 59.9332C100.91 60.006 101.035 60.0442 101.181 60.0442C101.375 60.0442 101.545 60.0026 101.694 59.9193C101.84 59.8361 101.954 59.7216 102.038 59.5759C102.121 59.4302 102.159 59.2706 102.159 59.0972V57.9768C102.159 57.8137 102.093 57.675 101.965 57.5675C101.837 57.4565 101.66 57.401 101.441 57.401C101.223 57.401 101.046 57.4599 100.886 57.5744C100.726 57.6889 100.609 57.8415 100.536 58.0323L99.5887 57.5813C99.672 57.3385 99.8073 57.1304 99.9911 56.9569C100.175 56.7835 100.397 56.6482 100.654 56.5546C100.91 56.4609 101.195 56.4123 101.5 56.4123C101.864 56.4123 102.183 56.4782 102.464 56.6101C102.742 56.7419 102.96 56.9257 103.117 57.1581C103.273 57.394 103.349 57.6646 103.349 57.9768V60.8212H102.242V60.1274L102.509 60.0789C102.385 60.2697 102.242 60.4257 102.09 60.5506C101.937 60.6755 101.767 60.7657 101.576 60.8281C101.386 60.8871 101.177 60.9183 100.945 60.9183V60.9114ZM100.161 55.6041V54.6571H102.846V55.6041H100.161Z" fill="white"/>
<path d="M104.14 60.8177V54.8375H105.326V58.6671L104.882 58.5249L106.787 56.5025H108.247L106.683 58.2404L108.24 60.8143H106.898L105.593 58.6254L106.28 58.452L104.962 59.8881L105.326 59.2013V60.8108H104.14V60.8177Z" fill="white"/>
<path d="M110.179 60.9114C109.832 60.9114 109.534 60.8351 109.291 60.6859C109.048 60.5367 108.861 60.3252 108.733 60.0581C108.608 59.791 108.542 59.4753 108.542 59.118V56.5025H109.728V59.0209C109.728 59.1839 109.759 59.3261 109.829 59.451C109.895 59.5759 109.988 59.6696 110.11 59.7389C110.231 59.8083 110.366 59.843 110.519 59.843C110.672 59.843 110.814 59.8083 110.935 59.7389C111.053 59.6696 111.147 59.5759 111.213 59.451C111.279 59.3261 111.31 59.1839 111.31 59.0209V56.5025H112.496V60.8142H111.39V59.9609L111.452 60.1517C111.351 60.4084 111.188 60.5992 110.966 60.7241C110.741 60.8489 110.481 60.9114 110.179 60.9114Z" fill="white"/>
<path d="M114.564 60.9114C114.251 60.9114 113.984 60.8628 113.759 60.7622C113.533 60.6616 113.36 60.5194 113.238 60.3321C113.117 60.1448 113.058 59.9228 113.058 59.6661C113.058 59.4233 113.114 59.2082 113.225 59.0209C113.336 58.8336 113.506 58.6775 113.735 58.5526C113.963 58.4277 114.248 58.3375 114.591 58.2855L115.909 58.0704V58.9376L114.803 59.1354C114.633 59.1666 114.505 59.2221 114.414 59.2984C114.324 59.3747 114.279 59.4857 114.279 59.6245C114.279 59.7563 114.328 59.8603 114.428 59.9332C114.529 60.006 114.654 60.0442 114.799 60.0442C114.994 60.0442 115.164 60.0026 115.313 59.9193C115.459 59.8361 115.573 59.7216 115.656 59.5759C115.739 59.4302 115.778 59.2706 115.778 59.0972V57.9768C115.778 57.8137 115.712 57.675 115.583 57.5675C115.455 57.4565 115.278 57.401 115.06 57.401C114.841 57.401 114.664 57.4599 114.505 57.5744C114.345 57.6889 114.227 57.8415 114.154 58.0323L113.207 57.5813C113.291 57.3385 113.426 57.1304 113.61 56.9569C113.794 56.7835 114.015 56.6482 114.272 56.5546C114.529 56.4609 114.813 56.4123 115.119 56.4123C115.483 56.4123 115.802 56.4782 116.083 56.6101C116.36 56.7419 116.579 56.9257 116.735 57.1581C116.891 57.394 116.967 57.6646 116.967 57.9768V60.8212H115.861V60.1274L116.128 60.0789C116.003 60.2697 115.861 60.4257 115.708 60.5506C115.556 60.6755 115.386 60.7657 115.195 60.8281C115.004 60.8871 114.796 60.9183 114.564 60.9183V60.9114Z" fill="white"/>
<path d="M119.025 60.8177V54.9346H120.249V57.4773H122.538V54.9346H123.763V60.8177H122.538V58.5422H120.249V60.8177H119.025Z" fill="white"/>
<path d="M125.959 60.9114C125.647 60.9114 125.379 60.8628 125.154 60.7622C124.928 60.6616 124.755 60.5194 124.634 60.3321C124.512 60.1448 124.453 59.9228 124.453 59.6661C124.453 59.4233 124.509 59.2082 124.62 59.0209C124.731 58.8336 124.901 58.6775 125.13 58.5526C125.359 58.4277 125.643 58.3375 125.986 58.2855L127.305 58.0704V58.9376L126.198 59.1354C126.028 59.1666 125.9 59.2221 125.81 59.2984C125.719 59.3747 125.674 59.4857 125.674 59.6245C125.674 59.7563 125.723 59.8603 125.823 59.9332C125.924 60.006 126.049 60.0442 126.195 60.0442C126.389 60.0442 126.559 60.0026 126.708 59.9193C126.854 59.8361 126.968 59.7216 127.051 59.5759C127.135 59.4302 127.173 59.2706 127.173 59.0972V57.9768C127.173 57.8137 127.107 57.675 126.979 57.5675C126.85 57.4565 126.673 57.401 126.455 57.401C126.236 57.401 126.059 57.4599 125.9 57.5744C125.74 57.6889 125.622 57.8415 125.549 58.0323L124.602 57.5813C124.686 57.3385 124.821 57.1304 125.005 56.9569C125.189 56.7835 125.411 56.6482 125.667 56.5546C125.924 56.4609 126.208 56.4123 126.514 56.4123C126.878 56.4123 127.197 56.4782 127.478 56.6101C127.756 56.7419 127.974 56.9257 128.13 57.1581C128.286 57.394 128.363 57.6646 128.363 57.9768V60.8212H127.256V60.1274L127.523 60.0789C127.398 60.2697 127.256 60.4257 127.103 60.5506C126.951 60.6755 126.781 60.7657 126.59 60.8281C126.399 60.8871 126.191 60.9183 125.959 60.9183V60.9114Z" fill="white"/>
<path d="M130.045 60.8177L128.56 56.506H129.785L130.829 59.6175L130.402 59.6106L131.564 56.506H132.591L133.743 59.6106L133.316 59.6175L134.36 56.506H135.592L134.1 60.8177H133.073L131.873 57.4842H132.282L131.075 60.8177H130.048H130.045Z" fill="white"/>
<path d="M137.118 60.9114C136.806 60.9114 136.538 60.8628 136.313 60.7622C136.088 60.6616 135.914 60.5194 135.793 60.3321C135.671 60.1448 135.612 59.9228 135.612 59.6661C135.612 59.4233 135.668 59.2082 135.779 59.0209C135.89 58.8336 136.06 58.6775 136.289 58.5526C136.518 58.4277 136.802 58.3375 137.146 58.2855L138.464 58.0704V58.9376L137.357 59.1354C137.187 59.1666 137.059 59.2221 136.969 59.2984C136.878 59.3747 136.833 59.4857 136.833 59.6245C136.833 59.7563 136.882 59.8603 136.983 59.9332C137.083 60.006 137.208 60.0442 137.354 60.0442C137.548 60.0442 137.718 60.0026 137.867 59.9193C138.013 59.8361 138.127 59.7216 138.21 59.5759C138.294 59.4302 138.332 59.2706 138.332 59.0972V57.9768C138.332 57.8137 138.266 57.675 138.138 57.5675C138.009 57.4565 137.832 57.401 137.614 57.401C137.395 57.401 137.218 57.4599 137.059 57.5744C136.899 57.6889 136.781 57.8415 136.708 58.0323L135.761 57.5813C135.845 57.3385 135.98 57.1304 136.164 56.9569C136.348 56.7835 136.57 56.6482 136.826 56.5546C137.083 56.4609 137.368 56.4123 137.673 56.4123C138.037 56.4123 138.356 56.4782 138.637 56.6101C138.915 56.7419 139.133 56.9257 139.289 57.1581C139.445 57.394 139.522 57.6646 139.522 57.9768V60.8212H138.415V60.1274L138.682 60.0789C138.557 60.2697 138.415 60.4257 138.262 60.5506C138.11 60.6755 137.94 60.7657 137.749 60.8281C137.558 60.8871 137.35 60.9183 137.118 60.9183V60.9114Z" fill="white"/>
<path d="M140.274 56.1175V54.9312H141.461V56.1175H140.274ZM140.274 60.8177V56.506H141.461V60.8177H140.274Z" fill="white"/>
<path d="M142.474 57.2483V56.5615C142.474 56.1001 142.588 55.7186 142.814 55.4203C143.039 55.1219 143.376 54.9277 143.816 54.841V55.4341C143.632 55.4758 143.48 55.5555 143.362 55.6666C143.244 55.781 143.164 55.9128 143.129 56.0655H143.66V57.2518H142.474V57.2483Z" fill="white"/>
<path d="M144.732 56.1175V54.9312H145.918V56.1175H144.732ZM144.732 60.8177V56.506H145.918V60.8177H144.732Z" fill="white"/>
</svg>
