<svg preserveAspectRatio="none" width="100%" height="100%" overflow="visible" style="display: block;" viewBox="0 0 80.3223 19.5332" fill="none" xmlns="http://www.w3.org/2000/svg">
<g id="Group">
<path id="Vector" d="M8.25996e-06 19.2289V0.307142H12.9536V3.73644H3.93653V8.53802H11.6827V11.9673H3.93653V19.2317H8.25996e-06V19.2289Z" fill="var(--fill-0, white)"/>
<path id="Vector_2" d="M14.1709 19.2289V0H17.9806V19.2289H14.1709Z" fill="var(--fill-0, white)"/>
<path id="Vector_3" d="M27.2033 19.5332C25.8311 19.5332 24.5828 19.2204 23.4556 18.5949C22.3285 17.9693 21.4324 17.107 20.7618 16.0165C20.094 14.926 19.7586 13.6834 19.7586 12.2942C19.7586 10.905 20.094 9.64542 20.7618 8.56056C21.4296 7.47569 22.3285 6.6219 23.4556 5.99634C24.5799 5.37078 25.8311 5.05519 27.2033 5.05519C28.5756 5.05519 29.8183 5.36797 30.937 5.99634C32.0556 6.6219 32.9461 7.47851 33.6167 8.56056C34.2846 9.64542 34.6199 10.8881 34.6199 12.2942C34.6199 13.7003 34.2846 14.9232 33.6167 16.0165C32.9461 17.107 32.0556 17.9693 30.937 18.5949C29.8183 19.2204 28.5756 19.5332 27.2033 19.5332ZM27.2033 16.1039C27.8965 16.1039 28.5023 15.9433 29.018 15.622C29.5337 15.3008 29.9423 14.85 30.2382 14.2751C30.534 13.7003 30.6805 13.0381 30.6805 12.2942C30.6805 11.5503 30.5312 10.8937 30.2382 10.3273C29.9423 9.76096 29.5337 9.31011 29.018 8.98042C28.4995 8.65074 27.8965 8.48448 27.2033 8.48448C26.5102 8.48448 25.8987 8.64792 25.3746 8.98042C24.8505 9.31011 24.4391 9.75814 24.1432 10.3273C23.8473 10.8937 23.6979 11.5503 23.6979 12.2942C23.6979 13.0381 23.8473 13.7003 24.1432 14.2751C24.4391 14.85 24.8505 15.3008 25.3746 15.622C25.8987 15.9433 26.5073 16.1039 27.2033 16.1039Z" fill="var(--fill-0, white)"/>
<path id="Vector_4" d="M39.3228 19.2289L34.5466 5.36233H38.4831L41.8363 15.3684L40.464 15.3431L44.1977 5.36233H47.5002L51.2084 15.3431L49.8361 15.3684L53.1894 5.36233H57.1512L52.3525 19.2289H49.05L45.1895 8.50984H46.5111L42.6253 19.2289H39.3228Z" fill="var(--fill-0, white)"/>
<path id="Vector_5" d="M64.3198 19.5332C62.8461 19.5332 61.5668 19.2063 60.4847 18.5554C59.3999 17.9045 58.563 17.0281 57.9712 15.9264C57.3795 14.8274 57.0836 13.6073 57.0836 12.2688C57.0836 10.9304 57.3936 9.64542 58.0107 8.56056C58.6278 7.47569 59.4619 6.6219 60.5129 5.99634C61.564 5.37078 62.7474 5.05519 64.069 5.05519C65.1708 5.05519 66.1429 5.22989 66.9911 5.57648C67.8393 5.92307 68.5522 6.41056 69.1383 7.03612C69.7216 7.66168 70.1668 8.38586 70.4711 9.20866C70.7754 10.0287 70.9276 10.9219 70.9276 11.8884C70.9276 12.1589 70.9163 12.4266 70.891 12.6887C70.8656 12.9507 70.8205 13.1762 70.7529 13.3621H60.3636V10.5669H68.5945L66.791 11.8884C66.9601 11.1614 66.9517 10.5133 66.7657 9.94411C66.5797 9.37773 66.2528 8.92688 65.7879 8.59719C65.3229 8.26751 64.7509 8.10126 64.0747 8.10126C63.3984 8.10126 62.8461 8.26187 62.3727 8.58311C61.8993 8.90434 61.5414 9.38055 61.3047 10.0061C61.068 10.6317 60.9751 11.3953 61.0258 12.2914C60.9581 13.0691 61.0511 13.7566 61.3047 14.3484C61.5583 14.9401 61.9472 15.4023 62.4741 15.7319C62.9982 16.0616 63.6322 16.2279 64.379 16.2279C65.0581 16.2279 65.6357 16.0926 66.1176 15.8221C66.5994 15.5516 66.977 15.1768 67.2475 14.7034L70.2964 16.1518C70.0259 16.8281 69.5976 17.4226 69.0143 17.9299C68.4282 18.4371 67.7407 18.8316 66.9432 19.1105C66.1458 19.3895 65.2751 19.5304 64.3283 19.5304L64.3198 19.5332Z" fill="var(--fill-0, white)"/>
<path id="Vector_6" d="M72.1928 19.2289V5.36233H75.7489V8.69019L75.4953 8.20833C75.7997 7.03893 76.304 6.24994 77.0085 5.8329C77.7101 5.41868 78.5442 5.21016 79.5107 5.21016H80.3223V8.51266H79.1275C78.1948 8.51266 77.4424 8.79726 76.8676 9.36364C76.2928 9.93003 76.0025 10.7303 76.0025 11.7644V19.2317H72.1928V19.2289Z" fill="var(--fill-0, white)"/>
</g>
</svg>
