<svg xmlns="http://www.w3.org/2000/svg" viewBox="0 0 71.7731 69.6307" fill="none">
  <path d="M70.6853 34.1824C68.5776 38.6599 65.2751 42.2836 61.1441 44.7295C63.5872 49.5029 64.3762 54.9103 63.3618 60.3009C62.3502 65.7054 57.636 69.6307 52.1496 69.6307C51.665 69.6307 51.1747 69.5997 50.6928 69.5377C45.4573 68.8586 40.7262 66.5762 37.0151 62.9947C33.304 66.579 28.5757 68.8614 23.3486 69.5377C17.3523 70.3013 11.7842 66.2436 10.6712 60.2952C9.72721 55.271 10.35 50.2243 12.4239 45.6932C7.45323 43.2896 3.49417 39.2911 1.08774 34.1824C-1.4793 28.7214 0.642534 22.1672 5.92315 19.262C10.5641 16.7147 15.7433 15.7679 20.852 16.4836C21.7565 11.4002 24.2447 6.76491 28.0769 3.13273C32.4615 -1.04048 39.3539 -1.04612 43.7581 3.12709C47.5904 6.76209 50.0757 11.3946 50.9802 16.4751C56.072 15.7763 61.2259 16.7231 65.8471 19.262H65.8499C71.1305 22.1672 73.2524 28.7214 70.6853 34.1824Z" fill="#3BA934"/>
  <path d="M64.3087 23.0435C59.4 20.3468 53.7672 19.8199 48.4443 21.5557C47.9314 21.7219 47.4242 21.9107 46.9227 22.1193C46.9649 21.5782 46.9875 21.0344 46.9875 20.4877C46.9875 14.869 44.7473 9.64473 40.6783 5.78431C38.0042 3.25108 33.8198 3.2539 31.1541 5.78995C27.0851 9.64474 24.845 14.8662 24.845 20.4877C24.845 21.0457 24.8675 21.6008 24.9126 22.1503C24.3913 21.9305 23.8587 21.7304 23.3233 21.5557C18.0005 19.8199 12.3676 20.3497 7.45897 23.0463C4.24383 24.8159 2.95044 28.8088 4.51716 32.1367C6.90949 37.22 11.1588 40.9762 16.4817 42.7148C17.3242 42.9909 18.1864 43.2107 19.0487 43.3685C18.7585 43.7179 18.4739 44.0758 18.2062 44.4506C14.9178 48.9986 13.6807 54.5469 14.7177 60.067C15.3968 63.6907 18.7782 66.1563 22.4188 65.6914C27.9671 64.9728 32.8335 62.0733 36.1247 57.5253C36.4488 57.0744 36.7531 56.6151 37.0349 56.1474C37.3082 56.5842 37.6182 57.0406 37.9676 57.5253C41.256 62.0733 46.1224 64.9728 51.6707 65.6914C51.9694 65.7308 52.2653 65.7477 52.5583 65.7477C55.8467 65.7477 58.7491 63.392 59.3718 60.067C60.4088 54.544 59.169 48.9986 55.8834 44.4506C55.4945 43.9152 55.0803 43.3995 54.6492 42.9092C54.8633 42.8472 55.0746 42.7852 55.286 42.7148C60.6089 40.979 64.8582 37.2228 67.2505 32.1367C68.8172 28.806 67.5238 24.8131 64.3087 23.0435ZM57.3825 59.6894C56.9006 62.2564 54.5083 64.0148 51.9328 63.6766C46.9452 63.0313 42.5691 60.422 39.6132 56.3362C38.8693 55.302 38.3367 54.4341 37.9394 53.6029L37.0265 51.7037L36.1135 53.6029C35.6683 54.5299 35.1188 55.4486 34.4819 56.3334C31.5232 60.422 27.1471 63.0313 22.1596 63.6766C19.5897 64.0119 17.1889 62.2592 16.7099 59.6894C15.7772 54.7187 16.8902 49.7284 19.849 45.6341C20.4717 44.7746 21.1564 43.98 21.8862 43.2699C22.5907 42.7148 24.3547 41.4327 25.679 40.8522C27.1894 45.7665 31.7937 49.2268 37.018 49.2268C39.3822 49.2268 41.6674 48.5336 43.623 47.2233C44.3584 46.7302 45.0263 46.1638 45.6237 45.5354L43.1496 45.0592C42.9383 45.2283 42.7213 45.3889 42.4959 45.5383C40.8756 46.6259 38.982 47.2008 37.0208 47.2008C32.377 47.2008 28.325 43.9039 27.3895 39.3644L27.1838 38.3725L25.9158 38.6346C24.0729 39.0854 21.5115 40.9987 20.7704 41.5736C20.5872 41.5538 20.3984 41.5285 20.2012 41.5003L20.1195 41.489C19.1107 41.3453 18.1019 41.1086 17.1128 40.7874C12.3253 39.2263 8.50437 35.8477 6.35437 31.2744C5.24133 28.9102 6.15713 26.0755 8.43957 24.8216C12.8523 22.3982 17.9159 21.922 22.7006 23.4831C23.5769 23.7677 24.4336 24.1284 25.262 24.5454C25.7551 26.9913 26.6822 29.2963 28.0291 31.3984L28.3278 31.8661H38.7341C40.2585 31.8661 41.4983 33.0299 41.4983 34.4557C41.4983 35.1405 41.2166 35.7886 40.7094 36.2732C40.1824 36.7748 39.4808 37.0509 38.7341 37.0509H33.9184L35.981 38.8318C38.5678 41.0635 41.6392 42.5683 44.8938 43.2643L47.1143 43.6108C47.7567 43.6728 48.3992 43.7095 49.0473 43.7095C49.9575 43.7095 50.8733 43.6475 51.789 43.5179L51.8595 43.5094C52.0257 43.4869 52.192 43.4559 52.3583 43.4277C53.0345 44.104 53.6685 44.8451 54.2406 45.6369C57.1993 49.7312 58.3151 54.7216 57.3796 59.6922L57.3825 59.6894ZM65.4189 31.2716C63.2661 35.8449 59.4451 39.2235 54.6576 40.7846C53.6686 41.1086 52.6569 41.3425 51.651 41.4862L51.5721 41.4975C50.4111 41.6637 49.2446 41.7116 48.0893 41.6497L45.99 41.4129C43.747 41.0213 41.5857 40.2069 39.6245 38.9981C40.5544 38.829 41.4138 38.3979 42.107 37.7413C43.02 36.865 43.5244 35.6984 43.5244 34.4557C43.5244 31.9112 41.3744 29.8401 38.7341 29.8401H29.4437L28.8519 28.7581C28.0488 27.1829 27.4796 25.5035 27.1641 23.7452L27.1471 23.6522C26.9668 22.6293 26.8738 21.567 26.8738 20.4906C26.8738 15.4297 28.8886 10.7324 32.5517 7.26085C34.4369 5.46871 37.3956 5.46589 39.2863 7.25521C42.9467 10.7296 44.9643 15.4297 44.9643 20.4877C44.9643 21.5642 44.8713 22.6265 44.6909 23.6494L44.3274 25.6979L46.1647 24.7201C47.0974 24.2242 48.0752 23.8071 49.0755 23.4803C53.8602 21.9192 58.9238 22.3954 63.3365 24.8187C65.619 26.0727 66.5348 28.9074 65.4217 31.2716H65.4189Z" fill="white"/>
  <path d="M37.1054 24.5426C34.9301 24.5426 32.8561 25.1259 31.0527 26.1995L32.3856 27.7803C33.8086 26.9998 35.4204 26.5714 37.1054 26.5714C42.5326 26.5714 46.9481 30.987 46.9481 36.4141C46.9481 37.1158 46.872 37.8033 46.7311 38.474L48.7487 38.7135C48.8952 37.9639 48.9769 37.1947 48.9769 36.4141C48.9769 29.8683 43.6512 24.5454 37.1082 24.5454L37.1054 24.5426Z" fill="white"/>
</svg>
